<?xml version="1.0" encoding="UTF-8" standalone="no"?><svg xmlns="http://www.w3.org/2000/svg" xmlns:xlink="http://www.w3.org/1999/xlink" clip-rule="evenodd" stroke-miterlimit="4.00" viewBox="0 0 1024 768"><desc>SVG generated by Keynote</desc><defs></defs><g transform="matrix(1.00, 0.00, -0.00, -1.00, 0.0, 768.0)"><g><clipPath id="clip-409"><path d="M 0.0 768.0 L 1024.0 768.0 L 1024.0 0.0 L 0.0 0.0 Z M 0.0 768.0 "></path></clipPath><g clip-path="url(#clip-409)"><image xlink:href="AC8A38799F83CDE46BAD7F0B4FE74D5F.jpeg" width="1024.00" height="768.00" transform="matrix(1.00, 0.00, -0.00, -1.00, 0.0, 768.0)"></image></g></g><text xml:space="preserve" font-family="Futura-Medium" font-size="54.1" fill="#5B5753" transform="matrix(1.00, 0.00, -0.00, -1.00, 297.0, 546.0)">A</text><text xml:space="preserve" font-family="Futura-Medium" font-size="54.1" fill="#5B5753" transform="matrix(1.00, 0.00, -0.00, -1.00, 338.1, 546.0)">M</text><text xml:space="preserve" font-family="Futura-Medium" font-size="54.1" fill="#5B5753" transform="matrix(1.00, 0.00, -0.00, -1.00, 391.2, 546.0)">P</text><text xml:space="preserve" font-family="Futura-Medium" font-size="54.1" fill="#5B5753" transform="matrix(1.00, 0.00, -0.00, -1.00, 421.5, 546.0)">L</text><text xml:space="preserve" font-family="Futura-Medium" font-size="54.1" fill="#5B5753" transform="matrix(1.00, 0.00, -0.00, -1.00, 446.6, 546.0)">I</text><text xml:space="preserve" font-family="Futura-Medium" font-size="54.1" fill="#5B5753" transform="matrix(1.00, 0.00, -0.00, -1.00, 463.6, 546.0)">A</text><text xml:space="preserve" font-family="Futura-Medium" font-size="54.1" fill="#5B5753" transform="matrix(1.00, 0.00, -0.00, -1.00, 504.7, 546.0)">N</text><text xml:space="preserve" font-family="Futura-Medium" font-size="54.1" fill="#5B5753" transform="matrix(1.00, 0.00, -0.00, -1.00, 551.5, 546.0)">D</text><text xml:space="preserve" font-family="Futura-Medium" font-size="54.1" fill="#5B5753" transform="matrix(1.00, 0.00, -0.00, -1.00, 591.8, 546.0)">O</text><text xml:space="preserve" font-family="Futura-Medium" font-size="54.1" fill="#5B5753" transform="matrix(1.00, 0.00, -0.00, -1.00, 641.2, 546.0)"> </text><text xml:space="preserve" font-family="Futura-Medium" font-size="54.1" fill="#5B5753" transform="matrix(1.00, 0.00, -0.00, -1.00, 659.0, 546.0)">L</text><text xml:space="preserve" font-family="Futura-Medium" font-size="54.1" fill="#5B5753" transform="matrix(1.00, 0.00, -0.00, -1.00, 686.4, 546.0)">A</text><text xml:space="preserve" font-family="Futura-Medium" font-size="54.1" fill="#5B5753" transform="matrix(1.00, 0.00, -0.00, -1.00, 727.5, 546.0)"> </text><text xml:space="preserve" font-family="Futura-Medium" font-size="54.1" fill="#5B5753" transform="matrix(1.00, 0.00, -0.00, -1.00, 63.0, 474.0)">D</text><text xml:space="preserve" font-family="Futura-Medium" font-size="54.1" fill="#5B5753" transform="matrix(1.00, 0.00, -0.00, -1.00, 103.4, 474.0)">O</text><text xml:space="preserve" font-family="Futura-Medium" font-size="54.1" fill="#5B5753" transform="matrix(1.00, 0.00, -0.00, -1.00, 152.7, 474.0)">C</text><text xml:space="preserve" font-family="Futura-Medium" font-size="54.1" fill="#5B5753" transform="matrix(1.00, 0.00, -0.00, -1.00, 191.7, 474.0)">U</text><text xml:space="preserve" font-family="Futura-Medium" font-size="54.1" fill="#5B5753" transform="matrix(1.00, 0.00, -0.00, -1.00, 232.7, 474.0)">M</text><text xml:space="preserve" font-family="Futura-Medium" font-size="54.1" fill="#5B5753" transform="matrix(1.00, 0.00, -0.00, -1.00, 285.8, 474.0)">E</text><text xml:space="preserve" font-family="Futura-Medium" font-size="54.1" fill="#5B5753" transform="matrix(1.00, 0.00, -0.00, -1.00, 317.5, 474.0)">N</text><text xml:space="preserve" font-family="Futura-Medium" font-size="54.1" fill="#5B5753" transform="matrix(1.00, 0.00, -0.00, -1.00, 364.2, 474.0)">T</text><text xml:space="preserve" font-family="Futura-Medium" font-size="54.1" fill="#5B5753" transform="matrix(1.00, 0.00, -0.00, -1.00, 389.2, 474.0)">A</text><text xml:space="preserve" font-family="Futura-Medium" font-size="54.1" fill="#5B5753" transform="matrix(1.00, 0.00, -0.00, -1.00, 428.4, 474.0)">C</text><text xml:space="preserve" font-family="Futura-Medium" font-size="54.1" fill="#5B5753" transform="matrix(1.00, 0.00, -0.00, -1.00, 467.4, 474.0)">I</text><text xml:space="preserve" font-family="Futura-Medium" font-size="54.1" fill="#5B5753" transform="matrix(1.00, 0.00, -0.00, -1.00, 484.4, 474.0)">Ó</text><text xml:space="preserve" font-family="Futura-Medium" font-size="54.1" fill="#5B5753" transform="matrix(1.00, 0.00, -0.00, -1.00, 533.7, 474.0)">N</text><text xml:space="preserve" font-family="Futura-Medium" font-size="54.1" fill="#5B5753" transform="matrix(1.00, 0.00, -0.00, -1.00, 580.5, 474.0)"> </text><text xml:space="preserve" font-family="Futura-Medium" font-size="54.1" fill="#5B5753" transform="matrix(1.00, 0.00, -0.00, -1.00, 598.2, 474.0)">D</text><text xml:space="preserve" font-family="Futura-Medium" font-size="54.1" fill="#5B5753" transform="matrix(1.00, 0.00, -0.00, -1.00, 638.6, 474.0)">E</text><text xml:space="preserve" font-family="Futura-Medium" font-size="54.1" fill="#5B5753" transform="matrix(1.00, 0.00, -0.00, -1.00, 670.2, 474.0)"> </text><text xml:space="preserve" font-family="Futura-Medium" font-size="54.1" fill="#5B5753" transform="matrix(1.00, 0.00, -0.00, -1.00, 688.0, 474.0)">A</text><text xml:space="preserve" font-family="Futura-Medium" font-size="54.1" fill="#5B5753" transform="matrix(1.00, 0.00, -0.00, -1.00, 729.1, 474.0)">P</text><text xml:space="preserve" font-family="Futura-Medium" font-size="54.1" fill="#5B5753" transform="matrix(1.00, 0.00, -0.00, -1.00, 759.4, 474.0)">I</text><text xml:space="preserve" font-family="Futura-Medium" font-size="54.1" fill="#5B5753" transform="matrix(1.00, 0.00, -0.00, -1.00, 776.4, 474.0)">S</text><text xml:space="preserve" font-family="Futura-Medium" font-size="54.1" fill="#5B5753" transform="matrix(1.00, 0.00, -0.00, -1.00, 809.0, 474.0)"> </text><text xml:space="preserve" font-family="Futura-Medium" font-size="54.1" fill="#5B5753" transform="matrix(1.00, 0.00, -0.00, -1.00, 826.8, 474.0)">C</text><text xml:space="preserve" font-family="Futura-Medium" font-size="54.1" fill="#5B5753" transform="matrix(1.00, 0.00, -0.00, -1.00, 865.5, 474.0)">O</text><text xml:space="preserve" font-family="Futura-Medium" font-size="54.1" fill="#5B5753" transform="matrix(1.00, 0.00, -0.00, -1.00, 914.8, 474.0)">N</text><text xml:space="preserve" font-family="Futura-Medium" font-size="54.1" fill="#5B5753" transform="matrix(1.00, 0.00, -0.00, -1.00, 961.6, 474.0)"> </text><text xml:space="preserve" font-family="Futura-Medium" font-size="54.1" fill="#5B5753" transform="matrix(1.00, 0.00, -0.00, -1.00, 68.0, 402.0)">D</text><text xml:space="preserve" font-family="Futura-Medium" font-size="54.1" fill="#5B5753" transform="matrix(1.00, 0.00, -0.00, -1.00, 108.4, 402.0)">R</text><text xml:space="preserve" font-family="Futura-Medium" font-size="54.1" fill="#5B5753" transform="matrix(1.00, 0.00, -0.00, -1.00, 142.0, 402.0)">F</text><text xml:space="preserve" font-family="Futura-Medium" font-size="54.1" fill="#5B5753" transform="matrix(1.00, 0.00, -0.00, -1.00, 172.1, 402.0)">-</text><text xml:space="preserve" font-family="Futura-Medium" font-size="54.1" fill="#5B5753" transform="matrix(1.00, 0.00, -0.00, -1.00, 185.0, 402.0)">S</text><text xml:space="preserve" font-family="Futura-Medium" font-size="54.1" fill="#5B5753" transform="matrix(1.00, 0.00, -0.00, -1.00, 217.5, 402.0)">W</text><text xml:space="preserve" font-family="Futura-Medium" font-size="54.1" fill="#5B5753" transform="matrix(1.00, 0.00, -0.00, -1.00, 272.4, 402.0)">A</text><text xml:space="preserve" font-family="Futura-Medium" font-size="54.1" fill="#5B5753" transform="matrix(1.00, 0.00, -0.00, -1.00, 311.7, 402.0)">G</text><text xml:space="preserve" font-family="Futura-Medium" font-size="54.1" fill="#5B5753" transform="matrix(1.00, 0.00, -0.00, -1.00, 358.3, 402.0)">G</text><text xml:space="preserve" font-family="Futura-Medium" font-size="54.1" fill="#5B5753" transform="matrix(1.00, 0.00, -0.00, -1.00, 405.0, 402.0)">E</text><text xml:space="preserve" font-family="Futura-Medium" font-size="54.1" fill="#5B5753" transform="matrix(1.00, 0.00, -0.00, -1.00, 436.6, 402.0)">R</text><text xml:space="preserve" font-family="Futura-Medium" font-size="54.1" fill="#5B5753" transform="matrix(1.00, 0.00, -0.00, -1.00, 471.0, 402.0)">-</text><text xml:space="preserve" font-family="Futura-Medium" font-size="54.1" fill="#5B5753" transform="matrix(1.00, 0.00, -0.00, -1.00, 483.9, 402.0)">C</text><text xml:space="preserve" font-family="Futura-Medium" font-size="54.1" fill="#5B5753" transform="matrix(1.00, 0.00, -0.00, -1.00, 522.9, 402.0)">U</text><text xml:space="preserve" font-family="Futura-Medium" font-size="54.1" fill="#5B5753" transform="matrix(1.00, 0.00, -0.00, -1.00, 563.9, 402.0)">S</text><text xml:space="preserve" font-family="Futura-Medium" font-size="54.1" fill="#5B5753" transform="matrix(1.00, 0.00, -0.00, -1.00, 597.3, 402.0)">T</text><text xml:space="preserve" font-family="Futura-Medium" font-size="54.1" fill="#5B5753" transform="matrix(1.00, 0.00, -0.00, -1.00, 623.2, 402.0)">O</text><text xml:space="preserve" font-family="Futura-Medium" font-size="54.1" fill="#5B5753" transform="matrix(1.00, 0.00, -0.00, -1.00, 672.5, 402.0)">M</text><text xml:space="preserve" font-family="Futura-Medium" font-size="54.1" fill="#5B5753" transform="matrix(1.00, 0.00, -0.00, -1.00, 725.6, 402.0)">I</text><text xml:space="preserve" font-family="Futura-Medium" font-size="54.1" fill="#5B5753" transform="matrix(1.00, 0.00, -0.00, -1.00, 742.6, 402.0)">Z</text><text xml:space="preserve" font-family="Futura-Medium" font-size="54.1" fill="#5B5753" transform="matrix(1.00, 0.00, -0.00, -1.00, 777.5, 402.0)">A</text><text xml:space="preserve" font-family="Futura-Medium" font-size="54.1" fill="#5B5753" transform="matrix(1.00, 0.00, -0.00, -1.00, 816.4, 402.0)">T</text><text xml:space="preserve" font-family="Futura-Medium" font-size="54.1" fill="#5B5753" transform="matrix(1.00, 0.00, -0.00, -1.00, 843.6, 402.0)">I</text><text xml:space="preserve" font-family="Futura-Medium" font-size="54.1" fill="#5B5753" transform="matrix(1.00, 0.00, -0.00, -1.00, 860.6, 402.0)">O</text><text xml:space="preserve" font-family="Futura-Medium" font-size="54.1" fill="#5B5753" transform="matrix(1.00, 0.00, -0.00, -1.00, 910.0, 402.0)">N</text><text xml:space="preserve" font-family="Avenir-Medium" font-size="24.0" fill="#5B5753" transform="matrix(1.00, 0.00, -0.00, -1.00, 121.0, 247.0)">A</text><text xml:space="preserve" font-family="Avenir-Medium" font-size="24.0" fill="#5B5753" transform="matrix(1.00, 0.00, -0.00, -1.00, 137.9, 247.0)">n</text><text xml:space="preserve" font-family="Avenir-Medium" font-size="24.0" fill="#5B5753" transform="matrix(1.00, 0.00, -0.00, -1.00, 151.2, 247.0)">d</text><text xml:space="preserve" font-family="Avenir-Medium" font-size="24.0" fill="#5B5753" transform="matrix(1.00, 0.00, -0.00, -1.00, 165.9, 247.0)">r</text><text xml:space="preserve" font-family="Avenir-Medium" font-size="24.0" fill="#5B5753" transform="matrix(1.00, 0.00, -0.00, -1.00, 174.4, 247.0)">é</text><text xml:space="preserve" font-family="Avenir-Medium" font-size="24.0" fill="#5B5753" transform="matrix(1.00, 0.00, -0.00, -1.00, 187.7, 247.0)">s</text><text xml:space="preserve" font-family="Avenir-Medium" font-size="24.0" fill="#5B5753" transform="matrix(1.00, 0.00, -0.00, -1.00, 198.4, 247.0)"> </text><text xml:space="preserve" font-family="Avenir-Medium" font-size="24.0" fill="#5B5753" transform="matrix(1.00, 0.00, -0.00, -1.00, 205.0, 247.0)">R</text><text xml:space="preserve" font-family="Avenir-Medium" font-size="24.0" fill="#5B5753" transform="matrix(1.00, 0.00, -0.00, -1.00, 219.7, 247.0)">o</text><text xml:space="preserve" font-family="Avenir-Medium" font-size="24.0" fill="#5B5753" transform="matrix(1.00, 0.00, -0.00, -1.00, 233.9, 247.0)">j</text><text xml:space="preserve" font-family="Avenir-Medium" font-size="24.0" fill="#5B5753" transform="matrix(1.00, 0.00, -0.00, -1.00, 239.7, 247.0)">a</text><text xml:space="preserve" font-family="Avenir-Medium" font-size="24.0" fill="#5B5753" transform="matrix(1.00, 0.00, -0.00, -1.00, 252.2, 247.0)">n</text><text xml:space="preserve" font-family="Avenir-Medium" font-size="24.0" fill="#5B5753" transform="matrix(1.00, 0.00, -0.00, -1.00, 265.5, 247.0)">o</text><text xml:space="preserve" font-family="Avenir-Medium" font-size="24.0" fill="#5B5753" transform="matrix(1.00, 0.00, -0.00, -1.00, 279.8, 247.0)"> </text><text xml:space="preserve" font-family="Avenir-Medium" font-size="24.0" fill="#5B5753" transform="matrix(1.00, 0.00, -0.00, -1.00, 286.4, 247.0)">R</text><text xml:space="preserve" font-family="Avenir-Medium" font-size="24.0" fill="#5B5753" transform="matrix(1.00, 0.00, -0.00, -1.00, 301.1, 247.0)">u</text><text xml:space="preserve" font-family="Avenir-Medium" font-size="24.0" fill="#5B5753" transform="matrix(1.00, 0.00, -0.00, -1.00, 314.4, 247.0)">i</text><text xml:space="preserve" font-family="Avenir-Medium" font-size="24.0" fill="#5B5753" transform="matrix(1.00, 0.00, -0.00, -1.00, 320.2, 247.0)">z</text><text xml:space="preserve" font-family="Avenir-Medium" font-size="24.0" fill="#5B5753" transform="matrix(1.00, 0.00, -0.00, -1.00, 679.0, 247.0)">A</text><text xml:space="preserve" font-family="Avenir-Medium" font-size="24.0" fill="#5B5753" transform="matrix(1.00, 0.00, -0.00, -1.00, 695.9, 247.0)">n</text><text xml:space="preserve" font-family="Avenir-Medium" font-size="24.0" fill="#5B5753" transform="matrix(1.00, 0.00, -0.00, -1.00, 709.2, 247.0)">a</text><text xml:space="preserve" font-family="Avenir-Medium" font-size="24.0" fill="#5B5753" transform="matrix(1.00, 0.00, -0.00, -1.00, 721.7, 247.0)">l</text><text xml:space="preserve" font-family="Avenir-Medium" font-size="24.0" fill="#5B5753" transform="matrix(1.00, 0.00, -0.00, -1.00, 727.5, 247.0)">i</text><text xml:space="preserve" font-family="Avenir-Medium" font-size="24.0" fill="#5B5753" transform="matrix(1.00, 0.00, -0.00, -1.00, 733.2, 247.0)">s</text><text xml:space="preserve" font-family="Avenir-Medium" font-size="24.0" fill="#5B5753" transform="matrix(1.00, 0.00, -0.00, -1.00, 743.9, 247.0)">t</text><text xml:space="preserve" font-family="Avenir-Medium" font-size="24.0" fill="#5B5753" transform="matrix(1.00, 0.00, -0.00, -1.00, 752.8, 247.0)">a</text><text xml:space="preserve" font-family="Avenir-Medium" font-size="24.0" fill="#5B5753" transform="matrix(1.00, 0.00, -0.00, -1.00, 765.2, 247.0)"> </text><text xml:space="preserve" font-family="Avenir-Medium" font-size="24.0" fill="#5B5753" transform="matrix(1.00, 0.00, -0.00, -1.00, 771.9, 247.0)">P</text><text xml:space="preserve" font-family="Avenir-Medium" font-size="24.0" fill="#5B5753" transform="matrix(1.00, 0.00, -0.00, -1.00, 786.1, 247.0)">r</text><text xml:space="preserve" font-family="Avenir-Medium" font-size="24.0" fill="#5B5753" transform="matrix(1.00, 0.00, -0.00, -1.00, 794.6, 247.0)">o</text><text xml:space="preserve" font-family="Avenir-Medium" font-size="24.0" fill="#5B5753" transform="matrix(1.00, 0.00, -0.00, -1.00, 808.8, 247.0)">g</text><text xml:space="preserve" font-family="Avenir-Medium" font-size="24.0" fill="#5B5753" transform="matrix(1.00, 0.00, -0.00, -1.00, 823.5, 247.0)">r</text><text xml:space="preserve" font-family="Avenir-Medium" font-size="24.0" fill="#5B5753" transform="matrix(1.00, 0.00, -0.00, -1.00, 832.4, 247.0)">a</text><text xml:space="preserve" font-family="Avenir-Medium" font-size="24.0" fill="#5B5753" transform="matrix(1.00, 0.00, -0.00, -1.00, 844.8, 247.0)">m</text><text xml:space="preserve" font-family="Avenir-Medium" font-size="24.0" fill="#5B5753" transform="matrix(1.00, 0.00, -0.00, -1.00, 865.3, 247.0)">a</text><text xml:space="preserve" font-family="Avenir-Medium" font-size="24.0" fill="#5B5753" transform="matrix(1.00, 0.00, -0.00, -1.00, 877.7, 247.0)">d</text><text xml:space="preserve" font-family="Avenir-Medium" font-size="24.0" fill="#5B5753" transform="matrix(1.00, 0.00, -0.00, -1.00, 892.4, 247.0)">o</text><text xml:space="preserve" font-family="Avenir-Medium" font-size="24.0" fill="#5B5753" transform="matrix(1.00, 0.00, -0.00, -1.00, 906.6, 247.0)">r</text><image xlink:href="757A8229B00DFA96F57B2139A0CFE739.jpeg" width="280.00" height="44.00" transform="matrix(1.00, 0.00, -0.00, -1.02, 372.0, 178.0)"></image><image xlink:href="761A4DC9BFE8BA41042BDAF2731C53AE.png" width="288.00" height="53.00" transform="matrix(1.00, 0.00, -0.00, 1.00, 368.0, 129.0)"></image></g></svg>