<?xml version="1.0" encoding="UTF-8" standalone="no"?><svg xmlns="http://www.w3.org/2000/svg" xmlns:xlink="http://www.w3.org/1999/xlink" clip-rule="evenodd" stroke-miterlimit="4.00" viewBox="0 0 601 31"><desc>SVG generated by Keynote</desc><defs></defs><g transform="matrix(1.00, 0.00, -0.00, -1.00, 0.0, 31.0)"><text xml:space="preserve" font-family="Avenir-Medium" font-size="28.0" fill="#5B5753" transform="matrix(1.00, 0.00, -0.00, -1.00, -1.0, 8.0)">1</text><text xml:space="preserve" font-family="Avenir-Medium" font-size="28.0" fill="#5B5753" transform="matrix(1.00, 0.00, -0.00, -1.00, 15.1, 8.0)">.</text><text xml:space="preserve" font-family="Avenir-Medium" font-size="28.0" fill="#5B5753" transform="matrix(1.00, 0.00, -0.00, -1.00, 23.5, 8.0)"> </text><text xml:space="preserve" font-family="Avenir-Medium" font-size="28.0" fill="#5B5753" transform="matrix(1.00, 0.00, -0.00, -1.00, 31.8, 8.0)">D</text><text xml:space="preserve" font-family="Avenir-Medium" font-size="28.0" fill="#5B5753" transform="matrix(1.00, 0.00, -0.00, -1.00, 53.1, 8.0)">e</text><text xml:space="preserve" font-family="Avenir-Medium" font-size="28.0" fill="#5B5753" transform="matrix(1.00, 0.00, -0.00, -1.00, 69.3, 8.0)">f</text><text xml:space="preserve" font-family="Avenir-Medium" font-size="28.0" fill="#5B5753" transform="matrix(1.00, 0.00, -0.00, -1.00, 79.1, 8.0)">i</text><text xml:space="preserve" font-family="Avenir-Medium" font-size="28.0" fill="#5B5753" transform="matrix(1.00, 0.00, -0.00, -1.00, 86.4, 8.0)">n</text><text xml:space="preserve" font-family="Avenir-Medium" font-size="28.0" fill="#5B5753" transform="matrix(1.00, 0.00, -0.00, -1.00, 102.5, 8.0)">i</text><text xml:space="preserve" font-family="Avenir-Medium" font-size="28.0" fill="#5B5753" transform="matrix(1.00, 0.00, -0.00, -1.00, 109.8, 8.0)">c</text><text xml:space="preserve" font-family="Avenir-Medium" font-size="28.0" fill="#5B5753" transform="matrix(1.00, 0.00, -0.00, -1.00, 123.9, 8.0)">i</text><text xml:space="preserve" font-family="Avenir-Medium" font-size="28.0" fill="#5B5753" transform="matrix(1.00, 0.00, -0.00, -1.00, 131.2, 8.0)">รณ</text><text xml:space="preserve" font-family="Avenir-Medium" font-size="28.0" fill="#5B5753" transform="matrix(1.00, 0.00, -0.00, -1.00, 148.4, 8.0)">n</text><text xml:space="preserve" font-family="Avenir-Medium" font-size="28.0" fill="#5B5753" transform="matrix(1.00, 0.00, -0.00, -1.00, 164.5, 8.0)"> </text><text xml:space="preserve" font-family="Avenir-Medium" font-size="28.0" fill="#5B5753" transform="matrix(1.00, 0.00, -0.00, -1.00, 172.8, 8.0)">d</text><text xml:space="preserve" font-family="Avenir-Medium" font-size="28.0" fill="#5B5753" transform="matrix(1.00, 0.00, -0.00, -1.00, 190.5, 8.0)">e</text><text xml:space="preserve" font-family="Avenir-Medium" font-size="28.0" fill="#5B5753" transform="matrix(1.00, 0.00, -0.00, -1.00, 206.6, 8.0)"> </text><text xml:space="preserve" font-family="Avenir-Medium" font-size="28.0" fill="#5B5753" transform="matrix(1.00, 0.00, -0.00, -1.00, 215.0, 8.0)">o</text><text xml:space="preserve" font-family="Avenir-Medium" font-size="28.0" fill="#5B5753" transform="matrix(1.00, 0.00, -0.00, -1.00, 232.2, 8.0)">b</text><text xml:space="preserve" font-family="Avenir-Medium" font-size="28.0" fill="#5B5753" transform="matrix(1.00, 0.00, -0.00, -1.00, 249.8, 8.0)">j</text><text xml:space="preserve" font-family="Avenir-Medium" font-size="28.0" fill="#5B5753" transform="matrix(1.00, 0.00, -0.00, -1.00, 257.1, 8.0)">e</text><text xml:space="preserve" font-family="Avenir-Medium" font-size="28.0" fill="#5B5753" transform="matrix(1.00, 0.00, -0.00, -1.00, 273.2, 8.0)">t</text><text xml:space="preserve" font-family="Avenir-Medium" font-size="28.0" fill="#5B5753" transform="matrix(1.00, 0.00, -0.00, -1.00, 284.2, 8.0)">o</text><text xml:space="preserve" font-family="Avenir-Medium" font-size="28.0" fill="#5B5753" transform="matrix(1.00, 0.00, -0.00, -1.00, 301.3, 8.0)">s</text><text xml:space="preserve" font-family="Avenir-Medium" font-size="28.0" fill="#5B5753" transform="matrix(1.00, 0.00, -0.00, -1.00, 314.3, 8.0)"> </text><text xml:space="preserve" font-family="Avenir-Medium" font-size="28.0" fill="#5B5753" transform="matrix(1.00, 0.00, -0.00, -1.00, 322.7, 8.0)">y</text><text xml:space="preserve" font-family="Avenir-Medium" font-size="28.0" fill="#5B5753" transform="matrix(1.00, 0.00, -0.00, -1.00, 337.2, 8.0)"> </text><text xml:space="preserve" font-family="Avenir-Medium" font-size="28.0" fill="#5B5753" transform="matrix(1.00, 0.00, -0.00, -1.00, 345.6, 8.0)">a</text><text xml:space="preserve" font-family="Avenir-Medium" font-size="28.0" fill="#5B5753" transform="matrix(1.00, 0.00, -0.00, -1.00, 360.7, 8.0)">r</text><text xml:space="preserve" font-family="Avenir-Medium" font-size="28.0" fill="#5B5753" transform="matrix(1.00, 0.00, -0.00, -1.00, 371.6, 8.0)">r</text><text xml:space="preserve" font-family="Avenir-Medium" font-size="28.0" fill="#5B5753" transform="matrix(1.00, 0.00, -0.00, -1.00, 382.5, 8.0)">a</text><text xml:space="preserve" font-family="Avenir-Medium" font-size="28.0" fill="#5B5753" transform="matrix(1.00, 0.00, -0.00, -1.00, 397.6, 8.0)">y</text><text xml:space="preserve" font-family="Avenir-Medium" font-size="28.0" fill="#5B5753" transform="matrix(1.00, 0.00, -0.00, -1.00, 412.2, 8.0)"> </text><text xml:space="preserve" font-family="Avenir-Medium" font-size="28.0" fill="#5B5753" transform="matrix(1.00, 0.00, -0.00, -1.00, 420.5, 8.0)">d</text><text xml:space="preserve" font-family="Avenir-Medium" font-size="28.0" fill="#5B5753" transform="matrix(1.00, 0.00, -0.00, -1.00, 438.2, 8.0)">e</text><text xml:space="preserve" font-family="Avenir-Medium" font-size="28.0" fill="#5B5753" transform="matrix(1.00, 0.00, -0.00, -1.00, 454.3, 8.0)"> </text><text xml:space="preserve" font-family="Avenir-Medium" font-size="28.0" fill="#5B5753" transform="matrix(1.00, 0.00, -0.00, -1.00, 462.7, 8.0)">e</text><text xml:space="preserve" font-family="Avenir-Medium" font-size="28.0" fill="#5B5753" transform="matrix(1.00, 0.00, -0.00, -1.00, 478.8, 8.0)">l</text><text xml:space="preserve" font-family="Avenir-Medium" font-size="28.0" fill="#5B5753" transform="matrix(1.00, 0.00, -0.00, -1.00, 486.1, 8.0)">e</text><text xml:space="preserve" font-family="Avenir-Medium" font-size="28.0" fill="#5B5753" transform="matrix(1.00, 0.00, -0.00, -1.00, 502.2, 8.0)">m</text><text xml:space="preserve" font-family="Avenir-Medium" font-size="28.0" fill="#5B5753" transform="matrix(1.00, 0.00, -0.00, -1.00, 526.6, 8.0)">e</text><text xml:space="preserve" font-family="Avenir-Medium" font-size="28.0" fill="#5B5753" transform="matrix(1.00, 0.00, -0.00, -1.00, 542.7, 8.0)">n</text><text xml:space="preserve" font-family="Avenir-Medium" font-size="28.0" fill="#5B5753" transform="matrix(1.00, 0.00, -0.00, -1.00, 558.9, 8.0)">t</text><text xml:space="preserve" font-family="Avenir-Medium" font-size="28.0" fill="#5B5753" transform="matrix(1.00, 0.00, -0.00, -1.00, 569.8, 8.0)">o</text><text xml:space="preserve" font-family="Avenir-Medium" font-size="28.0" fill="#5B5753" transform="matrix(1.00, 0.00, -0.00, -1.00, 587.0, 8.0)">s</text></g></svg>