<?xml version="1.0" encoding="UTF-8" standalone="no"?><svg xmlns="http://www.w3.org/2000/svg" xmlns:xlink="http://www.w3.org/1999/xlink" clip-rule="evenodd" stroke-miterlimit="4.00" viewBox="0 0 1024 768"><desc>SVG generated by Keynote</desc><defs><pattern id="AAD6F261-3567-46D6-B8C3-BEAFFFDE0F2D" patternUnits="userSpaceOnUse" width="326" height="326" viewBox="0 0 326 326" patternTransform="matrix(0.570552, 0.000000, 0.000000, -0.570552, 649.426800, 516.216800)"><image xlink:href="../../7D75CC22-08E6-46FA-89F4-20BC499AD49E/assets/E4BB5A9ABE0308DAE349DEA7FB57AABB.jpeg" width="326.00" height="326.00"></image></pattern></defs><g transform="matrix(1.00, 0.00, -0.00, -1.00, 0.0, 768.0)"><g><clipPath id="clip-164"><path d="M 0.0 768.0 L 1024.0 768.0 L 1024.0 0.0 L 0.0 0.0 Z M 0.0 768.0 "></path></clipPath><g clip-path="url(#clip-164)"><image xlink:href="../../7D75CC22-08E6-46FA-89F4-20BC499AD49E/assets/D52BF74205EDDA1E3AD886EF31563845.jpeg" width="1024.00" height="768.00" transform="matrix(1.00, 0.00, -0.00, -1.00, 0.0, 768.0)"></image></g></g><text xml:space="preserve" font-family="Futura-Medium" font-size="39.6" fill="#5B5753" transform="matrix(1.00, 0.00, -0.00, -1.00, 187.0, 677.0)">D</text><text xml:space="preserve" font-family="Futura-Medium" font-size="39.6" fill="#5B5753" transform="matrix(1.00, 0.00, -0.00, -1.00, 216.5, 677.0)">R</text><text xml:space="preserve" font-family="Futura-Medium" font-size="39.6" fill="#5B5753" transform="matrix(1.00, 0.00, -0.00, -1.00, 241.2, 677.0)">F</text><text xml:space="preserve" font-family="Futura-Medium" font-size="39.6" fill="#5B5753" transform="matrix(1.00, 0.00, -0.00, -1.00, 263.3, 677.0)">-</text><text xml:space="preserve" font-family="Futura-Medium" font-size="39.6" fill="#5B5753" transform="matrix(1.00, 0.00, -0.00, -1.00, 272.7, 677.0)">S</text><text xml:space="preserve" font-family="Futura-Medium" font-size="39.6" fill="#5B5753" transform="matrix(1.00, 0.00, -0.00, -1.00, 296.5, 677.0)">W</text><text xml:space="preserve" font-family="Futura-Medium" font-size="39.6" fill="#5B5753" transform="matrix(1.00, 0.00, -0.00, -1.00, 336.7, 677.0)">A</text><text xml:space="preserve" font-family="Futura-Medium" font-size="39.6" fill="#5B5753" transform="matrix(1.00, 0.00, -0.00, -1.00, 365.4, 677.0)">G</text><text xml:space="preserve" font-family="Futura-Medium" font-size="39.6" fill="#5B5753" transform="matrix(1.00, 0.00, -0.00, -1.00, 399.6, 677.0)">G</text><text xml:space="preserve" font-family="Futura-Medium" font-size="39.6" fill="#5B5753" transform="matrix(1.00, 0.00, -0.00, -1.00, 433.7, 677.0)">E</text><text xml:space="preserve" font-family="Futura-Medium" font-size="39.6" fill="#5B5753" transform="matrix(1.00, 0.00, -0.00, -1.00, 456.9, 677.0)">R</text><text xml:space="preserve" font-family="Futura-Medium" font-size="39.6" fill="#5B5753" transform="matrix(1.00, 0.00, -0.00, -1.00, 482.1, 677.0)">-</text><text xml:space="preserve" font-family="Futura-Medium" font-size="39.6" fill="#5B5753" transform="matrix(1.00, 0.00, -0.00, -1.00, 491.5, 677.0)">C</text><text xml:space="preserve" font-family="Futura-Medium" font-size="39.6" fill="#5B5753" transform="matrix(1.00, 0.00, -0.00, -1.00, 520.1, 677.0)">U</text><text xml:space="preserve" font-family="Futura-Medium" font-size="39.6" fill="#5B5753" transform="matrix(1.00, 0.00, -0.00, -1.00, 550.1, 677.0)">S</text><text xml:space="preserve" font-family="Futura-Medium" font-size="39.6" fill="#5B5753" transform="matrix(1.00, 0.00, -0.00, -1.00, 574.6, 677.0)">T</text><text xml:space="preserve" font-family="Futura-Medium" font-size="39.6" fill="#5B5753" transform="matrix(1.00, 0.00, -0.00, -1.00, 593.5, 677.0)">O</text><text xml:space="preserve" font-family="Futura-Medium" font-size="39.6" fill="#5B5753" transform="matrix(1.00, 0.00, -0.00, -1.00, 629.7, 677.0)">M</text><text xml:space="preserve" font-family="Futura-Medium" font-size="39.6" fill="#5B5753" transform="matrix(1.00, 0.00, -0.00, -1.00, 668.5, 677.0)">I</text><text xml:space="preserve" font-family="Futura-Medium" font-size="39.6" fill="#5B5753" transform="matrix(1.00, 0.00, -0.00, -1.00, 681.0, 677.0)">Z</text><text xml:space="preserve" font-family="Futura-Medium" font-size="39.6" fill="#5B5753" transform="matrix(1.00, 0.00, -0.00, -1.00, 706.6, 677.0)">A</text><text xml:space="preserve" font-family="Futura-Medium" font-size="39.6" fill="#5B5753" transform="matrix(1.00, 0.00, -0.00, -1.00, 735.0, 677.0)">T</text><text xml:space="preserve" font-family="Futura-Medium" font-size="39.6" fill="#5B5753" transform="matrix(1.00, 0.00, -0.00, -1.00, 754.9, 677.0)">I</text><text xml:space="preserve" font-family="Futura-Medium" font-size="39.6" fill="#5B5753" transform="matrix(1.00, 0.00, -0.00, -1.00, 767.4, 677.0)">O</text><text xml:space="preserve" font-family="Futura-Medium" font-size="39.6" fill="#5B5753" transform="matrix(1.00, 0.00, -0.00, -1.00, 803.5, 677.0)">N</text><text xml:space="preserve" font-family="Avenir-Medium" font-size="28.0" fill="#5B5753" transform="matrix(1.00, 0.00, -0.00, -1.00, 200.0, 634.0)">2</text><text xml:space="preserve" font-family="Avenir-Medium" font-size="28.0" fill="#5B5753" transform="matrix(1.00, 0.00, -0.00, -1.00, 216.1, 634.0)">.</text><text xml:space="preserve" font-family="Avenir-Medium" font-size="28.0" fill="#5B5753" transform="matrix(1.00, 0.00, -0.00, -1.00, 224.5, 634.0)"> </text><text xml:space="preserve" font-family="Avenir-Medium" font-size="28.0" fill="#5B5753" transform="matrix(1.00, 0.00, -0.00, -1.00, 232.8, 634.0)">A</text><text xml:space="preserve" font-family="Avenir-Medium" font-size="28.0" fill="#5B5753" transform="matrix(1.00, 0.00, -0.00, -1.00, 253.1, 634.0)">m</text><text xml:space="preserve" font-family="Avenir-Medium" font-size="28.0" fill="#5B5753" transform="matrix(1.00, 0.00, -0.00, -1.00, 277.5, 634.0)">p</text><text xml:space="preserve" font-family="Avenir-Medium" font-size="28.0" fill="#5B5753" transform="matrix(1.00, 0.00, -0.00, -1.00, 295.2, 634.0)">l</text><text xml:space="preserve" font-family="Avenir-Medium" font-size="28.0" fill="#5B5753" transform="matrix(1.00, 0.00, -0.00, -1.00, 302.5, 634.0)">i</text><text xml:space="preserve" font-family="Avenir-Medium" font-size="28.0" fill="#5B5753" transform="matrix(1.00, 0.00, -0.00, -1.00, 309.7, 634.0)">a</text><text xml:space="preserve" font-family="Avenir-Medium" font-size="28.0" fill="#5B5753" transform="matrix(1.00, 0.00, -0.00, -1.00, 324.8, 634.0)">r</text><text xml:space="preserve" font-family="Avenir-Medium" font-size="28.0" fill="#5B5753" transform="matrix(1.00, 0.00, -0.00, -1.00, 335.7, 634.0)"> </text><text xml:space="preserve" font-family="Avenir-Medium" font-size="28.0" fill="#5B5753" transform="matrix(1.00, 0.00, -0.00, -1.00, 344.1, 634.0)">i</text><text xml:space="preserve" font-family="Avenir-Medium" font-size="28.0" fill="#5B5753" transform="matrix(1.00, 0.00, -0.00, -1.00, 351.4, 634.0)">n</text><text xml:space="preserve" font-family="Avenir-Medium" font-size="28.0" fill="#5B5753" transform="matrix(1.00, 0.00, -0.00, -1.00, 367.5, 634.0)">f</text><text xml:space="preserve" font-family="Avenir-Medium" font-size="28.0" fill="#5B5753" transform="matrix(1.00, 0.00, -0.00, -1.00, 377.4, 634.0)">o</text><text xml:space="preserve" font-family="Avenir-Medium" font-size="28.0" fill="#5B5753" transform="matrix(1.00, 0.00, -0.00, -1.00, 394.6, 634.0)">r</text><text xml:space="preserve" font-family="Avenir-Medium" font-size="28.0" fill="#5B5753" transform="matrix(1.00, 0.00, -0.00, -1.00, 405.5, 634.0)">m</text><text xml:space="preserve" font-family="Avenir-Medium" font-size="28.0" fill="#5B5753" transform="matrix(1.00, 0.00, -0.00, -1.00, 429.9, 634.0)">a</text><text xml:space="preserve" font-family="Avenir-Medium" font-size="28.0" fill="#5B5753" transform="matrix(1.00, 0.00, -0.00, -1.00, 445.0, 634.0)">c</text><text xml:space="preserve" font-family="Avenir-Medium" font-size="28.0" fill="#5B5753" transform="matrix(1.00, 0.00, -0.00, -1.00, 459.1, 634.0)">i</text><text xml:space="preserve" font-family="Avenir-Medium" font-size="28.0" fill="#5B5753" transform="matrix(1.00, 0.00, -0.00, -1.00, 466.3, 634.0)">รณ</text><text xml:space="preserve" font-family="Avenir-Medium" font-size="28.0" fill="#5B5753" transform="matrix(1.00, 0.00, -0.00, -1.00, 483.5, 634.0)">n</text><text xml:space="preserve" font-family="Avenir-Medium" font-size="28.0" fill="#5B5753" transform="matrix(1.00, 0.00, -0.00, -1.00, 499.7, 634.0)"> </text><text xml:space="preserve" font-family="Avenir-Medium" font-size="28.0" fill="#5B5753" transform="matrix(1.00, 0.00, -0.00, -1.00, 508.0, 634.0)">d</text><text xml:space="preserve" font-family="Avenir-Medium" font-size="28.0" fill="#5B5753" transform="matrix(1.00, 0.00, -0.00, -1.00, 525.7, 634.0)">e</text><text xml:space="preserve" font-family="Avenir-Medium" font-size="28.0" fill="#5B5753" transform="matrix(1.00, 0.00, -0.00, -1.00, 541.8, 634.0)"> </text><text xml:space="preserve" font-family="Avenir-Medium" font-size="28.0" fill="#5B5753" transform="matrix(1.00, 0.00, -0.00, -1.00, 550.1, 634.0)">c</text><text xml:space="preserve" font-family="Avenir-Medium" font-size="28.0" fill="#5B5753" transform="matrix(1.00, 0.00, -0.00, -1.00, 564.2, 634.0)">a</text><text xml:space="preserve" font-family="Avenir-Medium" font-size="28.0" fill="#5B5753" transform="matrix(1.00, 0.00, -0.00, -1.00, 579.3, 634.0)">m</text><text xml:space="preserve" font-family="Avenir-Medium" font-size="28.0" fill="#5B5753" transform="matrix(1.00, 0.00, -0.00, -1.00, 603.7, 634.0)">p</text><text xml:space="preserve" font-family="Avenir-Medium" font-size="28.0" fill="#5B5753" transform="matrix(1.00, 0.00, -0.00, -1.00, 621.4, 634.0)">o</text><text xml:space="preserve" font-family="Avenir-Medium" font-size="28.0" fill="#5B5753" transform="matrix(1.00, 0.00, -0.00, -1.00, 638.6, 634.0)">s</text><text xml:space="preserve" font-family="Avenir-Medium" font-size="28.0" fill="#5B5753" transform="matrix(1.00, 0.00, -0.00, -1.00, 651.6, 634.0)"> </text><text xml:space="preserve" font-family="Avenir-Medium" font-size="28.0" fill="#5B5753" transform="matrix(1.00, 0.00, -0.00, -1.00, 659.9, 634.0)">y</text><text xml:space="preserve" font-family="Avenir-Medium" font-size="28.0" fill="#5B5753" transform="matrix(1.00, 0.00, -0.00, -1.00, 674.5, 634.0)"> </text><text xml:space="preserve" font-family="Avenir-Medium" font-size="28.0" fill="#5B5753" transform="matrix(1.00, 0.00, -0.00, -1.00, 682.8, 634.0)">e</text><text xml:space="preserve" font-family="Avenir-Medium" font-size="28.0" fill="#5B5753" transform="matrix(1.00, 0.00, -0.00, -1.00, 698.9, 634.0)">n</text><text xml:space="preserve" font-family="Avenir-Medium" font-size="28.0" fill="#5B5753" transform="matrix(1.00, 0.00, -0.00, -1.00, 715.1, 634.0)">d</text><text xml:space="preserve" font-family="Avenir-Medium" font-size="28.0" fill="#5B5753" transform="matrix(1.00, 0.00, -0.00, -1.00, 732.7, 634.0)">p</text><text xml:space="preserve" font-family="Avenir-Medium" font-size="28.0" fill="#5B5753" transform="matrix(1.00, 0.00, -0.00, -1.00, 750.4, 634.0)">o</text><text xml:space="preserve" font-family="Avenir-Medium" font-size="28.0" fill="#5B5753" transform="matrix(1.00, 0.00, -0.00, -1.00, 767.6, 634.0)">i</text><text xml:space="preserve" font-family="Avenir-Medium" font-size="28.0" fill="#5B5753" transform="matrix(1.00, 0.00, -0.00, -1.00, 774.9, 634.0)">n</text><text xml:space="preserve" font-family="Avenir-Medium" font-size="28.0" fill="#5B5753" transform="matrix(1.00, 0.00, -0.00, -1.00, 791.0, 634.0)">t</text><text xml:space="preserve" font-family="Avenir-Medium" font-size="28.0" fill="#5B5753" transform="matrix(1.00, 0.00, -0.00, -1.00, 801.9, 634.0)">s</text><g><clipPath id="clip-165"><path d="M 649.4 516.2 L 860.2 516.2 L 860.2 432.2 L 649.4 432.2 Z M 649.4 516.2 "></path></clipPath><g clip-path="url(#clip-165)"><path d="M 649.4 432.2 L 860.2 432.2 L 860.2 516.2 L 649.4 516.2 Z M 649.4 432.2 " fill="url(#AAD6F261-3567-46D6-B8C3-BEAFFFDE0F2D)"></path><path d="M 649.4 516.2 L 860.2 516.2 L 860.2 432.2 L 649.4 432.2 Z M 649.4 516.2 " fill="#3B6682" fill-opacity="0.63"></path></g></g><g><clipPath id="clip-166"><path d="M 648.8 431.6 L 860.9 431.6 L 860.9 516.9 L 648.8 516.9 Z M 648.8 431.6 "></path></clipPath><g clip-path="url(#clip-166)"><path d="M 653.4 512.2 L 759.4 512.2 L 759.4 493.2 L 653.4 493.2 Z M 653.4 512.2 " fill="#000000" fill-opacity="0.00"></path><path d="M 653.4 493.2 L 855.7 493.2 L 855.7 474.2 L 653.4 474.2 Z M 653.4 493.2 " fill="#000000" fill-opacity="0.00"></path><path d="M 653.4 474.2 L 836.5 474.2 L 836.5 455.2 L 653.4 455.2 Z M 653.4 474.2 " fill="#000000" fill-opacity="0.00"></path><path d="M 653.4 455.2 L 663.1 455.2 L 663.1 436.2 L 653.4 436.2 Z M 653.4 455.2 " fill="#000000" fill-opacity="0.00"></path><text xml:space="preserve" font-family="Menlo-Regular" font-size="16.0" fill="#9776AA" transform="matrix(1.00, 0.00, -0.00, -1.00, 653.0, 497.0)">"</text><text xml:space="preserve" font-family="Menlo-Regular" font-size="16.0" fill="#9776AA" transform="matrix(1.00, 0.00, -0.00, -1.00, 662.6, 497.0)">g</text><text xml:space="preserve" font-family="Menlo-Regular" font-size="16.0" fill="#9776AA" transform="matrix(1.00, 0.00, -0.00, -1.00, 672.3, 497.0)">e</text><text xml:space="preserve" font-family="Menlo-Regular" font-size="16.0" fill="#9776AA" transform="matrix(1.00, 0.00, -0.00, -1.00, 681.9, 497.0)">n</text><text xml:space="preserve" font-family="Menlo-Regular" font-size="16.0" fill="#9776AA" transform="matrix(1.00, 0.00, -0.00, -1.00, 691.5, 497.0)">r</text><text xml:space="preserve" font-family="Menlo-Regular" font-size="16.0" fill="#9776AA" transform="matrix(1.00, 0.00, -0.00, -1.00, 701.2, 497.0)">e</text><text xml:space="preserve" font-family="Menlo-Regular" font-size="16.0" fill="#9776AA" transform="matrix(1.00, 0.00, -0.00, -1.00, 710.8, 497.0)">"</text><text xml:space="preserve" font-family="Menlo-Regular" font-size="16.0" fill="#CC7831" transform="matrix(1.00, 0.00, -0.00, -1.00, 720.4, 497.0)">:</text><text xml:space="preserve" font-family="Menlo-Regular" font-size="16.0" fill="#CC7831" transform="matrix(1.00, 0.00, -0.00, -1.00, 730.1, 497.0)"> </text><text xml:space="preserve" font-family="Menlo-Regular" font-size="16.0" fill="#A9B6C6" transform="matrix(1.00, 0.00, -0.00, -1.00, 739.7, 497.0)">{</text><text xml:space="preserve" font-family="Menlo-Regular" font-size="16.0" fill="#A9B6C6" transform="matrix(1.00, 0.00, -0.00, -1.00, 749.3, 497.0)"> </text><text xml:space="preserve" font-family="Menlo-Regular" font-size="16.0" fill="#A9B6C6" transform="matrix(1.00, 0.00, -0.00, -1.00, 653.0, 478.0)"> </text><text xml:space="preserve" font-family="Menlo-Regular" font-size="16.0" fill="#A9B6C6" transform="matrix(1.00, 0.00, -0.00, -1.00, 662.6, 478.0)"> </text><text xml:space="preserve" font-family="Menlo-Regular" font-size="16.0" fill="#9776AA" transform="matrix(1.00, 0.00, -0.00, -1.00, 672.3, 478.0)">"</text><text xml:space="preserve" font-family="Menlo-Regular" font-size="16.0" fill="#9776AA" transform="matrix(1.00, 0.00, -0.00, -1.00, 681.9, 478.0)">d</text><text xml:space="preserve" font-family="Menlo-Regular" font-size="16.0" fill="#9776AA" transform="matrix(1.00, 0.00, -0.00, -1.00, 691.5, 478.0)">e</text><text xml:space="preserve" font-family="Menlo-Regular" font-size="16.0" fill="#9776AA" transform="matrix(1.00, 0.00, -0.00, -1.00, 701.2, 478.0)">s</text><text xml:space="preserve" font-family="Menlo-Regular" font-size="16.0" fill="#9776AA" transform="matrix(1.00, 0.00, -0.00, -1.00, 710.8, 478.0)">c</text><text xml:space="preserve" font-family="Menlo-Regular" font-size="16.0" fill="#9776AA" transform="matrix(1.00, 0.00, -0.00, -1.00, 720.4, 478.0)">r</text><text xml:space="preserve" font-family="Menlo-Regular" font-size="16.0" fill="#9776AA" transform="matrix(1.00, 0.00, -0.00, -1.00, 730.1, 478.0)">i</text><text xml:space="preserve" font-family="Menlo-Regular" font-size="16.0" fill="#9776AA" transform="matrix(1.00, 0.00, -0.00, -1.00, 739.7, 478.0)">p</text><text xml:space="preserve" font-family="Menlo-Regular" font-size="16.0" fill="#9776AA" transform="matrix(1.00, 0.00, -0.00, -1.00, 749.3, 478.0)">t</text><text xml:space="preserve" font-family="Menlo-Regular" font-size="16.0" fill="#9776AA" transform="matrix(1.00, 0.00, -0.00, -1.00, 759.0, 478.0)">i</text><text xml:space="preserve" font-family="Menlo-Regular" font-size="16.0" fill="#9776AA" transform="matrix(1.00, 0.00, -0.00, -1.00, 768.6, 478.0)">o</text><text xml:space="preserve" font-family="Menlo-Regular" font-size="16.0" fill="#9776AA" transform="matrix(1.00, 0.00, -0.00, -1.00, 778.2, 478.0)">n</text><text xml:space="preserve" font-family="Menlo-Regular" font-size="16.0" fill="#9776AA" transform="matrix(1.00, 0.00, -0.00, -1.00, 787.9, 478.0)">"</text><text xml:space="preserve" font-family="Menlo-Regular" font-size="16.0" fill="#CC7831" transform="matrix(1.00, 0.00, -0.00, -1.00, 797.5, 478.0)">:</text><text xml:space="preserve" font-family="Menlo-Regular" font-size="16.0" fill="#CC7831" transform="matrix(1.00, 0.00, -0.00, -1.00, 807.1, 478.0)"> </text><text xml:space="preserve" font-family="Menlo-Regular" font-size="16.0" fill="#6A8758" transform="matrix(1.00, 0.00, -0.00, -1.00, 816.8, 478.0)">"</text><text xml:space="preserve" font-family="Menlo-Regular" font-size="16.0" fill="#6A8758" transform="matrix(1.00, 0.00, -0.00, -1.00, 826.4, 478.0)">"</text><text xml:space="preserve" font-family="Menlo-Regular" font-size="16.0" fill="#CC7831" transform="matrix(1.00, 0.00, -0.00, -1.00, 836.0, 478.0)">,</text><text xml:space="preserve" font-family="Menlo-Regular" font-size="16.0" fill="#CC7831" transform="matrix(1.00, 0.00, -0.00, -1.00, 845.7, 478.0)"> </text><text xml:space="preserve" font-family="Menlo-Regular" font-size="16.0" fill="#CC7831" transform="matrix(1.00, 0.00, -0.00, -1.00, 653.0, 459.0)"> </text><text xml:space="preserve" font-family="Menlo-Regular" font-size="16.0" fill="#CC7831" transform="matrix(1.00, 0.00, -0.00, -1.00, 662.6, 459.0)"> </text><text xml:space="preserve" font-family="Menlo-Regular" font-size="16.0" fill="#9776AA" transform="matrix(1.00, 0.00, -0.00, -1.00, 672.3, 459.0)">"</text><text xml:space="preserve" font-family="Menlo-Regular" font-size="16.0" fill="#9776AA" transform="matrix(1.00, 0.00, -0.00, -1.00, 681.9, 459.0)">t</text><text xml:space="preserve" font-family="Menlo-Regular" font-size="16.0" fill="#9776AA" transform="matrix(1.00, 0.00, -0.00, -1.00, 691.5, 459.0)">y</text><text xml:space="preserve" font-family="Menlo-Regular" font-size="16.0" fill="#9776AA" transform="matrix(1.00, 0.00, -0.00, -1.00, 701.2, 459.0)">p</text><text xml:space="preserve" font-family="Menlo-Regular" font-size="16.0" fill="#9776AA" transform="matrix(1.00, 0.00, -0.00, -1.00, 710.8, 459.0)">e</text><text xml:space="preserve" font-family="Menlo-Regular" font-size="16.0" fill="#9776AA" transform="matrix(1.00, 0.00, -0.00, -1.00, 720.4, 459.0)">"</text><text xml:space="preserve" font-family="Menlo-Regular" font-size="16.0" fill="#CC7831" transform="matrix(1.00, 0.00, -0.00, -1.00, 730.1, 459.0)">:</text><text xml:space="preserve" font-family="Menlo-Regular" font-size="16.0" fill="#CC7831" transform="matrix(1.00, 0.00, -0.00, -1.00, 739.7, 459.0)"> </text><text xml:space="preserve" font-family="Menlo-Regular" font-size="16.0" fill="#6A8758" transform="matrix(1.00, 0.00, -0.00, -1.00, 749.3, 459.0)">"</text><text xml:space="preserve" font-family="Menlo-Regular" font-size="16.0" fill="#6A8758" transform="matrix(1.00, 0.00, -0.00, -1.00, 759.0, 459.0)">s</text><text xml:space="preserve" font-family="Menlo-Regular" font-size="16.0" fill="#6A8758" transform="matrix(1.00, 0.00, -0.00, -1.00, 768.6, 459.0)">t</text><text xml:space="preserve" font-family="Menlo-Regular" font-size="16.0" fill="#6A8758" transform="matrix(1.00, 0.00, -0.00, -1.00, 778.2, 459.0)">r</text><text xml:space="preserve" font-family="Menlo-Regular" font-size="16.0" fill="#6A8758" transform="matrix(1.00, 0.00, -0.00, -1.00, 787.9, 459.0)">i</text><text xml:space="preserve" font-family="Menlo-Regular" font-size="16.0" fill="#6A8758" transform="matrix(1.00, 0.00, -0.00, -1.00, 797.5, 459.0)">n</text><text xml:space="preserve" font-family="Menlo-Regular" font-size="16.0" fill="#6A8758" transform="matrix(1.00, 0.00, -0.00, -1.00, 807.1, 459.0)">g</text><text xml:space="preserve" font-family="Menlo-Regular" font-size="16.0" fill="#6A8758" transform="matrix(1.00, 0.00, -0.00, -1.00, 816.8, 459.0)">"</text><text xml:space="preserve" font-family="Menlo-Regular" font-size="16.0" fill="#6A8758" transform="matrix(1.00, 0.00, -0.00, -1.00, 826.4, 459.0)"> </text><text xml:space="preserve" font-family="Menlo-Regular" font-size="16.0" fill="#A9B6C6" transform="matrix(1.00, 0.00, -0.00, -1.00, 653.0, 440.0)">}</text></g></g><image xlink:href="0FE5245B33B3FD92786AB7337BA12DB5.png" width="148.00" height="295.00" transform="matrix(0.99, 0.00, -0.00, -1.00, 626.9, 489.2)"></image><image xlink:href="AFDD61EFE2909E7E5233115BAB8B48D6.png" width="67.00" height="135.00" transform="matrix(1.00, 0.00, -0.00, -0.99, 667.0, 410.0)"></image><image xlink:href="5793AE4A0A5721147ABFE933F601D6E7.png" width="215.00" height="295.00" transform="matrix(1.00, 0.00, -0.00, -1.00, 700.2, 489.2)"></image><image xlink:href="04068C532761877013D9419EBFD26D77.png" width="135.00" height="135.00" transform="matrix(0.99, 0.00, -0.00, -0.99, 740.0, 410.0)"></image><text xml:space="preserve" font-family="Avenir-Medium" font-size="24.0" fill="#5B5753" transform="matrix(1.00, 0.00, -0.00, -1.00, 692.0, 225.0)">H</text><text xml:space="preserve" font-family="Avenir-Medium" font-size="24.0" fill="#5B5753" transform="matrix(1.00, 0.00, -0.00, -1.00, 796.0, 225.0)">M</text><text xml:space="preserve" font-family="Avenir-HeavyOblique" font-style="italic" font-weight="bold" font-size="24.0" fill="#5B5753" transform="matrix(1.00, 0.00, -0.00, -1.00, 711.0, 174.0)">C</text><text xml:space="preserve" font-family="Avenir-HeavyOblique" font-style="italic" font-weight="bold" font-size="24.0" fill="#5B5753" transform="matrix(1.00, 0.00, -0.00, -1.00, 727.4, 174.0)">h</text><text xml:space="preserve" font-family="Avenir-HeavyOblique" font-style="italic" font-weight="bold" font-size="24.0" fill="#5B5753" transform="matrix(1.00, 0.00, -0.00, -1.00, 741.2, 174.0)">o</text><text xml:space="preserve" font-family="Avenir-HeavyOblique" font-style="italic" font-weight="bold" font-size="24.0" fill="#5B5753" transform="matrix(1.00, 0.00, -0.00, -1.00, 755.9, 174.0)">i</text><text xml:space="preserve" font-family="Avenir-HeavyOblique" font-style="italic" font-weight="bold" font-size="24.0" fill="#5B5753" transform="matrix(1.00, 0.00, -0.00, -1.00, 762.1, 174.0)">c</text><text xml:space="preserve" font-family="Avenir-HeavyOblique" font-style="italic" font-weight="bold" font-size="24.0" fill="#5B5753" transform="matrix(1.00, 0.00, -0.00, -1.00, 773.7, 174.0)">e</text><text xml:space="preserve" font-family="Avenir-HeavyOblique" font-style="italic" font-weight="bold" font-size="24.0" fill="#5B5753" transform="matrix(1.00, 0.00, -0.00, -1.00, 787.4, 174.0)">s</text><image xlink:href="1B518C6C475C1C291D93DA8B3B83D9EF.png" width="405.00" height="705.00" transform="matrix(1.00, 0.00, -0.00, -1.00, 132.5, 694.4)"></image><image xlink:href="F529C1FA0B6465CE026F90071BF363B1.png" width="325.00" height="391.00" transform="matrix(1.00, 0.00, -0.00, -1.00, 172.0, 538.0)"></image></g></svg>