<?xml version="1.0" encoding="UTF-8" standalone="no"?><svg xmlns="http://www.w3.org/2000/svg" xmlns:xlink="http://www.w3.org/1999/xlink" clip-rule="evenodd" stroke-miterlimit="4.00" viewBox="0 0 1024 768"><desc>SVG generated by Keynote</desc><defs><pattern id="96B7AA94-040D-4000-99CD-2034605E7A80" patternUnits="userSpaceOnUse" width="372" height="372" viewBox="0 0 372 372" patternTransform="matrix(0.500000, 0.000000, 0.000000, -0.500000, 374.979400, 496.167500)"><image xlink:href="../../FF9690B6-5A7E-40CA-83F2-A575895A3D92/assets/A613CBD157D3E31D5C35BA5BED8B98F2.jpeg" width="372.00" height="372.00"></image></pattern><pattern id="AF08E07D-8190-417B-87C7-24281D28AC78" patternUnits="userSpaceOnUse" width="372" height="372" viewBox="0 0 372 372" patternTransform="matrix(0.500000, 0.000000, 0.000000, -0.500000, 374.979400, 430.376100)"><image xlink:href="../../FF9690B6-5A7E-40CA-83F2-A575895A3D92/assets/A613CBD157D3E31D5C35BA5BED8B98F2.jpeg" width="372.00" height="372.00"></image></pattern><pattern id="8B3F2554-5641-4EE6-9115-82C7EE439669" patternUnits="userSpaceOnUse" width="372" height="372" viewBox="0 0 372 372" patternTransform="matrix(0.500000, 0.000000, 0.000000, -0.500000, 374.979400, 365.366000)"><image xlink:href="../../FF9690B6-5A7E-40CA-83F2-A575895A3D92/assets/A613CBD157D3E31D5C35BA5BED8B98F2.jpeg" width="372.00" height="372.00"></image></pattern><pattern id="B8E0FD0A-BF05-42D9-BD29-171F68212DE0" patternUnits="userSpaceOnUse" width="372" height="372" viewBox="0 0 372 372" patternTransform="matrix(0.500000, 0.000000, 0.000000, -0.500000, 375.949900, 300.355900)"><image xlink:href="../../FF9690B6-5A7E-40CA-83F2-A575895A3D92/assets/A613CBD157D3E31D5C35BA5BED8B98F2.jpeg" width="372.00" height="372.00"></image></pattern></defs><g transform="matrix(1.00, 0.00, -0.00, -1.00, 0.0, 768.0)"><g><clipPath id="clip-269"><path d="M 0.0 768.0 L 1024.0 768.0 L 1024.0 0.0 L 0.0 0.0 Z M 0.0 768.0 "></path></clipPath><g clip-path="url(#clip-269)"><image xlink:href="../../7D75CC22-08E6-46FA-89F4-20BC499AD49E/assets/D52BF74205EDDA1E3AD886EF31563845.jpeg" width="1024.00" height="768.00" transform="matrix(1.00, 0.00, -0.00, -1.00, 0.0, 768.0)"></image></g></g><text xml:space="preserve" font-family="Futura-Medium" font-size="39.6" fill="#5B5753" transform="matrix(1.00, 0.00, -0.00, -1.00, 187.0, 677.0)">D</text><text xml:space="preserve" font-family="Futura-Medium" font-size="39.6" fill="#5B5753" transform="matrix(1.00, 0.00, -0.00, -1.00, 216.5, 677.0)">R</text><text xml:space="preserve" font-family="Futura-Medium" font-size="39.6" fill="#5B5753" transform="matrix(1.00, 0.00, -0.00, -1.00, 241.2, 677.0)">F</text><text xml:space="preserve" font-family="Futura-Medium" font-size="39.6" fill="#5B5753" transform="matrix(1.00, 0.00, -0.00, -1.00, 263.3, 677.0)">-</text><text xml:space="preserve" font-family="Futura-Medium" font-size="39.6" fill="#5B5753" transform="matrix(1.00, 0.00, -0.00, -1.00, 272.7, 677.0)">S</text><text xml:space="preserve" font-family="Futura-Medium" font-size="39.6" fill="#5B5753" transform="matrix(1.00, 0.00, -0.00, -1.00, 296.5, 677.0)">W</text><text xml:space="preserve" font-family="Futura-Medium" font-size="39.6" fill="#5B5753" transform="matrix(1.00, 0.00, -0.00, -1.00, 336.7, 677.0)">A</text><text xml:space="preserve" font-family="Futura-Medium" font-size="39.6" fill="#5B5753" transform="matrix(1.00, 0.00, -0.00, -1.00, 365.4, 677.0)">G</text><text xml:space="preserve" font-family="Futura-Medium" font-size="39.6" fill="#5B5753" transform="matrix(1.00, 0.00, -0.00, -1.00, 399.6, 677.0)">G</text><text xml:space="preserve" font-family="Futura-Medium" font-size="39.6" fill="#5B5753" transform="matrix(1.00, 0.00, -0.00, -1.00, 433.7, 677.0)">E</text><text xml:space="preserve" font-family="Futura-Medium" font-size="39.6" fill="#5B5753" transform="matrix(1.00, 0.00, -0.00, -1.00, 456.9, 677.0)">R</text><text xml:space="preserve" font-family="Futura-Medium" font-size="39.6" fill="#5B5753" transform="matrix(1.00, 0.00, -0.00, -1.00, 482.1, 677.0)">-</text><text xml:space="preserve" font-family="Futura-Medium" font-size="39.6" fill="#5B5753" transform="matrix(1.00, 0.00, -0.00, -1.00, 491.5, 677.0)">C</text><text xml:space="preserve" font-family="Futura-Medium" font-size="39.6" fill="#5B5753" transform="matrix(1.00, 0.00, -0.00, -1.00, 520.1, 677.0)">U</text><text xml:space="preserve" font-family="Futura-Medium" font-size="39.6" fill="#5B5753" transform="matrix(1.00, 0.00, -0.00, -1.00, 550.1, 677.0)">S</text><text xml:space="preserve" font-family="Futura-Medium" font-size="39.6" fill="#5B5753" transform="matrix(1.00, 0.00, -0.00, -1.00, 574.6, 677.0)">T</text><text xml:space="preserve" font-family="Futura-Medium" font-size="39.6" fill="#5B5753" transform="matrix(1.00, 0.00, -0.00, -1.00, 593.5, 677.0)">O</text><text xml:space="preserve" font-family="Futura-Medium" font-size="39.6" fill="#5B5753" transform="matrix(1.00, 0.00, -0.00, -1.00, 629.7, 677.0)">M</text><text xml:space="preserve" font-family="Futura-Medium" font-size="39.6" fill="#5B5753" transform="matrix(1.00, 0.00, -0.00, -1.00, 668.5, 677.0)">I</text><text xml:space="preserve" font-family="Futura-Medium" font-size="39.6" fill="#5B5753" transform="matrix(1.00, 0.00, -0.00, -1.00, 681.0, 677.0)">Z</text><text xml:space="preserve" font-family="Futura-Medium" font-size="39.6" fill="#5B5753" transform="matrix(1.00, 0.00, -0.00, -1.00, 706.6, 677.0)">A</text><text xml:space="preserve" font-family="Futura-Medium" font-size="39.6" fill="#5B5753" transform="matrix(1.00, 0.00, -0.00, -1.00, 735.0, 677.0)">T</text><text xml:space="preserve" font-family="Futura-Medium" font-size="39.6" fill="#5B5753" transform="matrix(1.00, 0.00, -0.00, -1.00, 754.9, 677.0)">I</text><text xml:space="preserve" font-family="Futura-Medium" font-size="39.6" fill="#5B5753" transform="matrix(1.00, 0.00, -0.00, -1.00, 767.4, 677.0)">O</text><text xml:space="preserve" font-family="Futura-Medium" font-size="39.6" fill="#5B5753" transform="matrix(1.00, 0.00, -0.00, -1.00, 803.5, 677.0)">N</text><g><clipPath id="clip-270"><path d="M 375.0 496.2 L 648.1 496.2 L 648.1 467.6 L 375.0 467.6 Z M 375.0 496.2 "></path></clipPath><g clip-path="url(#clip-270)"><path d="M 375.0 467.6 L 648.1 467.6 L 648.1 496.2 L 375.0 496.2 Z M 375.0 467.6 " fill="url(#96B7AA94-040D-4000-99CD-2034605E7A80)"></path><path d="M 375.0 496.2 L 648.1 496.2 L 648.1 467.6 L 375.0 467.6 Z M 375.0 496.2 " fill="#F14C3D" fill-opacity="0.46"></path></g></g><g><clipPath id="clip-271"><path d="M 373.8 466.0 L 649.2 466.0 L 649.2 497.4 L 373.8 497.4 Z M 373.8 466.0 "></path></clipPath><g clip-path="url(#clip-271)"><text xml:space="preserve" font-family="Futura-Medium" font-size="16.0" fill="#FEFFFF" transform="matrix(1.00, 0.00, -0.00, -1.00, 482.0, 476.0)">C</text><text xml:space="preserve" font-family="Futura-Medium" font-size="16.0" fill="#FEFFFF" transform="matrix(1.00, 0.00, -0.00, -1.00, 493.5, 476.0)">R</text><text xml:space="preserve" font-family="Futura-Medium" font-size="16.0" fill="#FEFFFF" transform="matrix(1.00, 0.00, -0.00, -1.00, 503.5, 476.0)">E</text><text xml:space="preserve" font-family="Futura-Medium" font-size="16.0" fill="#FEFFFF" transform="matrix(1.00, 0.00, -0.00, -1.00, 512.9, 476.0)">A</text><text xml:space="preserve" font-family="Futura-Medium" font-size="16.0" fill="#FEFFFF" transform="matrix(1.00, 0.00, -0.00, -1.00, 524.3, 476.0)">T</text><text xml:space="preserve" font-family="Futura-Medium" font-size="16.0" fill="#FEFFFF" transform="matrix(1.00, 0.00, -0.00, -1.00, 532.4, 476.0)">E</text></g></g><g><clipPath id="clip-272"><path d="M 375.0 430.4 L 648.1 430.4 L 648.1 401.9 L 375.0 401.9 Z M 375.0 430.4 "></path></clipPath><g clip-path="url(#clip-272)"><path d="M 375.0 401.9 L 648.1 401.9 L 648.1 430.4 L 375.0 430.4 Z M 375.0 401.9 " fill="url(#AF08E07D-8190-417B-87C7-24281D28AC78)"></path><path d="M 375.0 430.4 L 648.1 430.4 L 648.1 401.9 L 375.0 401.9 Z M 375.0 430.4 " fill="#F14C3D" fill-opacity="0.46"></path></g></g><g><clipPath id="clip-273"><path d="M 373.8 400.2 L 649.2 400.2 L 649.2 431.6 L 373.8 431.6 Z M 373.8 400.2 "></path></clipPath><g clip-path="url(#clip-273)"><text xml:space="preserve" font-family="Futura-Medium" font-size="16.0" fill="#FEFFFF" transform="matrix(1.00, 0.00, -0.00, -1.00, 481.0, 410.0)">U</text><text xml:space="preserve" font-family="Futura-Medium" font-size="16.0" fill="#FEFFFF" transform="matrix(1.00, 0.00, -0.00, -1.00, 493.1, 410.0)">P</text><text xml:space="preserve" font-family="Futura-Medium" font-size="16.0" fill="#FEFFFF" transform="matrix(1.00, 0.00, -0.00, -1.00, 502.1, 410.0)">D</text><text xml:space="preserve" font-family="Futura-Medium" font-size="16.0" fill="#FEFFFF" transform="matrix(1.00, 0.00, -0.00, -1.00, 513.4, 410.0)">A</text><text xml:space="preserve" font-family="Futura-Medium" font-size="16.0" fill="#FEFFFF" transform="matrix(1.00, 0.00, -0.00, -1.00, 524.9, 410.0)">T</text><text xml:space="preserve" font-family="Futura-Medium" font-size="16.0" fill="#FEFFFF" transform="matrix(1.00, 0.00, -0.00, -1.00, 533.0, 410.0)">E</text></g></g><g><clipPath id="clip-274"><path d="M 375.0 365.4 L 648.1 365.4 L 648.1 336.8 L 375.0 336.8 Z M 375.0 365.4 "></path></clipPath><g clip-path="url(#clip-274)"><path d="M 375.0 336.8 L 648.1 336.8 L 648.1 365.4 L 375.0 365.4 Z M 375.0 336.8 " fill="url(#8B3F2554-5641-4EE6-9115-82C7EE439669)"></path><path d="M 375.0 365.4 L 648.1 365.4 L 648.1 336.8 L 375.0 336.8 Z M 375.0 365.4 " fill="#F14C3D" fill-opacity="0.46"></path></g></g><g><clipPath id="clip-275"><path d="M 373.8 335.2 L 649.2 335.2 L 649.2 366.6 L 373.8 366.6 Z M 373.8 335.2 "></path></clipPath><g clip-path="url(#clip-275)"><text xml:space="preserve" font-family="Futura-Medium" font-size="16.0" fill="#FEFFFF" transform="matrix(1.00, 0.00, -0.00, -1.00, 484.0, 345.0)">D</text><text xml:space="preserve" font-family="Futura-Medium" font-size="16.0" fill="#FEFFFF" transform="matrix(1.00, 0.00, -0.00, -1.00, 495.9, 345.0)">E</text><text xml:space="preserve" font-family="Futura-Medium" font-size="16.0" fill="#FEFFFF" transform="matrix(1.00, 0.00, -0.00, -1.00, 505.3, 345.0)">L</text><text xml:space="preserve" font-family="Futura-Medium" font-size="16.0" fill="#FEFFFF" transform="matrix(1.00, 0.00, -0.00, -1.00, 512.7, 345.0)">E</text><text xml:space="preserve" font-family="Futura-Medium" font-size="16.0" fill="#FEFFFF" transform="matrix(1.00, 0.00, -0.00, -1.00, 522.1, 345.0)">T</text><text xml:space="preserve" font-family="Futura-Medium" font-size="16.0" fill="#FEFFFF" transform="matrix(1.00, 0.00, -0.00, -1.00, 530.1, 345.0)">E</text></g></g><g><clipPath id="clip-276"><path d="M 375.9 300.4 L 649.0 300.4 L 649.0 271.8 L 375.9 271.8 Z M 375.9 300.4 "></path></clipPath><g clip-path="url(#clip-276)"><path d="M 375.9 271.8 L 649.0 271.8 L 649.0 300.4 L 375.9 300.4 Z M 375.9 271.8 " fill="url(#B8E0FD0A-BF05-42D9-BD29-171F68212DE0)"></path><path d="M 375.9 300.4 L 649.0 300.4 L 649.0 271.8 L 375.9 271.8 Z M 375.9 300.4 " fill="#F14C3D" fill-opacity="0.46"></path></g></g><g><clipPath id="clip-277"><path d="M 374.8 270.2 L 650.2 270.2 L 650.2 301.5 L 374.8 301.5 Z M 374.8 270.2 "></path></clipPath><g clip-path="url(#clip-277)"><text xml:space="preserve" font-family="Futura-Medium" font-size="16.0" fill="#FEFFFF" transform="matrix(1.00, 0.00, -0.00, -1.00, 477.0, 280.0)">R</text><text xml:space="preserve" font-family="Futura-Medium" font-size="16.0" fill="#FEFFFF" transform="matrix(1.00, 0.00, -0.00, -1.00, 487.0, 280.0)">E</text><text xml:space="preserve" font-family="Futura-Medium" font-size="16.0" fill="#FEFFFF" transform="matrix(1.00, 0.00, -0.00, -1.00, 496.3, 280.0)">N</text><text xml:space="preserve" font-family="Futura-Medium" font-size="16.0" fill="#FEFFFF" transform="matrix(1.00, 0.00, -0.00, -1.00, 510.2, 280.0)">A</text><text xml:space="preserve" font-family="Futura-Medium" font-size="16.0" fill="#FEFFFF" transform="matrix(1.00, 0.00, -0.00, -1.00, 522.4, 280.0)">M</text><text xml:space="preserve" font-family="Futura-Medium" font-size="16.0" fill="#FEFFFF" transform="matrix(1.00, 0.00, -0.00, -1.00, 538.1, 280.0)">E</text></g></g></g></svg>