<?xml version="1.0" encoding="UTF-8" standalone="no"?><svg xmlns="http://www.w3.org/2000/svg" xmlns:xlink="http://www.w3.org/1999/xlink" clip-rule="evenodd" stroke-miterlimit="4.00" viewBox="0 0 1024 768"><desc>SVG generated by Keynote</desc><defs></defs><g transform="matrix(1.00, 0.00, -0.00, -1.00, 0.0, 768.0)"><g><clipPath id="clip-519"><path d="M 0.0 768.0 L 1024.0 768.0 L 1024.0 0.0 L 0.0 0.0 Z M 0.0 768.0 "></path></clipPath><g clip-path="url(#clip-519)"><image xlink:href="../../7D75CC22-08E6-46FA-89F4-20BC499AD49E/assets/D52BF74205EDDA1E3AD886EF31563845.jpeg" width="1024.00" height="768.00" transform="matrix(1.00, 0.00, -0.00, -1.00, 0.0, 768.0)"></image></g></g><g opacity="0.75"><g><clipPath id="clip-520"><path d="M 0.0 0.0 L 1024.0 0.0 L 1024.0 768.0 L 0.0 768.0 Z M 0.0 0.0 "></path></clipPath><g clip-path="url(#clip-520)"><path d="M 0.0 0.0 L 169.6 0.0 L 171.6 0.0 " fill="none" stroke="#C87B6D" stroke-width="4.00" transform="matrix(0.71, 0.71, 0.71, -0.71, 357.9, 390.9)"></path><path d="M 483.7 504.9 L 489.7 522.7 L 471.9 516.8 Z M 483.7 504.9 " fill="#C87B6D"></path></g></g></g><text xml:space="preserve" font-family="Futura-Medium" font-size="39.6" fill="#5B5753" transform="matrix(1.00, 0.00, -0.00, -1.00, 187.0, 677.0)">D</text><text xml:space="preserve" font-family="Futura-Medium" font-size="39.6" fill="#5B5753" transform="matrix(1.00, 0.00, -0.00, -1.00, 216.5, 677.0)">R</text><text xml:space="preserve" font-family="Futura-Medium" font-size="39.6" fill="#5B5753" transform="matrix(1.00, 0.00, -0.00, -1.00, 241.2, 677.0)">F</text><text xml:space="preserve" font-family="Futura-Medium" font-size="39.6" fill="#5B5753" transform="matrix(1.00, 0.00, -0.00, -1.00, 263.3, 677.0)">-</text><text xml:space="preserve" font-family="Futura-Medium" font-size="39.6" fill="#5B5753" transform="matrix(1.00, 0.00, -0.00, -1.00, 272.7, 677.0)">S</text><text xml:space="preserve" font-family="Futura-Medium" font-size="39.6" fill="#5B5753" transform="matrix(1.00, 0.00, -0.00, -1.00, 296.5, 677.0)">W</text><text xml:space="preserve" font-family="Futura-Medium" font-size="39.6" fill="#5B5753" transform="matrix(1.00, 0.00, -0.00, -1.00, 336.7, 677.0)">A</text><text xml:space="preserve" font-family="Futura-Medium" font-size="39.6" fill="#5B5753" transform="matrix(1.00, 0.00, -0.00, -1.00, 365.4, 677.0)">G</text><text xml:space="preserve" font-family="Futura-Medium" font-size="39.6" fill="#5B5753" transform="matrix(1.00, 0.00, -0.00, -1.00, 399.6, 677.0)">G</text><text xml:space="preserve" font-family="Futura-Medium" font-size="39.6" fill="#5B5753" transform="matrix(1.00, 0.00, -0.00, -1.00, 433.7, 677.0)">E</text><text xml:space="preserve" font-family="Futura-Medium" font-size="39.6" fill="#5B5753" transform="matrix(1.00, 0.00, -0.00, -1.00, 456.9, 677.0)">R</text><text xml:space="preserve" font-family="Futura-Medium" font-size="39.6" fill="#5B5753" transform="matrix(1.00, 0.00, -0.00, -1.00, 482.1, 677.0)">-</text><text xml:space="preserve" font-family="Futura-Medium" font-size="39.6" fill="#5B5753" transform="matrix(1.00, 0.00, -0.00, -1.00, 491.5, 677.0)">C</text><text xml:space="preserve" font-family="Futura-Medium" font-size="39.6" fill="#5B5753" transform="matrix(1.00, 0.00, -0.00, -1.00, 520.1, 677.0)">U</text><text xml:space="preserve" font-family="Futura-Medium" font-size="39.6" fill="#5B5753" transform="matrix(1.00, 0.00, -0.00, -1.00, 550.1, 677.0)">S</text><text xml:space="preserve" font-family="Futura-Medium" font-size="39.6" fill="#5B5753" transform="matrix(1.00, 0.00, -0.00, -1.00, 574.6, 677.0)">T</text><text xml:space="preserve" font-family="Futura-Medium" font-size="39.6" fill="#5B5753" transform="matrix(1.00, 0.00, -0.00, -1.00, 593.5, 677.0)">O</text><text xml:space="preserve" font-family="Futura-Medium" font-size="39.6" fill="#5B5753" transform="matrix(1.00, 0.00, -0.00, -1.00, 629.7, 677.0)">M</text><text xml:space="preserve" font-family="Futura-Medium" font-size="39.6" fill="#5B5753" transform="matrix(1.00, 0.00, -0.00, -1.00, 668.5, 677.0)">I</text><text xml:space="preserve" font-family="Futura-Medium" font-size="39.6" fill="#5B5753" transform="matrix(1.00, 0.00, -0.00, -1.00, 681.0, 677.0)">Z</text><text xml:space="preserve" font-family="Futura-Medium" font-size="39.6" fill="#5B5753" transform="matrix(1.00, 0.00, -0.00, -1.00, 706.6, 677.0)">A</text><text xml:space="preserve" font-family="Futura-Medium" font-size="39.6" fill="#5B5753" transform="matrix(1.00, 0.00, -0.00, -1.00, 735.0, 677.0)">T</text><text xml:space="preserve" font-family="Futura-Medium" font-size="39.6" fill="#5B5753" transform="matrix(1.00, 0.00, -0.00, -1.00, 754.9, 677.0)">I</text><text xml:space="preserve" font-family="Futura-Medium" font-size="39.6" fill="#5B5753" transform="matrix(1.00, 0.00, -0.00, -1.00, 767.4, 677.0)">O</text><text xml:space="preserve" font-family="Futura-Medium" font-size="39.6" fill="#5B5753" transform="matrix(1.00, 0.00, -0.00, -1.00, 803.5, 677.0)">N</text><image xlink:href="../../487529B6-4B24-495D-9FFB-31647738A9AA/assets/0ACF9FC896F98AD880098F11056D1733.png" width="429.00" height="327.00" transform="matrix(1.00, 0.00, -0.00, -1.00, 437.7, 725.4)"></image><image xlink:href="../../487529B6-4B24-495D-9FFB-31647738A9AA/assets/F0B1D2EEA52A2D784A3D90D85AFA150D.png" width="349.00" height="154.00" transform="matrix(1.00, 0.00, -0.00, -1.00, 478.0, 640.0)"></image><g opacity="0.75"><g><clipPath id="clip-521"><path d="M 0.0 0.0 L 1024.0 0.0 L 1024.0 768.0 L 0.0 768.0 Z M 0.0 0.0 "></path></clipPath><g clip-path="url(#clip-521)"><path d="M 0.0 0.0 L 167.4 0.0 L 169.4 0.0 " fill="none" stroke="#C87B6D" stroke-width="4.00" transform="matrix(0.71, -0.71, -0.71, -0.71, 358.6, 346.7)"></path><path d="M 471.1 222.4 L 488.9 216.4 L 483.0 234.2 Z M 471.1 222.4 " fill="#C87B6D"></path></g></g></g><image xlink:href="../../487529B6-4B24-495D-9FFB-31647738A9AA/assets/43527DFDC959369EA6390AD9C2A6B73A.png" width="386.00" height="264.00" transform="matrix(1.00, 0.00, -0.00, -1.00, 459.3, 326.9)"></image><image xlink:href="../../487529B6-4B24-495D-9FFB-31647738A9AA/assets/C88DA22C3BB4FDCF0CF0B352371FA70C.png" width="306.00" height="114.00" transform="matrix(1.00, 0.00, -0.00, -1.00, 499.0, 253.0)"></image><image xlink:href="../../487529B6-4B24-495D-9FFB-31647738A9AA/assets/1787DFBF5B646DE684E280382CFA6602.png" width="360.00" height="284.00" transform="matrix(1.00, 0.00, -0.00, -1.00, 48.5, 512.0)"></image><image xlink:href="../../487529B6-4B24-495D-9FFB-31647738A9AA/assets/17210786204853D95B6C1A854605C51A.png" width="280.00" height="127.00" transform="matrix(1.00, 0.00, -0.00, -1.00, 89.0, 435.0)"></image></g></svg>