<?xml version="1.0" encoding="UTF-8" standalone="no"?><svg xmlns="http://www.w3.org/2000/svg" xmlns:xlink="http://www.w3.org/1999/xlink" clip-rule="evenodd" stroke-miterlimit="4.00" viewBox="0 0 1024 768"><desc>SVG generated by Keynote</desc><defs><pattern id="410439ED-A6F3-4D94-851C-0EC168B898AE" patternUnits="userSpaceOnUse" width="326" height="326" viewBox="0 0 326 326" patternTransform="matrix(0.570552, 0.000000, 0.000000, -0.570552, 171.398200, 541.879500)"><image xlink:href="../../7D75CC22-08E6-46FA-89F4-20BC499AD49E/assets/E4BB5A9ABE0308DAE349DEA7FB57AABB.jpeg" width="326.00" height="326.00"></image></pattern><pattern id="7B2AA65B-E7A7-45C5-A25C-A5A98390D102" patternUnits="userSpaceOnUse" width="326" height="326" viewBox="0 0 326 326" patternTransform="matrix(0.570552, 0.000000, 0.000000, -0.570552, 418.323300, 541.879500)"><image xlink:href="../../7D75CC22-08E6-46FA-89F4-20BC499AD49E/assets/E4BB5A9ABE0308DAE349DEA7FB57AABB.jpeg" width="326.00" height="326.00"></image></pattern><pattern id="1727BEAB-6B3D-48A0-8617-E78E22DE54DD" patternUnits="userSpaceOnUse" width="326" height="326" viewBox="0 0 326 326" patternTransform="matrix(0.570552, 0.000000, 0.000000, -0.570552, 665.248500, 541.879500)"><image xlink:href="../../7D75CC22-08E6-46FA-89F4-20BC499AD49E/assets/E4BB5A9ABE0308DAE349DEA7FB57AABB.jpeg" width="326.00" height="326.00"></image></pattern><pattern id="87FD8729-A10D-44FE-B7B7-B689487FE616" patternUnits="userSpaceOnUse" width="326" height="326" viewBox="0 0 326 326" patternTransform="matrix(0.570552, 0.000000, 0.000000, -0.570552, 349.677100, 349.670400)"><image xlink:href="../../7D75CC22-08E6-46FA-89F4-20BC499AD49E/assets/E4BB5A9ABE0308DAE349DEA7FB57AABB.jpeg" width="326.00" height="326.00"></image></pattern></defs><g transform="matrix(1.00, 0.00, -0.00, -1.00, 0.0, 768.0)"><g><clipPath id="clip-117"><path d="M 0.0 768.0 L 1024.0 768.0 L 1024.0 0.0 L 0.0 0.0 Z M 0.0 768.0 "></path></clipPath><g clip-path="url(#clip-117)"><image xlink:href="../../7D75CC22-08E6-46FA-89F4-20BC499AD49E/assets/D52BF74205EDDA1E3AD886EF31563845.jpeg" width="1024.00" height="768.00" transform="matrix(1.00, 0.00, -0.00, -1.00, 0.0, 768.0)"></image></g></g><text xml:space="preserve" font-family="Futura-Medium" font-size="39.6" fill="#5B5753" transform="matrix(1.00, 0.00, -0.00, -1.00, 187.0, 677.0)">D</text><text xml:space="preserve" font-family="Futura-Medium" font-size="39.6" fill="#5B5753" transform="matrix(1.00, 0.00, -0.00, -1.00, 216.5, 677.0)">R</text><text xml:space="preserve" font-family="Futura-Medium" font-size="39.6" fill="#5B5753" transform="matrix(1.00, 0.00, -0.00, -1.00, 241.2, 677.0)">F</text><text xml:space="preserve" font-family="Futura-Medium" font-size="39.6" fill="#5B5753" transform="matrix(1.00, 0.00, -0.00, -1.00, 263.3, 677.0)">-</text><text xml:space="preserve" font-family="Futura-Medium" font-size="39.6" fill="#5B5753" transform="matrix(1.00, 0.00, -0.00, -1.00, 272.7, 677.0)">S</text><text xml:space="preserve" font-family="Futura-Medium" font-size="39.6" fill="#5B5753" transform="matrix(1.00, 0.00, -0.00, -1.00, 296.5, 677.0)">W</text><text xml:space="preserve" font-family="Futura-Medium" font-size="39.6" fill="#5B5753" transform="matrix(1.00, 0.00, -0.00, -1.00, 336.7, 677.0)">A</text><text xml:space="preserve" font-family="Futura-Medium" font-size="39.6" fill="#5B5753" transform="matrix(1.00, 0.00, -0.00, -1.00, 365.4, 677.0)">G</text><text xml:space="preserve" font-family="Futura-Medium" font-size="39.6" fill="#5B5753" transform="matrix(1.00, 0.00, -0.00, -1.00, 399.6, 677.0)">G</text><text xml:space="preserve" font-family="Futura-Medium" font-size="39.6" fill="#5B5753" transform="matrix(1.00, 0.00, -0.00, -1.00, 433.7, 677.0)">E</text><text xml:space="preserve" font-family="Futura-Medium" font-size="39.6" fill="#5B5753" transform="matrix(1.00, 0.00, -0.00, -1.00, 456.9, 677.0)">R</text><text xml:space="preserve" font-family="Futura-Medium" font-size="39.6" fill="#5B5753" transform="matrix(1.00, 0.00, -0.00, -1.00, 482.1, 677.0)">-</text><text xml:space="preserve" font-family="Futura-Medium" font-size="39.6" fill="#5B5753" transform="matrix(1.00, 0.00, -0.00, -1.00, 491.5, 677.0)">C</text><text xml:space="preserve" font-family="Futura-Medium" font-size="39.6" fill="#5B5753" transform="matrix(1.00, 0.00, -0.00, -1.00, 520.1, 677.0)">U</text><text xml:space="preserve" font-family="Futura-Medium" font-size="39.6" fill="#5B5753" transform="matrix(1.00, 0.00, -0.00, -1.00, 550.1, 677.0)">S</text><text xml:space="preserve" font-family="Futura-Medium" font-size="39.6" fill="#5B5753" transform="matrix(1.00, 0.00, -0.00, -1.00, 574.6, 677.0)">T</text><text xml:space="preserve" font-family="Futura-Medium" font-size="39.6" fill="#5B5753" transform="matrix(1.00, 0.00, -0.00, -1.00, 593.5, 677.0)">O</text><text xml:space="preserve" font-family="Futura-Medium" font-size="39.6" fill="#5B5753" transform="matrix(1.00, 0.00, -0.00, -1.00, 629.7, 677.0)">M</text><text xml:space="preserve" font-family="Futura-Medium" font-size="39.6" fill="#5B5753" transform="matrix(1.00, 0.00, -0.00, -1.00, 668.5, 677.0)">I</text><text xml:space="preserve" font-family="Futura-Medium" font-size="39.6" fill="#5B5753" transform="matrix(1.00, 0.00, -0.00, -1.00, 681.0, 677.0)">Z</text><text xml:space="preserve" font-family="Futura-Medium" font-size="39.6" fill="#5B5753" transform="matrix(1.00, 0.00, -0.00, -1.00, 706.6, 677.0)">A</text><text xml:space="preserve" font-family="Futura-Medium" font-size="39.6" fill="#5B5753" transform="matrix(1.00, 0.00, -0.00, -1.00, 735.0, 677.0)">T</text><text xml:space="preserve" font-family="Futura-Medium" font-size="39.6" fill="#5B5753" transform="matrix(1.00, 0.00, -0.00, -1.00, 754.9, 677.0)">I</text><text xml:space="preserve" font-family="Futura-Medium" font-size="39.6" fill="#5B5753" transform="matrix(1.00, 0.00, -0.00, -1.00, 767.4, 677.0)">O</text><text xml:space="preserve" font-family="Futura-Medium" font-size="39.6" fill="#5B5753" transform="matrix(1.00, 0.00, -0.00, -1.00, 803.5, 677.0)">N</text><g><clipPath id="clip-118"><path d="M 171.4 541.9 L 358.8 541.9 L 358.8 453.0 L 171.4 453.0 Z M 171.4 541.9 "></path></clipPath><g clip-path="url(#clip-118)"><path d="M 171.4 453.0 L 358.8 453.0 L 358.8 541.9 L 171.4 541.9 Z M 171.4 453.0 " fill="url(#410439ED-A6F3-4D94-851C-0EC168B898AE)"></path><path d="M 171.4 541.9 L 358.8 541.9 L 358.8 453.0 L 171.4 453.0 Z M 171.4 541.9 " fill="#D8EF69" fill-opacity="0.44"></path></g></g><g><clipPath id="clip-119"><path d="M 170.2 453.0 L 359.9 453.0 L 359.9 541.9 L 170.2 541.9 Z M 170.2 453.0 "></path></clipPath><g clip-path="url(#clip-119)"><text xml:space="preserve" font-family="Futura-Medium" font-size="16.0" fill="#FEFFFF" transform="matrix(1.00, 0.00, -0.00, -1.00, 225.0, 502.0)">D</text><text xml:space="preserve" font-family="Futura-Medium" font-size="16.0" fill="#FEFFFF" transform="matrix(1.00, 0.00, -0.00, -1.00, 236.9, 502.0)">E</text><text xml:space="preserve" font-family="Futura-Medium" font-size="16.0" fill="#FEFFFF" transform="matrix(1.00, 0.00, -0.00, -1.00, 246.3, 502.0)">T</text><text xml:space="preserve" font-family="Futura-Medium" font-size="16.0" fill="#FEFFFF" transform="matrix(1.00, 0.00, -0.00, -1.00, 254.3, 502.0)">E</text><text xml:space="preserve" font-family="Futura-Medium" font-size="16.0" fill="#FEFFFF" transform="matrix(1.00, 0.00, -0.00, -1.00, 263.7, 502.0)">C</text><text xml:space="preserve" font-family="Futura-Medium" font-size="16.0" fill="#FEFFFF" transform="matrix(1.00, 0.00, -0.00, -1.00, 275.2, 502.0)">T</text><text xml:space="preserve" font-family="Futura-Medium" font-size="16.0" fill="#FEFFFF" transform="matrix(1.00, 0.00, -0.00, -1.00, 282.6, 502.0)">A</text><text xml:space="preserve" font-family="Futura-Medium" font-size="16.0" fill="#FEFFFF" transform="matrix(1.00, 0.00, -0.00, -1.00, 294.8, 502.0)">R</text><text xml:space="preserve" font-family="Futura-Medium" font-size="16.0" fill="#FEFFFF" transform="matrix(1.00, 0.00, -0.00, -1.00, 304.8, 502.0)"> </text><text xml:space="preserve" font-family="Futura-Medium" font-size="16.0" fill="#FEFFFF" transform="matrix(1.00, 0.00, -0.00, -1.00, 310.0, 502.0)"> </text><text xml:space="preserve" font-family="Futura-Medium" font-size="16.0" fill="#FEFFFF" transform="matrix(1.00, 0.00, -0.00, -1.00, 315.2, 502.0)"> </text><text xml:space="preserve" font-family="Futura-Medium" font-size="16.0" fill="#FEFFFF" transform="matrix(1.00, 0.00, -0.00, -1.00, 221.0, 481.0)">P</text><text xml:space="preserve" font-family="Futura-Medium" font-size="16.0" fill="#FEFFFF" transform="matrix(1.00, 0.00, -0.00, -1.00, 230.0, 481.0)">R</text><text xml:space="preserve" font-family="Futura-Medium" font-size="16.0" fill="#FEFFFF" transform="matrix(1.00, 0.00, -0.00, -1.00, 239.6, 481.0)">O</text><text xml:space="preserve" font-family="Futura-Medium" font-size="16.0" fill="#FEFFFF" transform="matrix(1.00, 0.00, -0.00, -1.00, 254.3, 481.0)">B</text><text xml:space="preserve" font-family="Futura-Medium" font-size="16.0" fill="#FEFFFF" transform="matrix(1.00, 0.00, -0.00, -1.00, 264.0, 481.0)">L</text><text xml:space="preserve" font-family="Futura-Medium" font-size="16.0" fill="#FEFFFF" transform="matrix(1.00, 0.00, -0.00, -1.00, 271.5, 481.0)">E</text><text xml:space="preserve" font-family="Futura-Medium" font-size="16.0" fill="#FEFFFF" transform="matrix(1.00, 0.00, -0.00, -1.00, 280.8, 481.0)">M</text><text xml:space="preserve" font-family="Futura-Medium" font-size="16.0" fill="#FEFFFF" transform="matrix(1.00, 0.00, -0.00, -1.00, 296.5, 481.0)">A</text></g></g><g><clipPath id="clip-120"><path d="M 418.3 541.9 L 605.7 541.9 L 605.7 453.0 L 418.3 453.0 Z M 418.3 541.9 "></path></clipPath><g clip-path="url(#clip-120)"><path d="M 418.3 453.0 L 605.7 453.0 L 605.7 541.9 L 418.3 541.9 Z M 418.3 453.0 " fill="url(#7B2AA65B-E7A7-45C5-A25C-A5A98390D102)"></path><path d="M 418.3 541.9 L 605.7 541.9 L 605.7 453.0 L 418.3 453.0 Z M 418.3 541.9 " fill="#F14C3D" fill-opacity="0.46"></path></g></g><g><clipPath id="clip-121"><path d="M 417.1 453.0 L 606.9 453.0 L 606.9 541.9 L 417.1 541.9 Z M 417.1 453.0 "></path></clipPath><g clip-path="url(#clip-121)"><text xml:space="preserve" font-family="Futura-Medium" font-size="16.0" fill="#FEFFFF" transform="matrix(1.00, 0.00, -0.00, -1.00, 461.0, 502.0)">E</text><text xml:space="preserve" font-family="Futura-Medium" font-size="16.0" fill="#FEFFFF" transform="matrix(1.00, 0.00, -0.00, -1.00, 470.4, 502.0)">N</text><text xml:space="preserve" font-family="Futura-Medium" font-size="16.0" fill="#FEFFFF" transform="matrix(1.00, 0.00, -0.00, -1.00, 484.3, 502.0)">C</text><text xml:space="preserve" font-family="Futura-Medium" font-size="16.0" fill="#FEFFFF" transform="matrix(1.00, 0.00, -0.00, -1.00, 495.8, 502.0)">O</text><text xml:space="preserve" font-family="Futura-Medium" font-size="16.0" fill="#FEFFFF" transform="matrix(1.00, 0.00, -0.00, -1.00, 510.4, 502.0)">N</text><text xml:space="preserve" font-family="Futura-Medium" font-size="16.0" fill="#FEFFFF" transform="matrix(1.00, 0.00, -0.00, -1.00, 524.2, 502.0)">T</text><text xml:space="preserve" font-family="Futura-Medium" font-size="16.0" fill="#FEFFFF" transform="matrix(1.00, 0.00, -0.00, -1.00, 532.2, 502.0)">R</text><text xml:space="preserve" font-family="Futura-Medium" font-size="16.0" fill="#FEFFFF" transform="matrix(1.00, 0.00, -0.00, -1.00, 542.2, 502.0)">A</text><text xml:space="preserve" font-family="Futura-Medium" font-size="16.0" fill="#FEFFFF" transform="matrix(1.00, 0.00, -0.00, -1.00, 554.4, 502.0)">R</text><text xml:space="preserve" font-family="Futura-Medium" font-size="16.0" fill="#FEFFFF" transform="matrix(1.00, 0.00, -0.00, -1.00, 564.3, 502.0)"> </text><text xml:space="preserve" font-family="Futura-Medium" font-size="16.0" fill="#FEFFFF" transform="matrix(1.00, 0.00, -0.00, -1.00, 470.0, 481.0)">M</text><text xml:space="preserve" font-family="Futura-Medium" font-size="16.0" fill="#FEFFFF" transform="matrix(1.00, 0.00, -0.00, -1.00, 485.7, 481.0)">E</text><text xml:space="preserve" font-family="Futura-Medium" font-size="16.0" fill="#FEFFFF" transform="matrix(1.00, 0.00, -0.00, -1.00, 495.1, 481.0)">T</text><text xml:space="preserve" font-family="Futura-Medium" font-size="16.0" fill="#FEFFFF" transform="matrix(1.00, 0.00, -0.00, -1.00, 502.7, 481.0)">O</text><text xml:space="preserve" font-family="Futura-Medium" font-size="16.0" fill="#FEFFFF" transform="matrix(1.00, 0.00, -0.00, -1.00, 517.4, 481.0)">D</text><text xml:space="preserve" font-family="Futura-Medium" font-size="16.0" fill="#FEFFFF" transform="matrix(1.00, 0.00, -0.00, -1.00, 529.3, 481.0)">O</text><text xml:space="preserve" font-family="Futura-Medium" font-size="16.0" fill="#FEFFFF" transform="matrix(1.00, 0.00, -0.00, -1.00, 543.9, 481.0)">S</text></g></g><g><clipPath id="clip-122"><path d="M 665.2 541.9 L 852.6 541.9 L 852.6 453.0 L 665.2 453.0 Z M 665.2 541.9 "></path></clipPath><g clip-path="url(#clip-122)"><path d="M 665.2 453.0 L 852.6 453.0 L 852.6 541.9 L 665.2 541.9 Z M 665.2 453.0 " fill="url(#1727BEAB-6B3D-48A0-8617-E78E22DE54DD)"></path><path d="M 665.2 541.9 L 852.6 541.9 L 852.6 453.0 L 665.2 453.0 Z M 665.2 541.9 " fill="#F14C3D" fill-opacity="0.46"></path></g></g><g><clipPath id="clip-123"><path d="M 664.1 453.0 L 853.8 453.0 L 853.8 541.9 L 664.1 541.9 Z M 664.1 453.0 "></path></clipPath><g clip-path="url(#clip-123)"><text xml:space="preserve" font-family="Futura-Medium" font-size="16.0" fill="#FEFFFF" transform="matrix(1.00, 0.00, -0.00, -1.00, 725.0, 502.0)">A</text><text xml:space="preserve" font-family="Futura-Medium" font-size="16.0" fill="#FEFFFF" transform="matrix(1.00, 0.00, -0.00, -1.00, 737.2, 502.0)">P</text><text xml:space="preserve" font-family="Futura-Medium" font-size="16.0" fill="#FEFFFF" transform="matrix(1.00, 0.00, -0.00, -1.00, 746.1, 502.0)">L</text><text xml:space="preserve" font-family="Futura-Medium" font-size="16.0" fill="#FEFFFF" transform="matrix(1.00, 0.00, -0.00, -1.00, 753.5, 502.0)">I</text><text xml:space="preserve" font-family="Futura-Medium" font-size="16.0" fill="#FEFFFF" transform="matrix(1.00, 0.00, -0.00, -1.00, 758.6, 502.0)">C</text><text xml:space="preserve" font-family="Futura-Medium" font-size="16.0" fill="#FEFFFF" transform="matrix(1.00, 0.00, -0.00, -1.00, 770.4, 502.0)">A</text><text xml:space="preserve" font-family="Futura-Medium" font-size="16.0" fill="#FEFFFF" transform="matrix(1.00, 0.00, -0.00, -1.00, 782.6, 502.0)">R</text><text xml:space="preserve" font-family="Futura-Medium" font-size="16.0" fill="#FEFFFF" transform="matrix(1.00, 0.00, -0.00, -1.00, 792.5, 502.0)"> </text><text xml:space="preserve" font-family="Futura-Medium" font-size="16.0" fill="#FEFFFF" transform="matrix(1.00, 0.00, -0.00, -1.00, 797.8, 502.0)"> </text><text xml:space="preserve" font-family="Futura-Medium" font-size="16.0" fill="#FEFFFF" transform="matrix(1.00, 0.00, -0.00, -1.00, 803.0, 502.0)"> </text><text xml:space="preserve" font-family="Futura-Medium" font-size="16.0" fill="#FEFFFF" transform="matrix(1.00, 0.00, -0.00, -1.00, 808.3, 502.0)"> </text><text xml:space="preserve" font-family="Futura-Medium" font-size="16.0" fill="#FEFFFF" transform="matrix(1.00, 0.00, -0.00, -1.00, 813.5, 502.0)"> </text><text xml:space="preserve" font-family="Futura-Medium" font-size="16.0" fill="#FEFFFF" transform="matrix(1.00, 0.00, -0.00, -1.00, 715.0, 481.0)">S</text><text xml:space="preserve" font-family="Futura-Medium" font-size="16.0" fill="#FEFFFF" transform="matrix(1.00, 0.00, -0.00, -1.00, 724.6, 481.0)">O</text><text xml:space="preserve" font-family="Futura-Medium" font-size="16.0" fill="#FEFFFF" transform="matrix(1.00, 0.00, -0.00, -1.00, 739.3, 481.0)">L</text><text xml:space="preserve" font-family="Futura-Medium" font-size="16.0" fill="#FEFFFF" transform="matrix(1.00, 0.00, -0.00, -1.00, 746.3, 481.0)">U</text><text xml:space="preserve" font-family="Futura-Medium" font-size="16.0" fill="#FEFFFF" transform="matrix(1.00, 0.00, -0.00, -1.00, 758.5, 481.0)">C</text><text xml:space="preserve" font-family="Futura-Medium" font-size="16.0" fill="#FEFFFF" transform="matrix(1.00, 0.00, -0.00, -1.00, 770.0, 481.0)">I</text><text xml:space="preserve" font-family="Futura-Medium" font-size="16.0" fill="#FEFFFF" transform="matrix(1.00, 0.00, -0.00, -1.00, 775.0, 481.0)">Ó</text><text xml:space="preserve" font-family="Futura-Medium" font-size="16.0" fill="#FEFFFF" transform="matrix(1.00, 0.00, -0.00, -1.00, 789.6, 481.0)">N</text></g></g><g><clipPath id="clip-124"><path d="M 349.7 349.7 L 674.3 349.7 L 674.3 260.8 L 349.7 260.8 Z M 349.7 349.7 "></path></clipPath><g clip-path="url(#clip-124)"><path d="M 349.7 260.8 L 674.3 260.8 L 674.3 349.7 L 349.7 349.7 Z M 349.7 260.8 " fill="url(#87FD8729-A10D-44FE-B7B7-B689487FE616)"></path><path d="M 349.7 349.7 L 674.3 349.7 L 674.3 260.8 L 349.7 260.8 Z M 349.7 349.7 " fill="#F14C3D" fill-opacity="0.46"></path></g></g><g><clipPath id="clip-125"><path d="M 348.5 260.8 L 675.5 260.8 L 675.5 349.7 L 348.5 349.7 Z M 348.5 260.8 "></path></clipPath><g clip-path="url(#clip-125)"><text xml:space="preserve" font-family="Futura-Medium" font-size="16.0" fill="#FEFFFF" transform="matrix(1.00, 0.00, -0.00, -1.00, 407.0, 299.0)">S</text><text xml:space="preserve" font-family="Futura-Medium" font-size="16.0" fill="#FEFFFF" transform="matrix(1.00, 0.00, -0.00, -1.00, 416.6, 299.0)">E</text><text xml:space="preserve" font-family="Futura-Medium" font-size="16.0" fill="#FEFFFF" transform="matrix(1.00, 0.00, -0.00, -1.00, 426.0, 299.0)">G</text><text xml:space="preserve" font-family="Futura-Medium" font-size="16.0" fill="#FEFFFF" transform="matrix(1.00, 0.00, -0.00, -1.00, 439.8, 299.0)">U</text><text xml:space="preserve" font-family="Futura-Medium" font-size="16.0" fill="#FEFFFF" transform="matrix(1.00, 0.00, -0.00, -1.00, 452.0, 299.0)">I</text><text xml:space="preserve" font-family="Futura-Medium" font-size="16.0" fill="#FEFFFF" transform="matrix(1.00, 0.00, -0.00, -1.00, 457.0, 299.0)">R</text><text xml:space="preserve" font-family="Futura-Medium" font-size="16.0" fill="#FEFFFF" transform="matrix(1.00, 0.00, -0.00, -1.00, 466.9, 299.0)"> </text><text xml:space="preserve" font-family="Futura-Medium" font-size="16.0" fill="#FEFFFF" transform="matrix(1.00, 0.00, -0.00, -1.00, 472.2, 299.0)">D</text><text xml:space="preserve" font-family="Futura-Medium" font-size="16.0" fill="#FEFFFF" transform="matrix(1.00, 0.00, -0.00, -1.00, 484.1, 299.0)">E</text><text xml:space="preserve" font-family="Futura-Medium" font-size="16.0" fill="#FEFFFF" transform="matrix(1.00, 0.00, -0.00, -1.00, 493.5, 299.0)">S</text><text xml:space="preserve" font-family="Futura-Medium" font-size="16.0" fill="#FEFFFF" transform="matrix(1.00, 0.00, -0.00, -1.00, 503.0, 299.0)">A</text><text xml:space="preserve" font-family="Futura-Medium" font-size="16.0" fill="#FEFFFF" transform="matrix(1.00, 0.00, -0.00, -1.00, 515.2, 299.0)">R</text><text xml:space="preserve" font-family="Futura-Medium" font-size="16.0" fill="#FEFFFF" transform="matrix(1.00, 0.00, -0.00, -1.00, 525.1, 299.0)">R</text><text xml:space="preserve" font-family="Futura-Medium" font-size="16.0" fill="#FEFFFF" transform="matrix(1.00, 0.00, -0.00, -1.00, 534.8, 299.0)">O</text><text xml:space="preserve" font-family="Futura-Medium" font-size="16.0" fill="#FEFFFF" transform="matrix(1.00, 0.00, -0.00, -1.00, 549.4, 299.0)">L</text><text xml:space="preserve" font-family="Futura-Medium" font-size="16.0" fill="#FEFFFF" transform="matrix(1.00, 0.00, -0.00, -1.00, 556.9, 299.0)">L</text><text xml:space="preserve" font-family="Futura-Medium" font-size="16.0" fill="#FEFFFF" transform="matrix(1.00, 0.00, -0.00, -1.00, 564.9, 299.0)">A</text><text xml:space="preserve" font-family="Futura-Medium" font-size="16.0" fill="#FEFFFF" transform="matrix(1.00, 0.00, -0.00, -1.00, 577.1, 299.0)">N</text><text xml:space="preserve" font-family="Futura-Medium" font-size="16.0" fill="#FEFFFF" transform="matrix(1.00, 0.00, -0.00, -1.00, 590.9, 299.0)">D</text><text xml:space="preserve" font-family="Futura-Medium" font-size="16.0" fill="#FEFFFF" transform="matrix(1.00, 0.00, -0.00, -1.00, 602.9, 299.0)">O</text></g></g><g opacity="0.75"><g><clipPath id="clip-126"><path d="M 0.0 0.0 L 1024.0 0.0 L 1024.0 768.0 L 0.0 768.0 Z M 0.0 0.0 "></path></clipPath><g clip-path="url(#clip-126)"><path d="M 0.0 0.0 L 126.6 0.0 " fill="none" stroke="#C87B6D" stroke-width="4.00" transform="matrix(1.00, 0.00, 0.00, -1.00, 851.6, 495.6)"></path></g></g></g><g opacity="0.75"><g><clipPath id="clip-127"><path d="M 0.0 0.0 L 1024.0 0.0 L 1024.0 768.0 L 0.0 768.0 Z M 0.0 0.0 "></path></clipPath><g clip-path="url(#clip-127)"><path d="M 0.0 0.0 L 109.8 0.0 L 111.8 0.0 " fill="none" stroke="#C87B6D" stroke-width="4.00" transform="matrix(1.00, 0.00, 0.00, -1.00, 45.9, 495.6)"></path><path d="M 155.6 487.2 L 172.4 495.6 L 155.6 504.0 Z M 155.6 487.2 " fill="#C87B6D"></path></g></g></g><g opacity="0.75"><g><clipPath id="clip-128"><path d="M 0.0 0.0 L 1024.0 0.0 L 1024.0 768.0 L 0.0 768.0 Z M 0.0 0.0 "></path></clipPath><g clip-path="url(#clip-128)"><path d="M 0.0 0.0 L 186.8 0.0 " fill="none" stroke="#C87B6D" stroke-width="4.00" transform="matrix(0.00, -1.00, -1.00, 0.00, 45.5, 495.1)"></path></g></g></g><g opacity="0.75"><g><clipPath id="clip-129"><path d="M 0.0 0.0 L 1024.0 0.0 L 1024.0 768.0 L 0.0 768.0 Z M 0.0 0.0 "></path></clipPath><g clip-path="url(#clip-129)"><path d="M 0.0 0.0 L 186.8 0.0 " fill="none" stroke="#C87B6D" stroke-width="4.00" transform="matrix(0.00, -1.00, -1.00, 0.00, 978.5, 495.1)"></path></g></g></g><g opacity="0.75"><g><clipPath id="clip-130"><path d="M 0.0 0.0 L 1024.0 0.0 L 1024.0 768.0 L 0.0 768.0 Z M 0.0 0.0 "></path></clipPath><g clip-path="url(#clip-130)"><path d="M 0.0 0.0 L 305.2 0.0 " fill="none" stroke="#C87B6D" stroke-width="4.00" transform="matrix(1.00, 0.00, 0.00, -1.00, 45.5, 308.1)"></path></g></g></g><g opacity="0.75"><g><clipPath id="clip-131"><path d="M 0.0 0.0 L 1024.0 0.0 L 1024.0 768.0 L 0.0 768.0 Z M 0.0 0.0 "></path></clipPath><g clip-path="url(#clip-131)"><path d="M 0.0 0.0 L 288.4 0.0 L 290.4 0.0 " fill="none" stroke="#C87B6D" stroke-width="4.00" transform="matrix(-1.00, 0.00, 0.00, 1.00, 979.2, 308.1)"></path><path d="M 690.8 316.5 L 674.0 308.1 L 690.8 299.7 Z M 690.8 316.5 " fill="#C87B6D"></path></g></g></g><g opacity="0.75"><g><clipPath id="clip-132"><path d="M 0.0 0.0 L 1024.0 0.0 L 1024.0 768.0 L 0.0 768.0 Z M 0.0 0.0 "></path></clipPath><g clip-path="url(#clip-132)"><path d="M 0.0 0.0 L 43.8 0.0 L 45.8 0.0 " fill="none" stroke="#C87B6D" stroke-width="4.00" transform="matrix(1.00, 0.00, 0.00, -1.00, 358.2, 496.5)"></path><path d="M 402.1 488.1 L 418.9 496.5 L 402.1 504.9 Z M 402.1 488.1 " fill="#C87B6D"></path></g></g></g><g opacity="0.75"><g><clipPath id="clip-133"><path d="M 0.0 0.0 L 1024.0 0.0 L 1024.0 768.0 L 0.0 768.0 Z M 0.0 0.0 "></path></clipPath><g clip-path="url(#clip-133)"><path d="M 0.0 0.0 L 43.8 0.0 L 45.8 0.0 " fill="none" stroke="#C87B6D" stroke-width="4.00" transform="matrix(1.00, 0.00, 0.00, -1.00, 605.2, 497.5)"></path><path d="M 649.0 489.1 L 665.8 497.5 L 649.0 505.9 Z M 649.0 489.1 " fill="#C87B6D"></path></g></g></g></g></svg>