<?xml version="1.0" encoding="UTF-8" standalone="no"?><svg xmlns="http://www.w3.org/2000/svg" xmlns:xlink="http://www.w3.org/1999/xlink" clip-rule="evenodd" stroke-miterlimit="4.00" viewBox="0 0 1024 768"><desc>SVG generated by Keynote</desc><defs></defs><g transform="matrix(1.00, 0.00, -0.00, -1.00, 0.0, 768.0)"><g><clipPath id="clip-816"><path d="M 0.0 768.0 L 1024.0 768.0 L 1024.0 0.0 L 0.0 0.0 Z M 0.0 768.0 "></path></clipPath><g clip-path="url(#clip-816)"><image xlink:href="../../7D75CC22-08E6-46FA-89F4-20BC499AD49E/assets/D52BF74205EDDA1E3AD886EF31563845.jpeg" width="1024.00" height="768.00" transform="matrix(1.00, 0.00, -0.00, -1.00, 0.0, 768.0)"></image></g></g><text xml:space="preserve" font-family="Futura-Medium" font-size="39.6" fill="#5B5753" transform="matrix(1.00, 0.00, -0.00, -1.00, 187.0, 677.0)">D</text><text xml:space="preserve" font-family="Futura-Medium" font-size="39.6" fill="#5B5753" transform="matrix(1.00, 0.00, -0.00, -1.00, 216.5, 677.0)">R</text><text xml:space="preserve" font-family="Futura-Medium" font-size="39.6" fill="#5B5753" transform="matrix(1.00, 0.00, -0.00, -1.00, 241.2, 677.0)">F</text><text xml:space="preserve" font-family="Futura-Medium" font-size="39.6" fill="#5B5753" transform="matrix(1.00, 0.00, -0.00, -1.00, 263.3, 677.0)">-</text><text xml:space="preserve" font-family="Futura-Medium" font-size="39.6" fill="#5B5753" transform="matrix(1.00, 0.00, -0.00, -1.00, 272.7, 677.0)">S</text><text xml:space="preserve" font-family="Futura-Medium" font-size="39.6" fill="#5B5753" transform="matrix(1.00, 0.00, -0.00, -1.00, 296.5, 677.0)">W</text><text xml:space="preserve" font-family="Futura-Medium" font-size="39.6" fill="#5B5753" transform="matrix(1.00, 0.00, -0.00, -1.00, 336.7, 677.0)">A</text><text xml:space="preserve" font-family="Futura-Medium" font-size="39.6" fill="#5B5753" transform="matrix(1.00, 0.00, -0.00, -1.00, 365.4, 677.0)">G</text><text xml:space="preserve" font-family="Futura-Medium" font-size="39.6" fill="#5B5753" transform="matrix(1.00, 0.00, -0.00, -1.00, 399.6, 677.0)">G</text><text xml:space="preserve" font-family="Futura-Medium" font-size="39.6" fill="#5B5753" transform="matrix(1.00, 0.00, -0.00, -1.00, 433.7, 677.0)">E</text><text xml:space="preserve" font-family="Futura-Medium" font-size="39.6" fill="#5B5753" transform="matrix(1.00, 0.00, -0.00, -1.00, 456.9, 677.0)">R</text><text xml:space="preserve" font-family="Futura-Medium" font-size="39.6" fill="#5B5753" transform="matrix(1.00, 0.00, -0.00, -1.00, 482.1, 677.0)">-</text><text xml:space="preserve" font-family="Futura-Medium" font-size="39.6" fill="#5B5753" transform="matrix(1.00, 0.00, -0.00, -1.00, 491.5, 677.0)">C</text><text xml:space="preserve" font-family="Futura-Medium" font-size="39.6" fill="#5B5753" transform="matrix(1.00, 0.00, -0.00, -1.00, 520.1, 677.0)">U</text><text xml:space="preserve" font-family="Futura-Medium" font-size="39.6" fill="#5B5753" transform="matrix(1.00, 0.00, -0.00, -1.00, 550.1, 677.0)">S</text><text xml:space="preserve" font-family="Futura-Medium" font-size="39.6" fill="#5B5753" transform="matrix(1.00, 0.00, -0.00, -1.00, 574.6, 677.0)">T</text><text xml:space="preserve" font-family="Futura-Medium" font-size="39.6" fill="#5B5753" transform="matrix(1.00, 0.00, -0.00, -1.00, 593.5, 677.0)">O</text><text xml:space="preserve" font-family="Futura-Medium" font-size="39.6" fill="#5B5753" transform="matrix(1.00, 0.00, -0.00, -1.00, 629.7, 677.0)">M</text><text xml:space="preserve" font-family="Futura-Medium" font-size="39.6" fill="#5B5753" transform="matrix(1.00, 0.00, -0.00, -1.00, 668.5, 677.0)">I</text><text xml:space="preserve" font-family="Futura-Medium" font-size="39.6" fill="#5B5753" transform="matrix(1.00, 0.00, -0.00, -1.00, 681.0, 677.0)">Z</text><text xml:space="preserve" font-family="Futura-Medium" font-size="39.6" fill="#5B5753" transform="matrix(1.00, 0.00, -0.00, -1.00, 706.6, 677.0)">A</text><text xml:space="preserve" font-family="Futura-Medium" font-size="39.6" fill="#5B5753" transform="matrix(1.00, 0.00, -0.00, -1.00, 735.0, 677.0)">T</text><text xml:space="preserve" font-family="Futura-Medium" font-size="39.6" fill="#5B5753" transform="matrix(1.00, 0.00, -0.00, -1.00, 754.9, 677.0)">I</text><text xml:space="preserve" font-family="Futura-Medium" font-size="39.6" fill="#5B5753" transform="matrix(1.00, 0.00, -0.00, -1.00, 767.4, 677.0)">O</text><text xml:space="preserve" font-family="Futura-Medium" font-size="39.6" fill="#5B5753" transform="matrix(1.00, 0.00, -0.00, -1.00, 803.5, 677.0)">N</text><text xml:space="preserve" font-family="Avenir-Heavy" font-weight="bold" font-size="45.0" fill="#5B5753" transform="matrix(1.00, 0.00, -0.00, -1.00, 194.0, 490.0)">P</text><text xml:space="preserve" font-family="Avenir-Heavy" font-weight="bold" font-size="45.0" fill="#5B5753" transform="matrix(1.00, 0.00, -0.00, -1.00, 221.5, 490.0)">R</text><text xml:space="preserve" font-family="Avenir-Heavy" font-weight="bold" font-size="45.0" fill="#5B5753" transform="matrix(1.00, 0.00, -0.00, -1.00, 249.8, 490.0)">E</text><text xml:space="preserve" font-family="Avenir-Heavy" font-weight="bold" font-size="45.0" fill="#5B5753" transform="matrix(1.00, 0.00, -0.00, -1.00, 277.3, 490.0)">G</text><text xml:space="preserve" font-family="Avenir-Heavy" font-weight="bold" font-size="45.0" fill="#5B5753" transform="matrix(1.00, 0.00, -0.00, -1.00, 312.4, 490.0)">U</text><text xml:space="preserve" font-family="Avenir-Heavy" font-weight="bold" font-size="45.0" fill="#5B5753" transform="matrix(1.00, 0.00, -0.00, -1.00, 344.8, 490.0)">N</text><text xml:space="preserve" font-family="Avenir-Heavy" font-weight="bold" font-size="45.0" fill="#5B5753" transform="matrix(1.00, 0.00, -0.00, -1.00, 380.7, 490.0)">T</text><text xml:space="preserve" font-family="Avenir-Heavy" font-weight="bold" font-size="45.0" fill="#5B5753" transform="matrix(1.00, 0.00, -0.00, -1.00, 402.4, 490.0)">A</text><text xml:space="preserve" font-family="Avenir-Heavy" font-weight="bold" font-size="45.0" fill="#5B5753" transform="matrix(1.00, 0.00, -0.00, -1.00, 434.8, 490.0)">S</text><text xml:space="preserve" font-family="Avenir-Heavy" font-weight="bold" font-size="45.0" fill="#5B5753" transform="matrix(1.00, 0.00, -0.00, -1.00, 460.7, 490.0)"> </text><text xml:space="preserve" font-family="Avenir-Heavy" font-weight="bold" font-size="45.0" fill="#5B5753" transform="matrix(1.00, 0.00, -0.00, -1.00, 474.0, 490.0)">Y</text><text xml:space="preserve" font-family="Avenir-Heavy" font-weight="bold" font-size="45.0" fill="#5B5753" transform="matrix(1.00, 0.00, -0.00, -1.00, 502.3, 490.0)"> </text><text xml:space="preserve" font-family="Avenir-Heavy" font-weight="bold" font-size="45.0" fill="#5B5753" transform="matrix(1.00, 0.00, -0.00, -1.00, 515.7, 490.0)">S</text><text xml:space="preserve" font-family="Avenir-Heavy" font-weight="bold" font-size="45.0" fill="#5B5753" transform="matrix(1.00, 0.00, -0.00, -1.00, 541.5, 490.0)">U</text><text xml:space="preserve" font-family="Avenir-Heavy" font-weight="bold" font-size="45.0" fill="#5B5753" transform="matrix(1.00, 0.00, -0.00, -1.00, 574.0, 490.0)">G</text><text xml:space="preserve" font-family="Avenir-Heavy" font-weight="bold" font-size="45.0" fill="#5B5753" transform="matrix(1.00, 0.00, -0.00, -1.00, 609.0, 490.0)">E</text><text xml:space="preserve" font-family="Avenir-Heavy" font-weight="bold" font-size="45.0" fill="#5B5753" transform="matrix(1.00, 0.00, -0.00, -1.00, 636.5, 490.0)">R</text><text xml:space="preserve" font-family="Avenir-Heavy" font-weight="bold" font-size="45.0" fill="#5B5753" transform="matrix(1.00, 0.00, -0.00, -1.00, 664.8, 490.0)">E</text><text xml:space="preserve" font-family="Avenir-Heavy" font-weight="bold" font-size="45.0" fill="#5B5753" transform="matrix(1.00, 0.00, -0.00, -1.00, 692.3, 490.0)">N</text><text xml:space="preserve" font-family="Avenir-Heavy" font-weight="bold" font-size="45.0" fill="#5B5753" transform="matrix(1.00, 0.00, -0.00, -1.00, 728.2, 490.0)">C</text><text xml:space="preserve" font-family="Avenir-Heavy" font-weight="bold" font-size="45.0" fill="#5B5753" transform="matrix(1.00, 0.00, -0.00, -1.00, 759.0, 490.0)">I</text><text xml:space="preserve" font-family="Avenir-Heavy" font-weight="bold" font-size="45.0" fill="#5B5753" transform="matrix(1.00, 0.00, -0.00, -1.00, 771.5, 490.0)">A</text><text xml:space="preserve" font-family="Avenir-Heavy" font-weight="bold" font-size="45.0" fill="#5B5753" transform="matrix(1.00, 0.00, -0.00, -1.00, 804.0, 490.0)">S</text><image xlink:href="8CF484C0EF4407F408A16EA93880A6EA.png" width="233.00" height="472.00" transform="matrix(1.00, 0.00, -0.00, -1.00, 395.7, 514.8)"></image><image xlink:href="AC8CBFD378EAB4FD3A6C8FCBC25F6E94.png" width="152.00" height="245.00" transform="matrix(1.00, 0.00, -0.00, -1.00, 436.0, 402.0)"></image></g></svg>