<?xml version="1.0" encoding="UTF-8" standalone="no"?><svg xmlns="http://www.w3.org/2000/svg" xmlns:xlink="http://www.w3.org/1999/xlink" clip-rule="evenodd" stroke-miterlimit="4.00" viewBox="0 0 1024 768"><desc>SVG generated by Keynote</desc><defs></defs><g transform="matrix(1.00, 0.00, -0.00, -1.00, 0.0, 768.0)"><g><clipPath id="clip-806"><path d="M 0.0 768.0 L 1024.0 768.0 L 1024.0 0.0 L 0.0 0.0 Z M 0.0 768.0 "></path></clipPath><g clip-path="url(#clip-806)"><image xlink:href="../../7D75CC22-08E6-46FA-89F4-20BC499AD49E/assets/D52BF74205EDDA1E3AD886EF31563845.jpeg" width="1024.00" height="768.00" transform="matrix(1.00, 0.00, -0.00, -1.00, 0.0, 768.0)"></image></g></g><text xml:space="preserve" font-family="Futura-Medium" font-size="39.6" fill="#5B5753" transform="matrix(1.00, 0.00, -0.00, -1.00, 187.0, 677.0)">D</text><text xml:space="preserve" font-family="Futura-Medium" font-size="39.6" fill="#5B5753" transform="matrix(1.00, 0.00, -0.00, -1.00, 216.5, 677.0)">R</text><text xml:space="preserve" font-family="Futura-Medium" font-size="39.6" fill="#5B5753" transform="matrix(1.00, 0.00, -0.00, -1.00, 241.2, 677.0)">F</text><text xml:space="preserve" font-family="Futura-Medium" font-size="39.6" fill="#5B5753" transform="matrix(1.00, 0.00, -0.00, -1.00, 263.3, 677.0)">-</text><text xml:space="preserve" font-family="Futura-Medium" font-size="39.6" fill="#5B5753" transform="matrix(1.00, 0.00, -0.00, -1.00, 272.7, 677.0)">S</text><text xml:space="preserve" font-family="Futura-Medium" font-size="39.6" fill="#5B5753" transform="matrix(1.00, 0.00, -0.00, -1.00, 296.5, 677.0)">W</text><text xml:space="preserve" font-family="Futura-Medium" font-size="39.6" fill="#5B5753" transform="matrix(1.00, 0.00, -0.00, -1.00, 336.7, 677.0)">A</text><text xml:space="preserve" font-family="Futura-Medium" font-size="39.6" fill="#5B5753" transform="matrix(1.00, 0.00, -0.00, -1.00, 365.4, 677.0)">G</text><text xml:space="preserve" font-family="Futura-Medium" font-size="39.6" fill="#5B5753" transform="matrix(1.00, 0.00, -0.00, -1.00, 399.6, 677.0)">G</text><text xml:space="preserve" font-family="Futura-Medium" font-size="39.6" fill="#5B5753" transform="matrix(1.00, 0.00, -0.00, -1.00, 433.7, 677.0)">E</text><text xml:space="preserve" font-family="Futura-Medium" font-size="39.6" fill="#5B5753" transform="matrix(1.00, 0.00, -0.00, -1.00, 456.9, 677.0)">R</text><text xml:space="preserve" font-family="Futura-Medium" font-size="39.6" fill="#5B5753" transform="matrix(1.00, 0.00, -0.00, -1.00, 482.1, 677.0)">-</text><text xml:space="preserve" font-family="Futura-Medium" font-size="39.6" fill="#5B5753" transform="matrix(1.00, 0.00, -0.00, -1.00, 491.5, 677.0)">C</text><text xml:space="preserve" font-family="Futura-Medium" font-size="39.6" fill="#5B5753" transform="matrix(1.00, 0.00, -0.00, -1.00, 520.1, 677.0)">U</text><text xml:space="preserve" font-family="Futura-Medium" font-size="39.6" fill="#5B5753" transform="matrix(1.00, 0.00, -0.00, -1.00, 550.1, 677.0)">S</text><text xml:space="preserve" font-family="Futura-Medium" font-size="39.6" fill="#5B5753" transform="matrix(1.00, 0.00, -0.00, -1.00, 574.6, 677.0)">T</text><text xml:space="preserve" font-family="Futura-Medium" font-size="39.6" fill="#5B5753" transform="matrix(1.00, 0.00, -0.00, -1.00, 593.5, 677.0)">O</text><text xml:space="preserve" font-family="Futura-Medium" font-size="39.6" fill="#5B5753" transform="matrix(1.00, 0.00, -0.00, -1.00, 629.7, 677.0)">M</text><text xml:space="preserve" font-family="Futura-Medium" font-size="39.6" fill="#5B5753" transform="matrix(1.00, 0.00, -0.00, -1.00, 668.5, 677.0)">I</text><text xml:space="preserve" font-family="Futura-Medium" font-size="39.6" fill="#5B5753" transform="matrix(1.00, 0.00, -0.00, -1.00, 681.0, 677.0)">Z</text><text xml:space="preserve" font-family="Futura-Medium" font-size="39.6" fill="#5B5753" transform="matrix(1.00, 0.00, -0.00, -1.00, 706.6, 677.0)">A</text><text xml:space="preserve" font-family="Futura-Medium" font-size="39.6" fill="#5B5753" transform="matrix(1.00, 0.00, -0.00, -1.00, 735.0, 677.0)">T</text><text xml:space="preserve" font-family="Futura-Medium" font-size="39.6" fill="#5B5753" transform="matrix(1.00, 0.00, -0.00, -1.00, 754.9, 677.0)">I</text><text xml:space="preserve" font-family="Futura-Medium" font-size="39.6" fill="#5B5753" transform="matrix(1.00, 0.00, -0.00, -1.00, 767.4, 677.0)">O</text><text xml:space="preserve" font-family="Futura-Medium" font-size="39.6" fill="#5B5753" transform="matrix(1.00, 0.00, -0.00, -1.00, 803.5, 677.0)">N</text><image xlink:href="../../55C977E7-C1CB-4EFF-98C3-E33FE7C514AA/assets/89E446C101E4BE720A486711D20C79E3.png" width="490.00" height="333.00" transform="matrix(1.00, 0.00, -0.00, -1.00, 231.4, 625.4)"></image><image xlink:href="../../55C977E7-C1CB-4EFF-98C3-E33FE7C514AA/assets/CD25AA502D1247624930702B78E67ACA.png" width="410.00" height="158.00" transform="matrix(1.00, 0.00, -0.00, -1.00, 271.0, 539.0)"></image><g><clipPath id="clip-807"><path d="M 720.5 453.9 L 720.5 471.9 L 667.5 442.4 L 694.0 427.7 L 720.5 412.9 L 720.5 430.9 L 752.6 430.9 L 752.6 453.9 L 720.5 453.9 Z M 720.5 453.9 "></path></clipPath><g clip-path="url(#clip-807)"><image xlink:href="../../61E1D1BF-734C-4427-90AC-6BF0BE1CCE8F/assets/A613CBD157D3E31D5C35BA5BED8B98F2.jpeg" width="372.00" height="372.00" transform="matrix(-0.50, 0.00, 0.00, 0.50, 752.6, 412.9)"></image><path d="M 752.6 412.9 L 667.5 412.9 L 667.5 471.9 L 752.6 471.9 Z M 752.6 412.9 " fill="#F14C3D" fill-opacity="0.46"></path></g></g><image xlink:href="../../55C977E7-C1CB-4EFF-98C3-E33FE7C514AA/assets/7178B58C6E7D7BF311FCB5D8A5C4D222.png" width="947.00" height="320.00" transform="matrix(1.00, 0.00, -0.00, -1.00, 38.7, 418.4)"></image><image xlink:href="../../55C977E7-C1CB-4EFF-98C3-E33FE7C514AA/assets/DFF9575A39E96573EC5B6BD820653BDD.png" width="867.00" height="150.00" transform="matrix(1.00, 0.00, -0.00, -1.00, 79.0, 334.0)"></image><path d="M 96.2 191.3 C 96.0 191.4 95.8 191.5 95.5 191.7 C 95.7 191.6 95.8 191.7 95.9 191.8 C 96.1 191.6 96.4 191.4 97.0 191.2 C 96.9 191.1 96.7 191.2 96.5 191.3 C 96.3 191.4 96.3 191.3 96.2 191.3 C 96.2 191.3 96.2 191.3 96.2 191.3 Z M 80.6 250.5 C 80.2 250.0 80.4 250.7 80.6 250.8 C 80.6 250.8 80.7 250.8 80.8 251.0 C 80.7 251.1 80.3 250.8 80.1 250.6 C 79.2 249.4 80.2 250.0 80.6 250.5 C 80.6 250.5 80.6 250.5 80.6 250.5 Z M 142.1 261.3 C 143.1 260.8 141.9 261.1 141.8 261.1 C 142.2 260.8 141.7 260.6 142.2 260.3 C 142.4 260.4 142.6 260.3 142.8 260.4 C 142.5 260.5 142.2 260.7 142.2 260.8 C 142.5 260.6 142.9 260.4 143.1 260.4 C 142.3 260.9 143.0 260.7 143.2 260.8 C 142.6 261.1 142.5 261.4 142.1 261.3 C 142.1 261.3 142.1 261.3 142.1 261.3 Z M 163.3 215.8 C 163.4 216.1 163.4 216.3 163.3 216.3 C 163.2 216.0 163.1 215.8 163.1 215.6 C 163.0 215.6 162.9 215.7 162.8 215.5 C 162.9 215.1 163.2 215.1 163.4 215.2 C 163.2 215.3 163.7 216.3 163.3 215.8 C 163.3 215.8 163.3 215.8 163.3 215.8 Z M 144.8 194.9 C 144.0 194.4 144.5 195.2 143.8 194.7 C 143.9 194.5 143.9 194.2 144.5 194.5 C 144.5 194.6 144.7 194.8 144.8 194.9 C 144.8 194.9 144.8 194.9 144.8 194.9 Z M 115.1 264.6 C 115.1 264.8 115.8 264.7 115.6 264.9 C 115.3 264.9 115.0 264.9 114.7 264.9 C 114.6 264.7 114.7 264.6 115.1 264.6 C 115.1 264.6 115.1 264.6 115.1 264.6 Z M 147.2 255.6 C 148.2 255.2 148.9 254.2 148.8 254.6 C 149.3 254.6 148.6 255.6 148.5 255.4 C 148.2 255.2 146.5 256.1 147.2 255.6 C 147.2 255.6 147.2 255.6 147.2 255.6 Z M 87.7 251.7 C 88.5 252.6 88.8 251.9 89.1 252.6 C 88.9 252.5 88.8 252.5 88.7 252.5 C 88.8 252.6 89.0 252.7 89.0 252.8 C 88.5 252.5 88.0 252.2 87.7 251.7 C 87.7 251.7 87.7 251.7 87.7 251.7 Z M 112.6 187.4 C 112.8 187.4 112.9 187.3 112.8 187.2 C 113.6 187.2 113.6 187.0 114.1 187.1 C 114.1 187.4 113.5 187.4 112.9 187.4 C 112.8 187.5 112.6 187.5 112.6 187.4 C 112.6 187.4 112.6 187.4 112.6 187.4 Z M 133.9 190.2 C 134.0 190.0 133.5 189.8 134.2 189.9 C 134.9 190.4 134.2 190.4 133.4 190.3 C 133.3 190.4 133.3 190.5 133.3 190.6 C 133.6 190.7 133.8 190.8 133.9 190.9 C 134.2 190.6 134.5 191.4 135.7 191.6 C 135.1 191.5 135.6 192.0 135.0 191.6 C 135.1 191.9 134.6 191.7 134.6 192.0 C 135.0 191.9 135.7 192.2 135.6 191.9 C 136.0 192.0 136.3 192.1 136.5 192.3 C 136.7 192.6 135.8 192.1 136.0 192.4 C 136.2 192.5 136.2 192.6 136.4 192.6 C 136.5 192.6 136.4 192.4 136.7 192.5 C 137.4 192.8 136.4 192.7 137.4 193.1 C 137.6 193.0 137.3 192.9 137.3 192.7 C 137.8 192.8 137.8 193.0 138.3 193.0 C 138.3 193.2 137.9 193.1 138.2 193.2 C 138.6 193.0 139.0 193.8 139.7 193.8 C 139.5 193.1 139.8 193.9 140.5 193.7 C 140.6 193.9 140.1 194.0 140.5 194.3 C 140.6 193.6 142.5 194.7 141.2 193.5 C 142.0 193.9 142.5 193.6 141.8 193.2 C 143.2 194.0 142.9 193.5 143.5 193.8 C 144.0 194.1 143.1 193.7 143.3 194.1 C 142.7 193.7 142.8 193.9 142.5 193.6 C 142.4 193.7 142.3 193.7 142.1 193.7 C 142.8 193.9 143.3 194.5 142.8 194.6 C 142.5 194.4 142.9 194.3 142.5 194.1 C 142.5 194.5 142.1 193.8 142.0 194.0 C 142.1 194.4 141.2 194.2 141.9 194.7 C 142.0 194.6 142.0 194.4 142.1 194.3 C 142.3 194.4 142.5 194.5 142.7 194.6 C 142.8 195.0 142.6 195.0 142.7 195.2 C 143.1 195.4 143.3 195.4 143.4 195.4 C 143.0 195.1 142.6 194.6 143.4 195.0 C 142.9 195.3 144.3 195.6 143.6 195.6 C 144.3 196.1 144.9 196.0 144.8 196.3 C 145.2 196.6 145.0 196.2 145.5 196.5 C 146.1 197.2 146.2 196.8 147.1 197.6 C 147.4 197.4 147.1 197.7 147.4 198.0 C 147.5 197.8 147.6 197.7 147.6 197.6 C 147.9 198.0 148.6 198.7 149.5 199.1 C 149.7 199.3 149.4 199.4 149.9 199.7 C 150.7 199.9 151.2 200.8 152.1 201.2 C 152.0 201.3 152.5 201.8 152.8 201.9 C 152.8 202.1 152.3 202.0 152.7 202.4 C 153.2 202.5 152.7 202.0 153.4 202.5 C 153.1 202.6 154.0 202.9 153.9 203.1 C 153.6 203.0 153.4 202.8 153.1 202.7 C 153.4 203.0 153.2 203.0 153.4 203.2 C 153.6 202.9 153.8 203.6 153.9 203.8 C 154.0 203.6 154.1 203.6 154.3 203.7 C 154.6 204.1 154.9 204.3 155.1 204.4 C 155.4 204.9 154.7 204.3 155.1 204.8 C 155.7 204.6 155.6 205.4 156.6 206.1 C 156.6 206.4 156.8 206.9 157.2 207.5 C 157.4 207.5 156.9 206.9 157.0 206.8 C 157.6 207.7 157.0 206.5 157.4 207.1 C 158.2 208.4 158.8 209.2 159.4 210.7 C 159.5 210.6 160.3 211.6 160.2 211.6 C 160.0 211.4 160.2 212.4 160.4 212.8 C 160.8 212.8 161.5 213.4 161.7 213.3 C 161.6 213.6 161.6 213.5 161.3 213.8 C 161.5 214.6 162.0 214.9 161.8 215.6 C 162.0 215.5 162.2 215.8 162.4 216.1 C 162.2 216.1 162.0 216.0 161.8 215.8 C 161.9 216.3 161.8 216.4 162.0 216.7 C 162.8 216.9 162.1 217.8 162.9 217.9 C 163.1 218.6 162.8 218.5 162.9 219.1 C 163.1 219.1 163.2 219.1 163.3 219.3 C 163.1 218.9 162.9 218.6 163.1 218.4 C 163.4 219.2 163.2 216.5 163.9 217.9 C 163.8 218.0 163.6 217.9 163.7 218.2 C 164.0 219.0 164.1 218.4 164.0 218.1 C 164.3 218.6 164.3 219.3 164.5 218.7 C 164.9 220.0 164.5 219.2 164.5 219.7 C 165.2 222.0 165.6 225.0 165.2 228.2 C 165.5 228.4 165.1 230.1 164.9 230.6 C 165.0 231.5 164.9 232.5 164.6 232.7 C 164.8 232.9 164.2 233.7 164.4 233.9 C 164.5 233.5 164.7 233.3 164.6 233.7 C 164.2 235.0 163.6 236.8 163.6 237.6 C 163.1 238.0 162.9 238.8 162.8 239.4 C 162.7 239.5 162.8 239.0 162.6 239.4 C 162.7 239.5 162.4 240.8 162.1 241.0 C 162.3 240.6 162.1 240.1 161.9 240.6 C 162.0 240.7 161.7 241.3 162.0 241.2 C 161.5 241.9 161.4 242.4 161.0 242.9 C 161.2 242.4 161.3 242.1 161.2 241.9 C 161.1 242.4 161.0 242.8 160.6 243.0 C 161.0 243.1 160.4 243.7 160.2 244.4 C 160.0 244.6 159.8 244.6 159.4 245.2 C 159.4 245.6 160.2 244.5 159.8 245.1 C 159.7 245.1 159.3 245.6 159.6 245.6 C 159.0 246.2 158.9 246.7 158.3 247.1 C 158.9 246.5 158.2 246.8 158.0 247.0 C 157.9 247.1 157.7 247.4 157.8 247.4 C 157.9 247.5 158.1 247.1 158.2 247.1 C 157.8 247.5 158.0 247.9 157.7 248.0 C 157.9 247.7 157.8 247.6 157.6 247.9 C 157.8 248.2 156.5 249.4 156.7 248.8 C 156.8 248.9 157.2 248.3 157.2 248.2 C 157.0 248.3 156.4 249.2 156.4 248.9 C 156.7 248.4 156.8 248.5 157.2 247.9 C 157.1 247.8 157.3 247.4 157.4 247.1 C 156.8 248.0 156.8 248.4 156.5 248.3 C 156.2 248.7 156.6 248.7 156.0 249.3 C 155.2 250.1 155.7 249.2 155.4 249.4 C 154.8 250.3 155.3 250.2 155.8 250.1 C 155.2 250.7 155.1 251.0 154.4 251.7 C 154.3 251.5 154.3 251.3 154.5 251.0 C 154.6 251.1 155.3 250.6 155.1 250.5 C 154.8 250.3 154.2 250.7 153.5 251.5 C 153.9 251.5 153.8 251.4 153.0 252.1 C 153.4 252.3 152.6 252.4 152.7 252.6 C 152.8 252.6 153.1 252.4 153.3 252.1 C 153.4 252.2 153.4 252.4 153.2 252.7 C 152.9 252.8 152.9 253.0 152.3 253.4 C 152.2 253.3 152.5 252.9 152.5 252.7 C 152.2 253.0 152.2 253.1 152.0 253.4 C 151.6 253.4 151.4 253.2 151.2 252.9 C 151.5 252.6 151.9 252.1 151.4 252.4 C 152.6 251.3 151.6 252.7 152.1 252.3 C 152.3 251.6 152.4 252.2 153.1 251.5 C 153.3 251.3 153.3 251.1 153.3 251.0 C 153.3 251.0 152.7 251.2 153.1 250.8 C 153.3 250.8 153.7 250.6 154.1 250.3 C 154.0 250.2 153.1 250.9 153.9 250.1 C 154.3 249.7 154.2 250.3 154.6 249.7 C 154.6 249.7 154.7 249.5 154.7 249.4 C 154.0 250.2 154.7 249.2 154.1 249.6 C 154.6 248.9 154.4 249.7 154.8 249.2 C 154.7 249.1 155.5 248.6 155.3 248.3 C 155.2 248.7 154.7 249.2 154.6 249.0 C 155.0 248.5 156.7 246.1 156.3 247.2 C 156.5 246.8 157.4 244.9 157.5 245.1 C 157.1 245.6 157.3 245.7 157.4 245.8 C 157.8 244.7 158.3 244.3 158.7 243.0 C 157.9 244.2 158.1 243.1 157.5 243.7 C 157.4 244.0 157.0 244.4 157.1 244.5 C 157.4 244.5 157.6 244.0 157.6 243.7 C 157.8 243.8 158.0 244.0 158.1 244.1 C 157.1 245.3 156.8 246.1 156.3 246.6 C 156.7 246.1 155.3 247.4 155.7 246.7 C 156.0 246.6 156.5 246.0 156.9 245.5 C 156.8 245.5 156.8 245.4 156.7 245.4 C 156.8 245.2 157.1 244.8 157.0 244.8 C 156.6 245.5 156.1 245.7 155.9 246.3 C 155.9 246.3 155.8 246.3 155.8 246.2 C 155.7 246.3 155.6 246.4 155.6 246.4 C 155.7 246.1 156.0 245.8 156.0 245.7 C 155.5 246.2 155.3 246.2 154.8 246.7 C 154.7 246.4 153.9 246.9 154.4 246.0 C 154.7 246.1 155.1 245.7 155.2 245.8 C 155.5 245.6 155.8 245.1 155.8 244.8 C 155.5 244.9 155.1 245.4 154.9 245.3 C 155.2 244.9 155.3 244.5 155.6 244.4 C 155.2 245.3 156.1 244.1 156.6 243.9 C 156.4 243.9 156.2 244.1 156.0 244.1 C 156.4 243.5 156.8 243.3 156.5 243.1 C 156.9 242.2 157.0 242.5 157.3 242.0 C 156.9 242.2 157.4 241.6 156.9 241.7 C 157.4 240.8 157.3 241.6 157.5 241.3 C 157.7 241.0 157.6 240.9 157.7 240.7 C 158.1 240.3 158.5 239.5 158.8 239.5 C 159.0 239.1 159.1 239.1 159.2 238.7 C 159.2 238.6 159.2 238.4 159.2 238.2 C 159.3 238.2 159.5 238.0 159.4 237.8 C 158.7 238.7 158.8 238.4 158.1 239.4 C 158.1 239.5 158.1 239.7 158.3 239.5 C 158.0 240.2 157.7 240.4 157.4 241.0 C 157.2 241.0 156.8 241.0 156.7 241.6 C 156.6 241.4 156.4 241.5 156.5 241.2 C 156.8 241.0 157.1 240.6 157.4 240.2 C 157.3 240.2 157.1 240.2 157.2 240.0 C 157.5 239.8 157.7 239.5 157.7 239.2 C 157.8 239.2 157.8 239.4 157.8 239.5 C 158.3 238.6 157.9 238.8 158.4 238.1 C 158.2 238.2 158.0 238.6 158.0 238.2 C 158.2 237.5 158.4 237.4 158.6 237.1 C 158.6 237.0 158.4 237.0 158.5 236.8 C 158.9 236.4 158.6 238.0 159.2 237.3 C 159.0 237.2 159.4 236.3 159.6 236.3 C 159.6 236.6 159.2 237.0 159.3 237.1 C 159.9 235.6 159.8 237.2 160.3 235.6 C 160.2 235.6 160.1 235.6 160.0 235.5 C 159.9 236.2 159.7 236.1 159.5 236.0 C 159.3 236.6 158.9 236.7 158.9 237.2 C 158.5 236.8 159.0 236.7 159.2 236.2 C 159.0 236.1 158.8 236.6 158.6 236.6 C 159.2 235.4 159.0 235.1 159.7 233.9 C 159.3 234.1 159.8 233.2 159.6 233.3 C 159.4 234.3 158.8 233.7 158.7 233.9 C 158.5 234.6 159.0 234.4 159.1 234.8 C 158.8 235.0 158.7 234.8 158.4 234.6 C 158.6 234.1 158.6 234.1 158.6 233.6 C 158.9 233.3 159.4 233.0 159.4 233.6 C 159.4 233.5 159.4 232.7 159.6 232.6 C 159.4 233.4 159.8 232.6 159.8 233.1 C 160.1 232.5 160.0 231.4 160.3 230.7 C 160.1 230.7 160.1 230.4 160.0 230.4 C 160.1 231.2 159.6 231.3 159.4 232.0 C 159.5 231.7 159.3 231.8 159.2 231.9 C 159.4 231.3 159.3 230.9 159.6 230.4 C 159.5 230.4 159.4 230.4 159.4 230.4 C 159.7 229.5 159.6 229.6 159.4 229.0 C 159.6 228.7 160.0 229.1 160.2 229.2 C 160.1 228.9 160.2 227.8 159.9 228.4 C 160.0 227.7 160.3 227.9 160.3 227.2 C 160.0 227.2 160.0 227.8 159.7 227.6 C 159.7 227.0 160.0 227.3 159.8 226.8 C 160.0 226.8 160.2 226.8 160.2 226.2 C 160.0 226.6 160.1 226.2 160.0 226.0 C 159.9 226.3 159.9 226.5 159.8 226.6 C 159.9 225.6 159.8 225.4 159.7 224.6 C 160.0 224.9 160.1 224.5 160.2 225.0 C 160.0 224.5 160.3 223.8 160.1 223.6 C 160.0 223.9 160.1 224.4 160.0 224.6 C 159.8 223.0 159.3 222.3 159.4 220.8 C 159.5 221.1 159.5 221.4 159.6 221.4 C 159.6 221.3 159.5 221.0 159.6 221.0 C 159.7 221.5 159.8 221.9 159.9 222.2 C 159.9 222.6 159.7 222.0 159.7 222.4 C 159.9 222.5 159.8 223.3 160.1 223.0 C 159.8 222.2 159.9 221.5 160.2 221.1 C 159.6 220.5 159.8 221.1 159.1 220.5 C 159.3 220.5 159.3 220.3 159.3 220.0 C 159.0 220.3 158.9 219.4 158.9 219.3 C 159.2 219.6 159.7 220.9 159.8 220.1 C 159.3 220.6 159.5 218.5 159.2 219.0 C 158.9 218.2 159.3 218.4 158.9 218.0 C 158.9 217.9 159.1 218.0 159.0 217.7 C 158.9 217.5 158.8 217.5 158.7 217.4 C 159.0 218.6 158.6 218.3 158.8 219.1 C 158.7 219.0 158.7 218.9 158.6 218.9 C 158.6 218.9 158.5 218.9 158.5 218.8 C 158.8 218.6 158.3 218.2 158.4 217.9 C 158.5 218.2 158.6 218.4 158.7 218.3 C 158.3 217.3 158.7 217.4 158.3 216.0 C 158.3 216.5 158.1 215.9 157.8 215.5 C 157.6 214.8 158.1 214.9 157.7 214.2 C 157.1 214.5 157.3 213.3 156.5 212.6 C 156.8 212.5 156.2 211.3 155.9 211.2 C 155.9 211.1 155.6 210.7 155.4 210.4 C 155.5 210.3 155.8 210.6 155.6 210.3 C 155.4 210.1 155.4 210.4 155.1 210.1 C 154.9 209.7 155.2 209.6 154.8 209.0 C 154.6 209.1 154.8 209.4 154.5 209.2 C 154.2 208.6 153.8 208.2 154.0 208.7 C 153.4 208.0 154.0 208.1 153.4 207.4 C 153.5 207.7 153.4 207.7 153.1 207.4 C 153.0 207.0 153.1 206.9 153.1 206.8 C 152.7 206.7 152.8 206.8 152.3 206.2 C 152.3 206.3 152.2 206.3 152.1 206.4 C 151.9 206.1 151.5 205.8 151.5 205.7 C 151.9 206.2 152.0 205.9 152.2 206.0 C 151.8 205.5 151.1 204.5 151.5 205.3 C 150.8 204.8 151.4 204.8 150.8 204.4 C 151.0 204.9 150.8 204.4 150.2 203.9 C 150.1 204.2 149.8 203.6 149.5 203.3 C 149.4 203.5 149.2 203.5 148.9 203.3 C 149.0 203.2 148.8 202.9 148.4 202.7 C 148.4 202.7 149.1 203.5 148.3 202.8 C 148.0 202.4 148.2 202.3 147.7 201.8 C 147.7 201.5 148.2 202.1 148.3 201.8 C 147.7 201.6 147.7 201.4 147.0 200.8 C 147.0 201.4 145.3 200.4 146.0 201.1 C 145.8 200.9 145.3 201.0 145.2 200.6 C 145.5 200.8 145.2 200.3 145.3 200.3 C 144.9 200.1 144.2 199.5 144.1 199.6 C 144.9 200.0 144.7 200.2 144.9 200.5 C 143.8 199.9 142.9 199.3 143.1 199.1 C 143.1 199.2 142.9 199.1 142.9 199.1 C 143.2 199.3 143.3 199.8 142.8 199.6 C 143.1 199.4 142.8 199.2 142.5 198.9 C 142.4 199.1 141.1 198.0 141.2 198.5 C 141.9 198.6 142.1 199.2 141.6 199.1 C 141.4 198.7 140.7 198.2 141.0 198.1 C 140.7 198.0 140.5 198.0 140.3 198.0 C 140.0 198.1 140.4 198.3 140.3 198.4 C 140.0 198.3 139.5 198.1 139.5 198.0 C 140.3 198.3 139.2 197.6 140.1 197.9 C 139.6 197.6 139.5 197.5 139.1 197.2 C 139.1 197.3 138.9 197.3 138.9 197.3 C 139.3 197.3 139.6 197.6 139.4 197.8 C 138.6 197.5 138.9 197.3 138.3 197.0 C 138.0 197.1 137.1 197.1 136.7 196.7 C 137.5 197.1 136.7 196.6 137.3 196.7 C 137.9 197.1 138.2 197.0 138.6 196.9 C 138.3 196.6 137.7 196.3 137.5 196.5 C 137.9 196.7 138.0 196.6 138.2 196.7 C 138.1 196.8 138.0 196.8 137.7 196.8 C 137.4 196.5 136.6 196.3 137.2 196.2 C 136.6 196.1 136.1 195.7 135.5 195.7 C 136.1 195.9 136.5 196.2 136.6 196.4 C 136.1 196.3 135.7 195.9 135.6 196.0 C 135.6 196.3 136.4 196.5 136.5 196.7 C 135.8 196.7 135.1 195.7 135.7 196.5 C 135.3 196.3 134.8 196.1 134.7 196.0 C 135.2 196.1 134.8 195.6 134.6 195.5 C 134.2 195.4 133.9 195.3 133.8 195.4 C 134.4 195.5 134.7 195.9 134.3 195.8 C 134.2 195.7 134.1 195.8 133.9 195.8 C 133.9 195.6 133.2 195.5 133.1 195.3 C 133.1 195.5 133.4 195.6 133.4 195.7 C 133.0 195.6 132.4 195.8 132.2 195.4 C 132.4 195.5 132.7 195.6 132.8 195.5 C 131.8 194.8 131.5 194.5 130.3 194.0 C 130.4 194.0 130.5 194.0 130.5 193.9 C 129.7 193.7 129.1 193.4 129.3 193.3 C 128.7 193.2 128.4 193.3 128.1 193.4 C 128.7 193.6 128.9 193.4 129.2 193.7 C 129.0 193.7 129.5 194.2 129.7 194.4 C 130.7 194.4 130.6 194.8 131.6 194.9 C 131.3 195.1 132.3 195.2 131.9 195.3 C 131.2 194.7 130.3 194.8 129.0 194.4 C 129.3 194.2 129.4 194.1 128.9 193.8 C 128.1 193.6 128.5 194.0 127.8 193.8 C 127.6 193.5 128.0 193.6 127.6 193.4 C 127.4 193.5 126.8 193.4 126.6 193.1 C 127.5 193.3 126.4 192.9 127.1 192.8 C 126.8 192.8 126.6 192.7 126.4 192.7 C 127.2 193.1 125.5 192.9 126.1 193.2 C 124.9 193.1 126.1 192.6 125.1 192.5 C 125.6 192.7 124.9 192.7 124.2 192.6 C 124.0 192.3 123.2 192.2 122.6 192.1 C 122.9 192.3 123.2 192.3 122.6 192.4 C 122.9 192.5 123.4 192.6 123.7 192.5 C 123.7 192.6 123.8 192.7 123.9 192.7 C 123.2 192.7 123.5 192.9 123.2 192.9 C 123.0 192.8 122.5 192.8 122.4 192.6 C 122.3 192.7 122.1 192.7 122.1 192.8 C 123.1 192.8 121.9 193.1 122.5 193.2 C 122.9 193.2 122.7 192.9 123.2 193.0 C 123.7 193.4 122.8 193.3 122.5 193.5 C 122.9 193.7 123.5 193.4 123.6 193.8 C 123.0 194.0 122.1 193.7 121.4 193.6 C 121.4 193.9 120.2 193.5 120.1 193.9 C 120.0 193.8 119.8 193.7 119.6 193.6 C 119.4 193.9 119.2 193.5 119.0 193.5 C 119.0 193.7 119.0 193.8 119.2 193.8 C 118.3 193.7 118.1 193.7 117.0 193.9 C 116.8 193.7 116.6 193.6 116.6 193.4 C 116.8 193.3 117.0 193.3 117.2 193.2 C 115.8 193.2 116.7 193.9 115.7 193.5 C 115.7 193.6 116.4 193.9 115.9 194.0 C 115.0 193.7 113.7 194.1 113.7 193.4 C 112.9 193.3 112.4 193.8 111.9 193.6 C 111.7 193.6 111.6 193.7 111.5 193.8 C 111.8 193.9 112.1 194.0 112.4 194.1 C 112.9 193.9 113.1 194.1 112.6 193.8 C 113.3 193.7 113.6 193.8 114.0 193.9 C 113.0 194.2 112.0 194.1 112.0 194.4 C 111.7 194.3 111.4 194.2 111.1 194.1 C 111.0 194.3 109.9 194.5 109.8 194.3 C 110.6 194.2 111.3 193.8 110.6 193.8 C 108.8 194.2 107.6 194.0 106.1 194.7 C 106.0 194.6 106.1 194.4 105.8 194.5 C 105.8 194.6 105.8 194.7 105.7 194.8 C 105.2 194.9 104.8 194.9 104.2 195.2 C 104.2 194.9 104.0 194.8 103.6 194.9 C 103.5 195.2 103.0 195.8 102.5 195.9 C 102.9 195.7 102.3 195.6 102.0 195.7 C 102.4 196.0 100.1 196.2 100.8 196.3 C 100.0 196.6 99.6 196.6 99.5 196.5 C 99.2 196.7 99.1 196.9 98.8 197.0 C 98.5 196.8 97.2 197.7 96.9 197.7 C 97.4 197.5 97.4 197.1 97.0 197.4 C 96.8 197.7 95.7 198.5 95.4 198.6 C 95.4 198.4 95.4 198.2 96.0 197.8 C 94.9 198.3 95.1 198.6 94.9 199.0 C 94.8 198.7 94.5 199.2 94.3 199.4 C 93.9 199.4 94.3 199.3 94.2 199.1 C 93.8 199.3 93.6 199.2 93.2 199.5 C 93.4 199.7 92.8 199.9 92.6 199.9 C 92.7 200.1 92.5 200.4 92.1 200.7 C 92.4 200.0 89.6 202.0 90.4 201.7 C 90.0 202.3 89.7 201.9 89.0 202.5 C 89.0 202.7 88.6 203.0 89.0 202.8 C 88.5 203.3 88.6 202.8 88.0 203.5 C 88.5 203.4 87.3 204.1 87.7 204.2 C 87.1 204.1 86.9 205.1 86.1 205.4 C 86.2 205.4 86.1 205.6 86.1 205.6 C 86.1 205.8 86.9 205.1 86.4 205.6 C 85.7 206.1 86.0 205.7 85.8 205.7 C 84.4 207.3 82.8 209.2 81.5 211.0 C 81.8 210.8 81.8 210.9 81.6 211.3 C 80.9 211.6 79.9 213.9 79.9 214.3 C 79.5 214.4 79.3 215.6 79.1 215.8 C 79.2 215.5 79.1 215.0 78.9 215.5 C 79.1 215.9 78.7 216.2 78.8 216.8 C 78.4 216.9 78.2 218.4 78.0 217.6 C 77.9 217.9 77.8 218.0 77.7 218.2 C 78.0 218.3 77.8 218.6 78.1 218.1 C 77.5 219.3 77.7 219.7 77.3 220.7 C 77.4 220.9 77.7 220.1 77.6 220.7 C 77.5 220.7 77.5 220.7 77.4 220.7 C 77.4 220.9 77.5 221.0 77.3 221.1 C 77.2 221.0 77.3 220.7 77.0 220.6 C 77.0 221.1 76.6 221.4 76.8 221.6 C 77.0 220.9 77.3 221.5 77.0 221.9 C 77.0 221.5 76.8 223.5 76.9 224.1 C 76.6 224.4 76.9 223.4 76.7 223.5 C 76.6 224.7 76.5 224.6 76.8 224.8 C 76.7 225.4 76.5 225.6 76.7 226.4 C 76.5 226.8 76.5 226.1 76.4 226.6 C 76.5 226.9 76.6 227.0 76.7 227.4 C 76.2 228.5 77.2 231.0 76.7 232.4 C 76.8 231.8 77.1 232.5 77.2 233.1 C 77.1 233.2 77.0 233.1 77.0 233.4 C 77.2 233.3 77.3 233.5 77.4 233.9 C 77.3 234.0 77.1 234.0 77.2 234.2 C 77.5 234.3 77.4 234.9 77.6 235.2 C 77.4 235.4 77.3 234.5 77.1 234.5 C 77.2 235.6 77.5 235.7 77.7 236.5 C 77.5 236.1 77.6 236.9 77.6 237.0 C 77.8 236.7 78.1 237.3 78.1 236.8 C 78.2 237.1 78.4 237.5 78.3 237.6 C 78.2 237.5 78.1 237.2 78.1 237.3 C 78.3 237.6 78.2 238.2 78.5 238.3 C 78.4 238.0 78.4 237.8 78.5 237.8 C 78.7 237.8 78.8 237.9 78.9 238.1 C 78.1 237.8 79.1 239.3 79.3 239.3 C 79.0 239.6 79.0 239.7 78.9 239.7 C 79.2 240.5 79.4 240.2 79.6 240.6 C 79.3 240.6 79.1 240.6 79.3 241.3 C 79.5 241.0 79.9 241.8 80.0 241.4 C 81.0 242.9 80.9 243.4 81.6 244.4 C 81.7 244.3 81.5 244.0 81.7 244.3 C 82.0 244.7 82.2 245.2 82.3 245.6 C 82.6 245.7 82.4 245.3 82.7 245.5 C 83.0 246.4 82.7 246.4 83.0 247.1 C 83.7 247.7 83.4 247.5 84.0 247.8 C 83.8 247.6 83.7 247.3 84.0 247.5 C 84.2 248.1 84.1 248.5 84.2 248.6 C 83.9 248.3 83.7 248.0 83.6 247.8 C 83.4 247.8 83.0 247.4 83.2 247.9 C 82.9 247.4 82.5 246.8 81.9 246.1 C 81.9 246.5 81.4 245.6 81.4 246.0 C 82.0 246.7 82.0 247.0 82.6 247.7 C 82.7 247.3 83.3 248.2 83.3 248.4 C 83.5 248.3 83.9 248.8 83.9 248.5 C 84.4 249.0 84.3 249.2 84.9 249.7 C 84.8 249.8 84.7 249.8 84.9 250.0 C 85.2 250.0 85.2 250.4 85.3 250.6 C 85.4 250.3 86.1 251.1 86.3 251.0 C 86.1 250.8 85.8 250.6 85.8 250.5 C 86.6 251.3 86.1 250.5 86.1 250.2 C 86.0 250.3 85.5 250.2 85.6 250.0 C 86.4 250.6 84.9 248.7 85.4 249.4 C 85.9 250.0 86.0 249.8 86.5 250.4 C 86.9 251.4 85.9 250.8 86.4 251.7 C 87.0 251.9 87.2 252.2 87.4 252.1 C 87.5 252.2 87.5 252.4 87.7 252.6 C 88.0 252.6 87.3 251.9 87.9 252.3 C 88.1 252.6 87.6 252.6 88.2 253.0 C 88.6 253.1 87.7 252.3 88.2 252.6 C 88.5 253.4 88.2 252.4 88.9 252.9 C 88.9 253.0 89.0 253.1 89.2 253.3 C 89.1 253.4 88.9 253.5 89.2 253.7 C 89.5 253.4 89.3 254.0 89.8 254.3 C 90.3 254.2 89.4 253.8 89.7 253.7 C 90.1 254.3 90.6 254.3 90.8 254.5 C 90.2 254.3 91.4 255.1 91.4 255.3 C 91.4 255.0 91.6 255.3 92.4 255.5 C 92.2 255.9 93.1 256.1 93.1 256.5 C 93.2 256.5 93.5 256.5 93.6 256.5 C 93.4 256.3 93.2 256.2 93.3 256.1 C 93.5 256.2 93.7 256.3 93.9 256.4 C 94.1 256.8 93.0 256.8 94.4 257.5 C 94.4 257.1 95.0 257.4 95.4 257.5 C 95.5 257.2 94.9 257.2 94.9 257.0 C 95.4 257.1 95.8 257.5 96.0 257.8 C 96.9 258.1 97.8 258.7 99.0 259.1 C 99.2 259.3 97.9 258.8 98.7 259.3 C 99.0 259.4 98.9 259.1 99.3 259.4 C 98.5 260.2 102.5 260.8 102.6 261.2 C 102.8 261.1 103.9 261.5 103.8 261.2 C 103.1 261.2 102.7 260.7 102.4 260.5 C 101.7 260.4 102.9 260.9 102.3 260.8 C 102.2 260.6 101.3 260.4 101.5 260.3 C 102.4 260.6 101.1 259.9 101.8 259.9 C 102.7 260.2 104.5 260.5 104.0 260.7 C 104.0 260.6 103.6 260.5 103.6 260.5 C 104.5 261.0 105.2 260.9 105.6 260.9 C 106.0 261.2 107.9 261.3 107.4 261.3 C 107.5 261.5 106.3 261.0 106.5 261.3 C 108.3 261.8 108.4 261.6 109.6 262.0 C 109.2 261.6 110.9 261.8 110.8 261.9 C 110.7 262.1 111.1 262.3 111.9 262.2 C 111.7 262.4 112.1 262.5 112.5 262.7 C 112.7 262.5 112.2 262.4 112.3 262.2 C 112.7 262.3 113.1 262.3 113.5 262.4 C 113.5 262.5 113.4 262.6 113.7 262.6 C 114.1 262.5 115.7 262.4 115.5 262.5 C 114.9 262.8 116.6 262.9 115.5 263.0 C 115.8 263.0 115.8 263.1 116.2 263.1 C 116.2 263.0 116.2 262.9 116.2 262.8 C 117.1 262.8 116.6 263.2 117.3 263.2 C 117.4 263.1 117.7 263.1 117.8 263.0 C 117.5 263.0 117.5 263.1 117.1 263.1 C 117.6 262.7 116.4 262.8 116.4 262.6 C 117.2 262.6 117.2 262.8 117.6 262.9 C 118.6 262.8 118.1 262.9 119.2 262.9 C 119.2 262.8 118.9 262.8 119.0 262.7 C 120.3 262.8 120.2 263.3 121.1 263.0 C 120.9 263.1 120.0 263.3 120.6 263.3 C 121.2 263.2 121.4 262.9 122.2 262.8 C 122.2 262.9 122.2 263.0 122.5 263.0 C 122.8 262.9 122.8 262.7 123.1 262.6 C 123.2 262.7 123.6 262.6 123.8 262.5 C 124.1 262.7 123.7 262.8 124.1 262.8 C 124.7 262.7 125.0 262.1 125.6 262.2 C 125.6 262.5 126.2 262.3 126.8 262.1 C 126.9 262.4 128.1 262.2 128.9 262.1 C 128.6 261.9 129.5 261.8 129.2 261.6 C 128.9 261.7 128.6 261.7 128.5 261.6 C 129.4 261.4 129.8 261.8 130.3 261.3 C 130.7 261.4 131.2 261.4 131.8 261.3 C 131.8 261.2 130.7 261.4 131.3 261.1 C 131.3 261.2 131.5 261.1 131.7 261.0 C 131.7 261.3 132.2 261.3 132.5 261.3 C 133.0 261.0 134.1 261.0 133.5 260.8 C 134.3 260.5 133.9 261.1 134.6 260.9 C 134.1 260.7 135.2 260.3 134.6 260.3 C 135.4 260.0 135.5 260.4 135.2 260.7 C 136.0 260.5 136.1 260.2 136.5 260.2 C 136.1 260.1 137.2 259.5 136.6 259.9 C 136.5 260.2 137.4 259.7 137.6 259.8 C 137.2 259.7 137.6 259.6 137.0 259.6 C 137.6 259.4 138.4 259.0 139.0 259.0 C 139.6 258.6 140.3 258.2 140.1 258.6 C 140.7 258.2 140.5 258.4 141.1 258.1 C 141.1 258.0 140.9 258.1 140.8 258.1 C 141.7 257.6 141.6 257.9 142.8 257.2 C 142.8 257.6 143.5 257.2 143.8 257.2 C 143.3 257.5 142.9 257.6 142.5 257.8 C 142.5 257.9 142.9 257.8 142.6 258.0 C 142.5 257.9 142.3 258.0 142.1 258.0 C 143.0 257.9 141.4 258.9 141.8 258.4 C 141.8 258.4 141.9 258.5 142.0 258.4 C 141.8 258.2 141.8 258.3 141.8 258.0 C 141.5 258.3 141.0 258.1 141.0 258.4 C 141.1 258.5 141.4 258.3 141.5 258.4 C 140.6 259.0 141.1 258.2 140.4 258.6 C 140.3 259.0 140.7 258.8 141.0 258.9 C 140.3 259.2 139.7 259.5 139.4 259.4 C 138.8 259.8 139.6 259.6 139.1 259.9 C 138.9 259.9 138.8 259.7 138.4 259.9 C 137.9 260.2 138.7 260.0 138.2 260.2 C 137.7 260.3 138.5 259.7 137.7 260.0 C 138.0 260.3 136.9 260.2 137.1 260.4 C 137.5 260.2 137.6 260.5 137.3 260.4 C 136.1 260.5 135.7 261.6 134.4 261.4 C 134.5 261.5 134.3 261.5 134.3 261.6 C 135.1 261.5 136.3 261.1 136.7 261.4 C 137.3 261.1 137.1 260.9 137.2 260.8 C 138.1 260.8 138.0 260.8 137.7 261.4 C 136.4 261.9 135.8 261.9 134.9 262.1 C 134.5 262.4 135.0 262.2 135.2 262.2 C 132.5 262.9 134.7 262.9 133.7 263.1 C 133.7 263.0 133.5 263.0 133.2 263.0 C 133.3 263.1 132.8 263.2 132.8 263.3 C 133.0 263.3 133.1 263.3 133.1 263.4 C 132.4 263.7 132.6 263.3 132.5 263.2 C 133.1 263.1 133.4 263.0 133.4 262.8 C 132.8 263.1 132.2 263.0 131.8 263.4 C 131.1 263.2 132.0 262.6 131.6 262.5 C 131.7 262.3 131.3 263.2 130.8 263.4 C 130.0 263.6 130.0 263.8 129.2 264.0 C 129.0 263.8 130.0 263.7 129.9 263.5 C 129.7 263.6 129.6 263.5 129.4 263.5 C 128.9 263.7 128.9 263.9 128.5 264.0 C 128.2 263.8 128.1 264.0 127.8 264.2 C 127.3 264.1 128.1 263.9 127.5 264.0 C 127.0 264.0 126.6 264.4 126.4 264.4 C 126.3 264.3 126.4 264.2 126.1 264.2 C 125.5 264.5 125.3 264.5 126.2 264.5 C 125.4 264.6 125.1 264.7 125.3 265.0 C 126.4 264.8 126.7 264.8 127.2 265.0 C 127.4 264.7 127.8 264.8 128.2 264.8 C 127.9 264.5 128.7 264.7 128.9 264.5 C 128.6 264.5 128.3 264.5 128.1 264.4 C 129.3 264.3 129.3 264.3 130.2 263.7 C 130.2 263.8 130.3 263.9 130.4 263.9 C 130.2 264.1 129.3 264.2 129.3 264.4 C 130.1 264.5 130.2 264.0 131.0 264.2 C 131.3 263.9 130.3 264.0 130.9 263.9 C 131.3 264.0 131.7 264.0 132.2 264.0 C 132.7 263.8 132.9 263.6 133.3 263.4 C 133.4 263.5 133.5 263.6 133.8 263.4 C 133.8 263.4 133.4 263.4 133.8 263.2 C 135.1 263.1 136.0 263.1 137.1 262.5 C 136.7 262.6 135.6 262.7 136.1 262.5 C 136.7 262.5 137.3 262.0 137.9 262.0 C 138.1 262.0 137.2 262.1 137.6 262.4 C 138.1 262.2 138.4 262.1 138.7 262.1 C 138.7 261.9 139.3 261.7 139.1 261.6 C 138.6 261.7 138.6 262.1 138.5 262.0 C 138.6 261.2 140.2 261.5 141.0 261.2 C 141.5 260.8 140.5 261.1 141.1 260.8 C 141.4 260.5 141.9 260.9 141.3 261.3 C 140.9 261.4 140.8 261.7 140.6 261.5 C 140.5 261.6 140.2 261.7 140.2 261.8 C 140.5 261.7 140.5 261.8 140.8 261.8 C 140.3 262.0 140.4 262.4 139.9 262.4 C 140.2 262.2 140.2 262.1 140.3 262.0 C 139.1 262.6 138.7 262.6 137.9 262.7 C 138.4 262.7 138.0 262.8 138.1 263.0 C 138.6 262.8 139.6 262.5 139.0 262.8 C 138.5 262.7 138.5 263.5 138.0 263.4 C 138.3 263.3 138.2 263.1 138.3 263.0 C 137.8 263.2 137.8 263.0 137.3 263.1 C 135.9 264.0 134.6 263.8 132.2 265.0 C 131.4 265.2 133.0 264.6 132.9 264.5 C 132.6 264.5 132.5 264.5 132.4 264.5 C 132.4 264.8 131.9 264.6 131.7 264.9 C 131.7 264.7 130.6 265.2 130.0 265.1 C 129.9 265.2 130.0 265.3 129.8 265.3 C 127.9 265.4 124.8 266.3 123.4 266.1 C 123.5 266.3 122.9 266.3 122.7 266.5 C 121.8 266.5 122.2 266.3 121.0 266.6 C 120.4 266.7 121.1 266.4 121.2 266.3 C 119.3 266.5 117.7 266.3 116.5 266.5 C 115.9 266.6 116.5 266.3 115.3 266.2 C 115.3 266.6 113.4 265.9 113.1 266.3 C 112.3 266.3 111.1 265.6 111.6 266.0 C 110.6 265.9 111.3 265.7 110.9 265.6 C 110.2 265.5 111.0 266.2 110.3 266.2 C 110.5 265.9 109.8 265.9 109.4 265.6 C 110.0 265.7 110.3 265.8 110.4 265.6 C 109.9 265.7 110.0 265.5 109.2 265.4 C 108.6 265.5 107.0 265.4 106.6 264.9 C 106.5 265.0 106.7 265.1 106.8 265.2 C 106.3 265.1 105.8 264.7 105.8 265.0 C 104.7 264.8 104.3 264.4 103.6 264.5 C 103.1 264.5 103.9 264.3 102.5 263.9 C 102.4 264.1 100.1 263.3 99.5 262.9 C 99.4 263.2 99.3 262.8 99.1 262.7 C 99.0 262.8 99.0 262.9 98.7 262.8 C 98.7 262.7 98.5 262.7 98.3 262.7 C 98.6 262.4 97.4 262.4 97.4 262.1 C 97.6 262.2 97.7 262.0 97.5 261.9 C 97.3 262.1 96.6 261.3 96.6 261.6 C 96.8 261.8 97.4 262.0 97.2 262.1 C 96.2 261.8 96.7 261.7 96.1 261.4 C 96.1 261.5 96.5 261.7 96.0 261.6 C 95.4 261.3 96.0 261.5 95.7 261.2 C 95.4 261.1 94.7 260.9 94.5 260.8 C 94.5 260.9 94.4 260.6 94.3 260.6 C 93.3 259.9 90.6 258.7 89.8 257.7 C 89.6 257.8 89.4 257.7 89.4 257.9 C 88.8 257.3 88.8 257.4 88.3 256.9 C 88.2 257.0 88.1 257.1 88.1 257.1 C 87.2 256.7 88.2 256.8 87.7 256.4 C 87.3 256.9 87.5 256.1 87.0 255.7 C 86.9 255.8 86.6 255.6 86.6 255.8 C 85.8 255.2 86.1 255.0 85.4 254.5 C 85.5 254.7 85.1 255.4 84.9 255.5 C 84.8 255.3 84.7 255.0 84.4 254.7 C 84.9 254.9 85.3 254.0 84.2 253.3 C 84.7 253.8 84.9 254.0 84.6 254.1 C 83.9 253.4 83.7 253.1 83.1 252.5 C 82.9 252.6 83.3 253.0 82.9 253.1 C 82.8 252.9 82.7 252.9 82.6 253.0 C 82.0 252.3 82.1 252.2 81.4 251.6 C 81.5 251.5 81.6 251.6 81.8 251.9 C 81.9 251.7 82.0 251.6 82.5 252.0 C 82.4 252.2 82.0 252.1 82.6 252.6 C 82.7 252.5 82.8 252.4 82.9 252.3 C 82.5 251.9 81.7 250.8 81.5 250.7 C 81.6 251.0 81.9 251.4 81.5 251.4 C 80.9 250.6 80.9 250.2 80.5 249.5 C 79.5 248.4 78.1 246.4 78.0 246.9 C 77.6 246.1 77.8 246.3 77.4 245.7 C 77.3 246.0 76.9 245.0 76.7 245.2 C 77.3 246.0 77.1 245.8 77.6 246.5 C 77.5 246.5 77.3 246.5 77.1 246.2 C 77.2 246.1 77.0 245.8 76.7 245.3 C 76.7 245.4 76.7 246.0 76.4 245.4 C 76.4 245.3 76.4 245.2 76.2 244.9 C 76.3 244.9 76.4 244.8 76.5 244.7 C 76.8 245.0 77.0 245.3 77.3 245.5 C 77.1 245.3 77.2 245.2 77.1 245.0 C 76.9 244.9 76.5 244.0 76.3 244.0 C 76.5 244.4 76.5 244.7 76.3 244.3 C 76.3 244.2 76.0 243.6 75.8 243.4 C 76.1 244.3 75.9 244.0 75.9 244.5 C 75.4 243.6 75.7 243.6 75.1 242.6 C 75.3 242.5 75.4 242.4 75.6 242.7 C 75.7 241.8 74.6 240.5 74.5 239.9 C 74.6 240.3 75.1 240.6 74.9 240.0 C 74.8 240.1 74.6 239.7 74.5 239.6 C 74.0 239.6 74.0 240.2 73.9 240.7 C 73.8 240.2 73.6 240.2 73.5 239.8 C 73.6 239.6 74.1 239.9 73.9 239.4 C 73.5 239.4 73.5 238.4 73.2 238.3 C 73.3 238.7 73.3 239.0 73.1 238.6 C 73.3 238.6 72.9 237.9 73.1 237.8 C 73.4 238.4 73.7 238.5 73.8 238.9 C 73.6 238.4 74.1 239.1 73.9 238.3 C 73.6 238.0 73.3 237.9 73.0 237.0 C 73.0 236.7 73.3 236.9 73.2 236.5 C 73.0 236.7 72.7 235.8 73.0 236.3 C 72.9 235.9 72.9 235.8 72.9 235.6 C 72.8 236.1 72.0 233.9 71.9 234.3 C 72.2 234.2 72.5 234.0 72.5 233.9 C 72.2 233.5 72.3 233.0 72.1 231.8 C 71.8 231.9 72.0 231.6 71.9 231.1 C 71.7 231.0 71.7 231.5 71.6 231.1 C 71.7 230.5 71.7 230.5 71.8 230.4 C 71.8 229.9 71.8 229.6 71.8 229.4 C 71.7 229.4 71.6 229.5 71.6 229.7 C 71.7 228.0 71.4 227.2 71.5 225.8 C 71.3 226.4 71.7 226.5 71.7 226.0 C 71.7 225.8 71.7 225.5 71.6 225.3 C 71.3 225.6 71.5 225.5 71.5 224.8 C 71.5 224.2 71.1 225.0 71.1 224.6 C 71.3 224.1 71.4 224.4 71.5 224.1 C 71.5 223.9 71.5 223.6 71.6 223.4 C 71.4 223.8 71.3 223.3 71.3 222.9 C 71.5 223.2 71.6 223.0 71.6 222.2 C 71.8 222.1 71.8 222.5 71.9 222.2 C 71.9 222.0 71.7 221.3 72.0 220.8 C 72.0 220.9 72.0 221.0 72.1 221.0 C 72.1 220.4 72.5 219.9 72.7 219.4 C 72.4 219.9 72.3 219.6 72.1 219.8 C 72.4 219.3 72.3 218.5 72.7 218.2 C 72.4 218.9 73.2 218.3 73.3 217.8 C 73.1 217.6 72.9 218.5 72.7 218.2 C 72.6 217.8 73.1 217.3 73.0 217.0 C 72.8 217.0 72.9 217.3 72.7 217.4 C 72.9 217.0 72.6 217.5 72.7 217.1 C 73.0 217.0 72.7 216.6 72.8 216.4 C 73.0 216.1 73.5 215.6 73.4 215.3 C 73.3 215.3 73.2 215.7 73.1 215.7 C 73.4 214.4 73.9 214.1 74.1 212.9 C 74.3 212.8 74.5 212.6 74.7 212.3 C 74.5 212.3 74.6 212.0 74.7 211.8 C 75.0 211.3 75.4 210.9 75.7 210.3 C 75.9 210.5 75.8 210.9 76.3 210.0 C 76.2 210.0 76.0 210.3 76.1 210.0 C 76.2 210.0 76.3 209.8 76.3 209.7 C 76.2 209.7 76.2 209.7 76.1 209.7 C 76.0 209.9 75.9 210.1 75.7 210.3 C 75.6 210.2 75.5 210.2 75.3 210.4 C 75.8 209.4 76.2 209.7 76.4 208.9 C 76.7 209.0 76.9 208.9 76.8 209.5 C 77.1 208.9 77.2 208.5 77.2 208.2 C 76.8 208.9 76.7 208.5 76.4 208.7 C 76.7 208.2 76.6 208.2 76.7 207.9 C 77.1 207.5 76.7 208.7 77.4 207.7 C 76.7 208.3 77.6 207.0 78.0 206.6 C 77.8 206.6 77.7 206.8 77.8 206.4 C 78.5 205.1 79.1 205.7 79.4 204.7 C 79.4 204.9 79.7 204.5 79.9 204.4 C 79.5 205.1 79.4 205.3 79.2 205.6 C 79.3 205.6 79.5 205.4 79.6 205.3 C 79.5 205.2 79.6 205.0 79.9 204.8 C 79.9 204.5 79.6 204.4 79.9 203.7 C 80.0 203.8 80.0 203.9 80.2 203.7 C 80.2 203.3 80.4 204.1 81.2 203.1 C 80.9 203.2 80.8 203.2 80.7 203.0 C 81.0 202.5 81.0 202.7 81.5 202.0 C 82.1 202.0 81.5 202.7 81.5 203.1 C 81.8 202.6 82.0 202.1 82.5 201.8 C 82.1 202.0 82.3 201.5 82.6 201.1 C 83.0 200.8 82.8 201.4 83.3 201.0 C 83.5 200.7 83.6 200.3 83.2 200.5 C 84.0 199.9 83.6 199.9 84.3 199.3 C 84.4 199.4 84.2 199.6 83.9 199.7 C 84.0 199.8 84.0 199.9 84.3 199.7 C 84.6 199.2 85.5 198.4 85.9 197.9 C 87.0 197.5 87.7 196.3 88.7 195.8 C 88.5 196.3 90.0 195.1 90.6 195.0 C 90.8 194.8 91.5 193.8 91.2 194.1 C 91.5 194.4 92.0 194.0 92.5 193.8 C 92.4 193.7 92.4 193.7 92.4 193.6 C 93.3 193.0 93.6 193.1 94.1 193.1 C 95.2 192.3 96.6 192.1 98.1 191.2 C 98.5 191.3 98.8 191.1 99.8 190.9 C 99.7 190.7 100.4 190.4 101.1 190.2 C 100.9 190.1 101.5 189.9 101.5 189.7 C 100.9 189.9 101.0 189.6 100.6 189.6 C 101.5 189.6 101.8 189.0 102.5 189.0 C 101.8 189.4 101.6 189.8 101.6 190.1 C 102.5 189.8 103.1 189.7 103.3 189.8 C 103.3 189.7 103.2 189.6 103.0 189.5 C 103.3 189.4 103.6 189.4 103.9 189.3 C 104.0 189.4 103.6 189.6 104.0 189.5 C 104.2 189.4 104.4 189.2 104.6 189.1 C 105.0 189.2 104.3 189.4 104.2 189.5 C 105.5 189.3 104.9 188.9 105.5 188.7 C 105.8 188.8 105.8 189.1 106.4 189.0 C 106.6 188.8 106.6 188.5 107.2 188.4 C 107.7 188.3 107.3 188.8 107.8 188.7 C 107.8 188.6 108.1 188.6 108.3 188.6 C 108.2 188.4 108.4 188.3 108.7 188.2 C 108.8 188.4 109.3 188.2 109.4 188.1 C 109.5 188.2 110.3 188.4 110.5 188.2 C 110.4 188.1 110.0 188.2 110.0 188.1 C 110.5 188.1 110.9 188.0 111.2 187.9 C 111.4 188.4 112.3 187.8 113.4 188.0 C 114.1 187.8 113.2 187.6 114.1 187.4 C 114.6 187.5 114.0 187.6 114.1 187.9 C 114.3 187.9 115.1 188.0 115.1 187.8 C 115.1 187.7 114.7 187.8 114.6 187.7 C 115.2 187.4 115.2 187.7 115.6 187.8 C 115.5 187.6 116.0 187.5 116.1 187.3 C 117.8 187.1 117.8 187.6 118.5 187.8 C 118.5 187.7 119.0 187.7 119.0 187.6 C 118.5 187.7 117.8 187.5 118.5 187.4 C 118.4 187.6 119.5 187.4 119.5 187.4 C 119.4 187.2 118.8 187.3 119.0 187.0 C 120.0 187.0 119.6 187.4 120.3 187.2 C 120.3 187.4 119.9 187.4 119.8 187.5 C 120.1 187.5 120.5 187.5 120.5 187.6 C 120.1 187.6 120.1 187.8 120.0 187.9 C 120.5 187.7 121.3 188.0 120.7 187.6 C 121.7 187.8 122.7 187.7 122.0 187.4 C 122.8 187.4 122.3 187.7 123.0 187.5 C 122.9 187.8 122.7 187.9 123.2 188.2 C 123.3 188.0 123.7 188.0 123.7 187.8 C 124.9 187.9 125.2 188.2 125.6 188.5 C 125.2 188.1 125.7 188.5 126.3 188.3 C 126.7 188.5 126.3 188.7 127.3 188.8 C 126.3 188.3 128.5 188.9 128.1 188.4 C 129.2 188.8 129.2 188.8 130.4 189.1 C 130.3 189.3 130.0 189.3 129.4 189.2 C 129.8 189.1 128.4 188.8 128.5 189.0 C 128.5 189.0 128.5 189.1 128.5 189.1 C 129.4 189.3 130.0 189.4 130.3 189.7 C 130.5 189.5 131.0 189.5 130.9 189.2 C 131.7 189.7 132.7 189.5 133.0 189.9 C 132.7 189.8 132.4 189.8 132.5 189.9 C 132.8 190.0 133.3 190.0 133.3 189.8 C 132.6 189.6 132.5 189.5 132.1 189.6 C 132.4 189.5 131.5 189.1 132.2 189.2 C 132.1 189.6 133.6 189.4 133.1 189.5 C 132.3 189.5 133.9 190.0 133.9 190.2 C 133.9 190.2 133.9 190.2 133.9 190.2 Z M 137.5 263.1 C 138.2 262.7 137.3 262.8 136.8 263.0 C 136.9 263.0 137.0 263.1 137.1 263.2 C 137.3 263.1 137.5 263.0 137.5 263.1 C 137.5 263.1 137.5 263.1 137.5 263.1 Z M 129.3 261.8 C 129.1 262.1 130.2 261.7 130.7 261.6 C 130.5 261.6 130.3 261.6 130.6 261.5 C 130.1 261.4 130.0 261.8 129.3 261.8 C 129.3 261.8 129.3 261.8 129.3 261.8 Z M 103.7 261.6 C 103.9 261.6 104.4 261.7 104.4 261.8 C 104.6 261.8 104.6 261.7 104.7 261.6 C 105.2 261.7 104.5 261.9 105.3 262.0 C 105.7 261.7 104.1 261.1 103.7 261.6 C 103.7 261.6 103.7 261.6 103.7 261.6 Z M 124.5 191.9 C 124.8 192.1 124.0 192.2 124.2 192.4 C 125.4 192.4 124.5 192.0 126.2 192.3 C 126.1 192.2 126.0 192.1 126.0 192.0 C 125.2 192.0 125.1 192.2 125.4 191.8 C 125.0 191.7 124.9 192.2 124.5 191.9 C 124.5 191.9 124.5 191.9 124.5 191.9 Z M 139.6 197.3 C 139.5 197.2 139.5 197.1 139.5 197.0 C 139.0 196.9 139.1 196.9 138.5 196.6 C 138.4 197.0 139.0 197.2 139.6 197.3 C 139.6 197.3 139.6 197.3 139.6 197.3 Z M 159.6 229.8 C 159.6 229.9 159.6 230.1 159.5 230.2 C 159.7 230.1 160.0 230.5 160.0 229.8 C 159.9 229.8 159.9 229.9 159.9 230.0 C 159.8 229.9 159.8 229.6 159.7 229.6 C 159.7 229.8 159.6 229.8 159.6 229.8 C 159.6 229.8 159.6 229.8 159.6 229.8 Z M 155.1 246.3 C 155.5 245.4 153.7 246.9 155.1 246.3 C 155.1 246.3 155.1 246.3 155.1 246.3 C 155.1 246.3 155.1 246.3 155.1 246.3 Z M 158.6 246.4 C 158.6 246.4 158.7 246.2 158.7 246.2 C 159.2 245.5 158.9 246.2 159.2 245.9 C 159.4 245.3 158.7 246.0 159.0 245.2 C 158.8 245.3 158.8 246.0 158.6 246.4 C 158.6 246.4 158.6 246.4 158.6 246.4 Z M 78.8 205.6 C 78.5 206.2 78.6 206.5 78.7 206.8 C 79.0 206.4 79.2 206.1 79.4 206.1 C 79.8 205.3 78.9 206.4 78.8 206.5 C 78.7 206.3 79.0 205.8 78.8 205.6 C 78.8 205.6 78.8 205.6 78.8 205.6 Z M 77.6 207.6 C 77.5 207.9 77.3 208.3 77.5 208.4 C 77.7 208.0 77.8 208.0 77.9 208.1 C 78.0 207.7 77.6 208.0 77.6 207.6 C 77.6 207.6 77.6 207.6 77.6 207.6 Z M 80.4 204.2 C 80.2 204.5 80.4 204.5 80.5 204.6 C 80.8 204.2 80.9 204.2 81.2 203.9 C 81.2 203.8 81.1 203.7 81.0 203.7 C 80.7 204.0 80.8 204.1 80.6 204.3 C 80.5 204.3 80.5 204.2 80.4 204.2 C 80.4 204.2 80.4 204.2 80.4 204.2 Z M 76.6 209.7 C 76.0 210.8 76.1 211.5 76.0 212.4 C 76.4 211.6 76.3 210.6 76.8 210.1 C 77.1 209.3 76.5 210.2 76.5 210.2 C 76.4 210.1 76.6 209.8 76.6 209.7 C 76.6 209.7 76.6 209.7 76.6 209.7 Z M 72.6 220.1 C 72.4 220.3 72.7 220.9 72.5 221.6 C 72.6 221.5 72.7 221.4 72.8 221.4 C 73.1 220.4 72.5 220.9 72.6 220.1 C 72.6 220.1 72.6 220.1 72.6 220.1 Z M 72.1 226.0 C 72.1 226.7 72.3 225.7 72.4 226.1 C 72.5 225.4 72.5 224.6 72.3 224.6 C 72.4 225.4 72.4 225.5 72.1 226.0 C 72.1 226.0 72.1 226.0 72.1 226.0 Z M 72.3 230.3 C 72.5 231.0 72.6 230.0 72.8 230.3 C 72.8 230.0 72.7 230.1 72.6 230.1 C 72.6 229.8 72.6 229.7 72.6 229.3 C 72.5 229.6 72.6 230.4 72.3 230.3 C 72.3 230.3 72.3 230.3 72.3 230.3 Z M 93.5 194.1 C 93.1 194.4 93.4 194.6 92.5 194.9 C 93.7 194.3 93.4 195.3 94.9 194.3 C 94.7 194.4 94.8 194.2 94.9 194.3 C 95.4 193.8 94.3 194.4 94.7 193.9 C 94.3 194.2 94.7 194.3 94.3 194.5 C 93.7 194.6 93.4 194.6 93.5 194.1 C 93.5 194.1 93.5 194.1 93.5 194.1 Z M 95.1 194.6 C 95.5 194.4 95.3 194.0 95.6 194.1 C 95.8 194.0 95.8 193.9 95.8 193.8 C 95.6 193.9 95.6 193.9 95.5 193.9 C 95.2 194.1 94.8 194.4 95.1 194.6 C 95.1 194.6 95.1 194.6 95.1 194.6 Z M 91.1 196.8 C 91.8 196.3 92.0 196.3 92.3 195.9 C 92.7 196.1 92.7 195.5 93.2 195.6 C 93.8 195.1 93.3 195.3 93.0 195.3 C 93.6 194.8 93.3 195.4 93.9 195.0 C 93.9 194.7 93.1 195.2 93.1 194.9 C 92.6 195.2 92.6 195.3 92.4 195.6 C 92.1 195.7 92.1 195.6 92.0 195.5 C 91.5 195.9 91.4 195.7 91.0 196.1 C 91.0 196.3 91.2 196.3 91.7 195.9 C 91.2 196.3 91.1 196.6 90.4 196.9 C 90.7 196.4 88.7 197.7 89.0 197.9 C 89.6 197.6 89.3 197.5 89.5 197.3 C 90.3 197.0 90.7 196.7 91.1 196.8 C 91.1 196.8 91.1 196.8 91.1 196.8 Z M 81.2 204.5 C 81.0 204.6 80.8 204.8 80.6 205.0 C 80.4 204.9 80.8 204.6 80.4 204.8 C 80.0 205.2 80.0 205.4 79.8 205.7 C 80.0 205.6 80.9 204.9 80.6 205.4 C 80.8 205.3 81.1 205.1 81.4 204.7 C 80.8 204.9 81.9 204.1 82.3 203.7 C 82.0 203.5 82.9 203.1 83.0 202.7 C 82.7 202.8 82.1 203.7 81.8 204.0 C 81.9 203.8 80.6 204.7 81.2 204.5 C 81.2 204.5 81.2 204.5 81.2 204.5 Z M 96.7 193.6 C 96.8 193.5 97.3 193.2 96.9 193.3 C 97.0 193.2 97.5 193.1 97.2 192.8 C 97.4 192.7 97.6 192.6 97.8 192.6 C 97.8 192.7 97.2 192.9 97.5 193.0 C 97.9 192.7 97.8 192.9 98.4 192.7 C 98.1 193.0 98.5 192.9 98.4 193.3 C 98.5 193.1 99.0 192.9 98.9 192.7 C 99.8 192.4 98.8 193.1 99.9 192.7 C 100.0 192.9 99.2 193.1 98.9 193.2 C 98.8 193.4 100.3 192.7 101.1 192.5 C 100.3 192.6 100.8 192.1 101.1 191.8 C 101.4 191.8 101.2 192.0 101.7 191.9 C 102.1 191.8 102.2 191.6 102.4 191.7 C 102.7 191.6 102.5 191.5 102.5 191.3 C 103.0 191.2 102.7 191.7 103.5 191.4 C 102.8 191.2 103.5 190.9 104.5 190.7 C 104.5 190.6 104.1 190.7 104.0 190.6 C 104.1 190.4 104.8 190.6 105.0 190.6 C 105.4 190.5 105.1 190.4 104.8 190.5 C 105.0 190.4 105.2 190.2 105.4 190.1 C 104.2 190.4 102.4 190.9 100.2 191.4 C 100.7 191.4 100.2 191.6 99.6 191.8 C 99.4 191.7 99.7 191.5 100.0 191.4 C 99.2 191.4 99.4 192.0 98.3 192.3 C 97.6 192.5 98.9 191.8 98.1 192.0 C 97.7 192.2 97.5 192.5 97.2 192.4 C 96.6 192.8 96.5 193.2 95.4 193.7 C 96.1 193.5 96.6 193.9 97.2 193.5 C 97.1 193.4 96.9 193.5 96.7 193.6 C 96.7 193.6 96.7 193.6 96.7 193.6 Z M 78.0 208.2 C 77.8 208.5 77.8 208.8 77.6 208.8 C 77.3 209.5 77.9 208.9 78.0 208.8 C 78.2 208.5 78.1 208.3 78.0 208.2 C 78.0 208.2 78.0 208.2 78.0 208.2 Z M 106.2 264.4 C 107.1 264.7 106.9 264.3 107.7 264.5 C 107.1 264.3 107.0 264.0 106.1 263.9 C 106.0 264.1 105.9 264.2 106.2 264.4 C 106.2 264.4 106.2 264.4 106.2 264.4 Z M 79.6 206.2 C 79.8 205.6 79.4 207.0 79.2 206.9 C 78.9 207.5 79.7 206.4 79.6 207.1 C 79.8 206.5 80.2 206.3 80.5 205.6 C 80.4 205.6 80.0 206.0 79.7 206.5 C 79.5 206.5 79.7 206.3 79.6 206.2 C 79.6 206.2 79.6 206.2 79.6 206.2 Z M 97.4 260.8 C 96.8 260.7 97.8 261.5 98.1 261.7 C 98.3 261.4 98.1 261.4 97.4 260.8 C 97.4 260.8 97.4 260.8 97.4 260.8 Z M 112.5 265.1 C 112.9 264.8 111.4 264.9 111.8 264.7 C 111.4 264.6 111.3 264.7 111.3 264.8 C 111.1 264.7 110.4 264.6 110.6 264.4 C 110.5 264.2 111.7 264.6 111.3 264.3 C 111.7 264.3 111.7 264.4 112.0 264.5 C 111.3 264.4 111.6 264.7 112.5 264.8 C 112.5 264.6 112.1 264.6 112.5 264.5 C 112.6 264.6 113.0 264.9 112.9 265.2 C 113.7 265.3 113.3 264.8 114.2 264.9 C 114.1 264.8 113.5 264.7 113.2 264.6 C 113.3 264.3 114.1 264.9 114.0 264.5 C 114.1 264.7 114.6 264.9 114.6 265.1 C 114.0 265.2 113.5 265.3 112.9 265.4 C 113.4 265.6 114.2 265.1 115.1 265.4 C 115.0 265.2 115.5 265.2 115.4 265.0 C 116.1 265.1 115.7 265.4 115.6 265.4 C 115.8 265.6 117.1 265.5 117.1 265.3 C 117.1 265.5 118.8 265.5 118.7 265.2 C 119.2 265.4 120.0 265.0 120.2 265.3 C 120.5 265.2 121.0 265.2 121.6 265.2 C 121.8 264.9 120.7 265.1 120.7 264.9 C 120.5 264.7 121.8 264.9 121.6 264.7 C 121.6 264.6 121.6 264.6 121.6 264.5 C 121.1 264.6 120.6 264.7 120.2 264.8 C 119.8 264.8 120.3 264.7 120.2 264.6 C 119.8 264.8 118.3 265.1 118.3 264.6 C 117.2 264.7 116.5 264.6 116.1 264.8 C 115.5 264.8 116.4 264.7 116.1 264.5 C 114.3 264.7 112.2 264.1 110.6 264.3 C 110.3 264.2 110.5 264.0 110.4 263.9 C 108.4 263.8 110.0 264.4 108.5 264.0 C 108.5 263.8 109.3 263.9 109.3 263.7 C 108.7 263.6 108.5 263.7 107.8 263.5 C 107.8 263.6 107.8 263.7 107.8 263.8 C 107.2 263.7 107.5 263.5 107.2 263.3 C 106.4 263.2 106.5 263.4 106.3 263.0 C 105.5 263.0 104.8 262.9 104.2 262.5 C 103.6 262.6 104.4 263.2 105.2 263.4 C 105.1 263.5 104.9 263.4 104.9 263.5 C 104.1 263.1 104.1 262.6 102.8 262.2 C 103.7 262.7 102.3 262.1 102.2 261.9 C 101.6 261.7 101.9 262.1 102.3 262.2 C 102.2 262.3 101.9 262.1 101.9 262.0 C 101.7 262.3 102.9 262.9 104.2 263.2 C 103.5 263.4 105.2 263.4 104.4 263.7 C 105.5 263.9 104.6 263.4 105.8 263.7 C 105.7 263.6 105.5 263.5 105.4 263.3 C 106.4 263.5 106.0 263.8 107.0 263.9 C 107.2 263.8 106.6 263.7 106.6 263.5 C 107.6 264.0 108.0 264.1 108.6 264.5 C 108.8 264.4 108.7 264.1 109.9 264.5 C 109.9 264.5 109.8 264.6 109.8 264.6 C 109.3 264.5 109.0 264.9 110.5 265.1 C 110.6 265.0 110.2 264.9 109.8 264.9 C 110.0 264.7 110.5 264.8 111.0 264.8 C 111.3 264.9 111.6 265.0 111.2 265.0 C 111.4 265.3 111.7 264.9 112.5 265.1 C 112.5 265.1 112.5 265.1 112.5 265.1 Z M 73.4 219.1 C 73.4 219.3 73.4 219.5 73.4 219.8 C 73.5 220.0 73.6 219.4 73.8 219.4 C 73.9 218.9 73.5 219.2 73.4 219.1 C 73.4 219.1 73.4 219.1 73.4 219.1 Z M 75.8 212.9 C 75.6 212.8 75.7 213.3 75.4 213.7 C 75.5 214.0 75.8 213.4 75.9 213.4 C 76.2 212.8 75.5 213.4 75.8 212.9 C 75.8 212.9 75.8 212.9 75.8 212.9 Z M 74.7 215.5 C 74.4 215.7 74.7 215.8 74.9 215.3 C 75.0 215.4 75.1 215.5 75.0 215.9 C 75.4 215.6 75.0 215.3 75.3 214.7 C 75.1 214.9 74.9 215.1 74.7 215.5 C 74.7 215.5 74.7 215.5 74.7 215.5 Z M 74.4 216.4 C 74.4 216.8 74.1 216.9 74.1 217.6 C 74.3 217.5 74.6 216.2 74.6 216.0 C 74.5 215.7 74.1 217.1 74.4 216.4 C 74.4 216.4 74.4 216.4 74.4 216.4 Z M 89.3 255.9 C 89.5 256.0 89.5 255.9 89.6 255.9 C 90.0 256.6 90.9 257.1 90.0 256.9 C 90.8 257.2 91.2 257.8 91.7 258.2 C 92.2 258.5 92.1 258.2 92.5 258.4 C 93.1 258.8 92.1 258.3 92.2 258.5 C 92.2 258.7 92.6 258.5 93.2 259.0 C 93.3 258.5 93.9 259.4 93.9 258.9 C 94.2 259.2 94.4 259.2 94.9 259.5 C 94.9 259.3 94.4 259.0 94.4 258.8 C 94.3 258.5 94.0 258.9 94.6 259.1 C 94.2 259.2 93.6 258.4 93.3 258.5 C 93.1 258.1 94.0 258.8 93.8 258.4 C 93.6 258.4 93.4 258.3 93.4 258.3 C 93.1 258.1 92.9 257.9 92.9 257.8 C 93.0 257.9 93.0 257.9 93.0 258.0 C 93.4 258.2 92.8 257.4 93.6 257.8 C 93.5 257.7 93.2 257.5 93.3 257.4 C 93.2 257.1 93.0 258.0 92.3 257.3 C 91.7 257.2 93.5 258.2 92.8 258.4 C 91.7 257.6 92.5 257.7 91.6 257.1 C 91.6 257.2 91.5 257.3 91.3 257.2 C 91.3 257.3 91.6 257.5 91.8 257.6 C 91.7 257.7 91.4 257.5 91.2 257.3 C 91.2 257.4 91.4 257.5 91.3 257.6 C 90.6 257.0 90.9 256.7 91.7 257.0 C 91.8 256.8 90.9 256.2 90.5 256.1 C 90.7 256.5 90.4 256.2 90.5 256.6 C 90.7 256.7 90.7 256.6 90.8 256.6 C 91.1 256.9 90.8 256.7 90.7 256.8 C 90.3 256.5 90.4 256.3 89.9 256.2 C 90.1 256.2 90.2 256.2 90.3 256.1 C 90.1 256.0 89.9 255.9 89.7 255.7 C 89.6 255.9 89.4 255.7 89.3 255.9 C 89.3 255.9 89.3 255.9 89.3 255.9 Z M 100.0 262.2 C 100.7 262.5 100.4 262.2 100.1 262.1 C 100.2 262.0 100.5 262.1 100.8 262.2 C 100.6 262.0 100.4 262.0 99.7 261.7 C 100.4 261.6 100.0 261.0 98.8 260.6 C 98.4 260.9 99.3 261.3 98.8 261.4 C 99.6 261.6 100.0 261.9 100.0 262.2 C 100.0 262.2 100.0 262.2 100.0 262.2 Z M 78.1 208.8 C 77.8 209.2 77.6 209.7 77.3 210.1 C 77.6 210.1 78.5 208.9 78.1 208.8 C 78.1 208.8 78.1 208.8 78.1 208.8 Z M 106.4 190.2 C 106.6 190.1 106.6 190.2 106.6 190.2 C 107.3 190.0 106.3 190.1 106.6 189.8 C 106.3 189.9 106.1 189.9 105.9 190.0 C 105.8 190.1 106.9 190.0 106.2 190.2 C 106.2 190.3 106.4 190.2 106.4 190.2 C 106.4 190.2 106.4 190.2 106.4 190.2 Z M 73.9 218.7 C 73.9 219.2 74.2 219.0 73.9 219.9 C 74.2 219.6 74.1 219.4 74.3 218.8 C 74.1 218.8 74.0 218.7 73.9 218.7 C 73.9 218.7 73.9 218.7 73.9 218.7 Z M 86.2 253.9 C 86.5 254.6 87.0 254.2 87.8 255.0 C 87.5 254.4 86.8 254.4 86.2 253.9 C 86.2 253.9 86.2 253.9 86.2 253.9 Z M 123.5 264.6 C 123.2 264.6 123.6 264.5 123.0 264.4 C 122.7 264.6 122.6 264.7 122.1 264.8 C 122.8 265.0 124.0 264.6 124.5 265.0 C 125.1 264.8 125.0 264.6 125.2 264.4 C 124.9 264.4 124.8 264.4 124.7 264.4 C 124.4 264.7 123.9 264.2 123.5 264.6 C 123.5 264.6 123.5 264.6 123.5 264.6 Z M 97.3 260.7 C 96.9 260.4 97.6 260.6 97.9 260.5 C 98.1 260.6 98.0 260.8 98.0 260.9 C 98.4 261.0 98.5 261.0 98.5 260.8 C 97.8 260.4 96.9 260.0 97.6 259.9 C 96.9 259.6 97.2 260.0 96.8 259.9 C 96.5 259.6 96.9 259.7 97.0 259.5 C 96.8 259.5 96.2 259.5 96.4 259.2 C 95.2 259.0 95.5 259.6 96.1 260.3 C 96.9 260.4 96.1 259.9 97.3 260.7 C 97.3 260.7 97.3 260.7 97.3 260.7 Z M 75.7 239.1 C 75.7 239.2 75.8 239.6 75.7 239.6 C 76.1 240.0 76.6 240.3 77.0 240.6 C 77.1 240.5 76.7 240.0 76.6 240.3 C 76.7 240.0 76.6 239.6 76.6 239.3 C 76.5 238.8 76.0 238.9 76.3 238.7 C 76.0 238.3 76.1 238.5 75.9 237.8 C 76.1 239.0 75.6 237.5 75.4 237.5 C 75.6 238.2 75.8 238.7 76.0 238.5 C 76.1 239.0 76.2 239.6 76.1 239.8 C 76.0 239.8 75.8 239.4 75.7 239.1 C 75.7 239.1 75.7 239.1 75.7 239.1 Z M 77.5 241.4 C 77.4 241.3 77.3 241.1 77.2 240.8 C 77.2 241.0 77.1 241.1 77.0 241.2 C 77.2 241.7 77.4 241.8 77.3 242.0 C 77.6 242.6 77.6 241.8 77.9 242.6 C 77.9 242.5 77.7 242.1 77.8 242.1 C 77.6 242.1 77.4 241.8 77.5 241.4 C 77.5 241.4 77.5 241.4 77.5 241.4 Z M 81.2 247.9 C 81.6 248.4 81.1 247.6 81.4 247.7 C 81.3 247.6 80.6 246.6 80.9 246.6 C 80.9 246.1 79.7 245.5 80.1 245.4 C 79.9 245.2 79.9 245.3 79.8 245.3 C 80.3 246.0 80.1 246.1 79.8 245.6 C 79.7 245.8 80.1 246.2 80.3 246.5 C 80.4 246.4 80.2 246.1 80.4 246.1 C 80.7 246.7 80.9 247.3 81.2 247.9 C 81.2 247.9 81.2 247.9 81.2 247.9 Z M 132.2 191.0 C 131.6 190.8 131.3 190.8 131.0 190.8 C 131.1 191.0 131.4 190.9 131.7 191.0 C 131.7 191.1 131.5 191.1 131.2 191.0 C 131.4 191.3 132.4 191.3 132.2 191.0 C 132.2 191.0 132.2 191.0 132.2 191.0 Z M 127.5 190.0 C 127.0 189.9 126.7 189.9 126.6 190.0 C 126.8 190.2 126.7 189.9 127.1 190.0 C 127.3 190.1 127.4 190.2 127.5 190.3 C 127.7 190.4 127.7 190.3 127.8 190.2 C 127.9 190.2 128.0 190.3 128.0 190.3 C 128.7 190.2 127.2 190.2 127.5 190.0 C 127.5 190.0 127.5 190.0 127.5 190.0 Z M 78.9 244.5 C 78.9 244.2 78.9 244.0 78.6 243.5 C 78.5 243.7 78.3 243.3 78.1 243.0 C 78.2 243.6 78.4 243.8 78.9 244.5 C 78.9 244.5 78.9 244.5 78.9 244.5 Z M 98.4 193.4 C 97.7 193.5 97.9 193.8 96.9 194.1 C 97.0 194.2 97.0 194.2 97.0 194.3 C 97.5 193.9 97.8 193.9 98.4 193.4 C 98.4 193.4 98.4 193.4 98.4 193.4 Z M 161.3 238.6 C 161.1 238.4 161.0 239.1 160.8 239.1 C 161.1 239.4 160.4 239.5 159.9 240.7 C 159.8 240.7 159.8 240.6 159.9 240.4 C 159.3 241.4 160.2 240.3 160.5 240.2 C 160.8 239.4 161.0 239.4 161.3 238.6 C 161.3 238.6 161.3 238.6 161.3 238.6 Z M 116.4 264.1 C 116.3 264.2 116.5 264.2 116.6 264.2 C 116.8 264.2 116.9 264.2 117.1 264.2 C 117.0 263.9 116.3 263.7 116.9 263.4 C 116.7 263.4 116.6 263.4 116.6 263.5 C 115.5 264.1 114.7 262.9 113.1 263.2 C 112.9 263.2 112.9 263.3 112.9 263.3 C 113.1 263.4 113.1 263.4 113.1 263.5 C 113.3 263.1 114.6 263.6 114.0 263.7 C 114.1 263.8 114.3 263.8 114.3 263.7 C 114.4 263.7 114.6 263.7 114.7 263.8 C 114.7 263.7 114.3 263.6 114.3 263.5 C 115.0 263.6 115.9 263.8 115.4 264.0 C 115.9 264.1 116.1 263.9 116.4 263.9 C 116.7 263.9 116.7 264.1 116.4 264.1 C 116.4 264.1 116.4 264.1 116.4 264.1 Z M 122.5 263.9 C 123.2 263.9 122.9 263.7 123.7 263.7 C 123.2 263.5 122.7 263.9 122.0 263.7 C 122.1 263.8 122.4 263.8 122.5 263.9 C 122.5 263.9 122.5 263.9 122.5 263.9 Z M 108.9 262.9 C 109.1 262.6 108.5 262.5 107.8 262.3 C 107.7 262.6 108.3 262.7 108.9 262.9 C 108.9 262.9 108.9 262.9 108.9 262.9 Z M 112.0 263.3 C 112.6 263.3 111.1 263.1 111.5 262.9 C 111.2 262.9 110.9 262.9 110.9 262.8 C 110.6 262.8 110.6 262.9 110.1 262.8 C 110.1 263.0 110.9 263.0 110.8 263.2 C 111.3 263.1 111.4 263.1 112.0 263.3 C 112.0 263.3 112.0 263.3 112.0 263.3 Z M 112.4 263.4 C 112.9 263.4 112.3 262.9 111.8 262.8 C 112.0 263.0 112.1 263.2 112.4 263.4 C 112.4 263.4 112.4 263.4 112.4 263.4 Z M 74.6 229.6 C 74.7 229.9 74.9 229.7 74.9 230.0 C 75.0 230.0 74.9 228.7 75.0 229.8 C 75.3 229.4 74.8 229.2 74.9 228.7 C 74.8 228.9 74.8 229.0 74.7 228.7 C 74.5 228.6 74.9 229.8 74.6 229.6 C 74.6 229.6 74.6 229.6 74.6 229.6 Z M 74.8 230.9 C 74.8 231.2 74.9 231.1 74.8 230.9 C 74.9 231.0 75.0 231.3 75.0 231.6 C 74.9 231.6 75.3 231.1 75.5 231.1 C 75.2 230.0 75.0 230.9 74.8 230.9 C 74.8 230.9 74.8 230.9 74.8 230.9 Z M 75.1 232.0 C 75.0 232.8 75.3 233.8 75.6 234.2 C 75.8 233.6 75.5 232.3 75.1 232.0 C 75.1 232.0 75.1 232.0 75.1 232.0 Z M 74.8 224.8 C 74.4 226.1 74.8 228.7 75.1 226.4 C 74.9 226.4 74.8 224.9 75.0 224.2 C 74.9 224.1 74.8 223.3 75.0 223.3 C 74.8 222.7 74.6 225.1 74.8 224.8 C 74.8 224.8 74.8 224.8 74.8 224.8 Z M 76.3 234.9 C 76.1 234.6 75.8 235.1 75.8 234.6 C 75.7 234.3 75.7 234.7 75.6 234.6 C 75.7 235.3 76.4 236.6 76.2 236.8 C 76.4 237.1 76.6 237.1 76.8 237.7 C 76.9 237.7 75.8 235.5 76.1 234.9 C 76.3 234.9 76.5 235.8 76.3 234.9 C 76.3 234.9 76.3 234.9 76.3 234.9 Z M 99.0 194.8 C 99.0 194.5 98.2 195.0 98.2 194.7 C 97.9 195.2 97.4 195.2 96.9 195.7 C 96.7 195.7 96.6 195.3 95.9 195.7 C 96.0 195.9 96.3 195.6 96.0 195.9 C 95.4 196.3 95.4 196.0 94.7 196.4 C 95.0 196.7 93.2 197.4 93.6 197.7 C 93.9 197.4 93.8 197.2 94.5 196.9 C 94.7 196.8 94.7 197.0 95.0 196.9 C 94.9 197.2 94.4 197.1 94.2 197.4 C 94.4 197.5 94.8 197.2 95.0 197.3 C 95.2 197.1 94.8 197.3 94.8 197.1 C 95.6 196.6 95.1 197.6 95.9 197.1 C 95.6 197.0 95.6 197.0 95.6 196.7 C 96.0 196.6 97.0 195.9 96.6 196.5 C 96.7 196.6 97.2 196.1 97.1 196.0 C 97.4 195.8 97.5 195.8 97.5 195.9 C 98.4 195.4 98.4 195.2 98.1 195.0 C 98.2 194.7 98.5 195.1 99.0 194.8 C 99.0 194.8 99.0 194.8 99.0 194.8 Z M 76.2 217.9 C 76.1 217.4 76.1 218.5 75.9 219.0 C 76.1 218.4 76.3 218.7 76.5 218.1 C 76.4 218.3 76.3 218.2 76.5 217.8 C 76.4 217.7 76.0 218.6 76.2 217.9 C 76.2 217.9 76.2 217.9 76.2 217.9 Z M 77.3 239.0 C 77.2 239.3 77.8 240.3 78.1 240.9 C 78.4 240.6 77.2 239.5 77.5 239.1 C 77.4 238.8 77.5 239.4 77.3 239.0 C 77.3 239.0 77.3 239.0 77.3 239.0 Z M 91.2 198.6 C 91.0 198.7 91.1 198.7 91.2 198.7 C 91.2 198.8 90.8 199.0 90.5 199.2 C 91.0 199.1 90.6 199.5 90.8 199.6 C 90.6 199.8 90.5 199.9 90.5 200.0 C 90.2 199.6 89.5 201.0 90.7 200.2 C 90.3 200.2 90.4 200.1 90.8 199.7 C 91.5 199.5 91.8 199.0 92.1 199.1 C 92.4 198.9 92.5 198.7 93.0 198.4 C 93.2 198.5 93.7 198.3 93.5 198.8 C 94.3 198.3 93.5 198.2 94.1 197.7 C 94.9 197.4 93.9 198.1 94.2 198.2 C 94.4 198.1 94.4 198.2 94.5 198.3 C 94.7 198.1 94.6 197.9 94.3 198.0 C 94.4 197.9 95.0 197.4 94.9 197.7 C 95.3 197.4 93.9 197.4 93.5 198.0 C 93.2 198.2 93.0 197.8 93.3 197.6 C 93.1 197.5 92.7 198.4 92.6 197.9 C 92.4 198.0 92.1 198.2 91.9 198.3 C 91.9 198.4 92.1 198.3 92.1 198.4 C 91.9 198.5 91.6 198.7 91.4 198.9 C 91.5 198.6 91.5 198.5 91.2 198.6 C 91.2 198.6 91.2 198.6 91.2 198.6 Z M 76.4 236.2 C 76.5 236.8 76.7 236.8 76.9 237.2 C 77.0 237.0 76.5 235.9 76.4 236.2 C 76.4 236.2 76.4 236.2 76.4 236.2 Z M 102.9 194.1 C 102.8 194.0 102.4 194.2 102.4 194.1 C 103.0 193.8 102.2 193.9 102.6 193.3 C 101.8 193.8 101.7 194.4 102.9 194.2 C 103.8 193.9 102.0 194.4 102.9 194.1 C 102.9 194.1 102.9 194.1 102.9 194.1 Z M 100.3 194.8 C 99.8 195.2 101.1 194.8 101.5 194.7 C 101.5 194.8 101.5 194.9 101.5 195.0 C 102.1 194.4 101.1 194.6 101.6 193.9 C 100.7 194.1 100.4 194.2 99.7 194.6 C 99.8 194.6 99.9 194.5 99.9 194.5 C 100.4 194.3 100.2 194.8 99.6 194.9 C 99.8 194.9 100.3 194.7 100.7 194.6 C 100.5 194.6 100.4 194.6 100.4 194.5 C 100.8 194.2 100.7 194.5 101.1 194.4 C 101.1 194.5 100.3 195.0 100.3 194.8 C 100.3 194.8 100.3 194.8 100.3 194.8 Z M 143.7 197.7 C 143.3 197.5 144.0 198.2 143.7 198.5 C 144.1 198.8 144.3 198.8 144.5 198.9 C 144.5 198.7 144.0 198.4 143.9 198.2 C 144.2 197.9 144.5 198.6 144.8 198.5 C 145.2 198.4 143.7 198.0 143.7 197.7 C 143.7 197.7 143.7 197.7 143.7 197.7 Z M 83.0 206.4 C 82.9 206.6 83.0 206.5 83.1 206.5 C 83.1 206.6 82.9 206.9 82.8 206.8 C 82.6 207.1 83.0 206.7 82.8 207.1 C 82.8 207.3 83.2 206.6 83.2 206.5 C 83.5 206.1 83.4 206.6 83.6 206.6 C 83.9 206.2 83.6 206.2 84.1 205.7 C 83.8 206.0 83.4 206.1 83.0 206.4 C 83.0 206.4 83.0 206.4 83.0 206.4 Z M 104.3 193.1 C 104.3 193.0 103.9 193.7 103.2 193.6 C 102.5 193.9 103.8 193.7 103.1 193.9 C 103.7 193.8 104.3 193.4 105.2 193.1 C 105.4 192.9 103.9 193.4 104.7 193.1 C 104.7 193.0 104.5 193.1 104.5 193.2 C 104.3 193.2 104.3 193.2 104.3 193.1 C 104.3 193.1 104.3 193.1 104.3 193.1 Z M 103.5 193.9 C 103.6 194.0 103.8 193.9 103.8 193.9 C 104.1 193.8 104.1 194.0 103.8 194.1 C 104.3 194.3 104.1 193.8 104.9 193.7 C 104.5 193.6 104.3 193.5 105.1 193.5 C 105.6 193.1 103.8 193.7 103.5 193.9 C 103.5 193.9 103.5 193.9 103.5 193.9 Z M 137.1 194.6 C 137.1 194.8 137.6 194.9 137.9 195.0 C 137.4 195.1 135.8 194.3 135.6 194.1 C 135.4 194.1 135.2 194.0 135.2 193.9 C 135.2 194.0 134.7 193.9 134.9 194.1 C 134.8 194.1 134.5 194.0 134.4 194.1 C 133.8 193.8 134.7 194.0 134.5 193.8 C 133.7 193.7 133.9 193.6 133.0 193.3 C 133.1 193.6 134.1 193.8 133.9 194.1 C 134.7 194.1 135.4 194.5 135.8 194.9 C 135.3 194.3 137.8 195.1 138.9 195.6 C 138.8 195.8 139.2 195.9 139.6 196.2 C 139.8 196.6 140.0 196.1 139.3 195.9 C 139.4 195.7 140.2 196.3 140.5 196.4 C 140.2 196.1 140.5 196.1 140.3 195.9 C 139.5 195.5 140.2 195.9 140.0 196.0 C 139.8 195.9 139.6 195.8 139.3 195.7 C 140.6 195.9 137.8 195.0 138.8 195.4 C 137.9 195.1 138.0 194.8 137.1 194.6 C 137.1 194.6 137.1 194.6 137.1 194.6 Z M 116.0 191.2 C 115.9 191.2 115.1 191.4 115.1 191.2 C 114.2 191.5 115.0 191.6 114.0 191.7 C 114.0 191.8 114.4 191.7 114.4 191.8 C 114.8 191.7 115.2 191.6 115.1 191.4 C 115.6 191.4 115.7 191.3 116.0 191.3 C 115.9 191.4 115.7 191.4 115.3 191.5 C 115.3 191.7 115.4 191.8 116.0 191.7 C 116.3 191.5 116.1 191.3 116.0 191.2 C 116.0 191.2 116.0 191.2 116.0 191.2 Z M 113.7 191.7 C 113.6 191.6 113.5 191.6 113.5 191.4 C 113.1 191.2 113.4 191.8 113.1 191.8 C 112.8 191.8 112.9 191.7 112.8 191.6 C 112.4 191.7 112.1 191.8 111.9 191.7 C 111.3 191.9 112.6 191.8 112.8 191.9 C 113.3 191.9 113.1 191.7 113.7 191.7 C 113.7 191.7 113.7 191.7 113.7 191.7 Z M 106.9 192.5 C 106.8 192.3 106.6 192.7 106.3 192.8 C 106.6 192.9 107.2 192.6 106.8 193.0 C 107.5 193.0 107.5 193.0 108.2 192.7 C 108.6 192.9 108.1 192.5 107.5 192.8 C 107.5 192.7 107.8 192.6 107.9 192.5 C 108.4 192.9 109.4 191.9 108.8 192.4 C 108.6 192.4 108.4 192.3 108.3 192.2 C 108.2 192.5 106.6 192.7 106.9 192.5 C 106.9 192.5 106.9 192.5 106.9 192.5 Z M 86.9 203.0 C 87.6 202.3 87.7 202.3 88.4 201.7 C 88.5 201.8 88.5 201.9 88.4 202.0 C 88.6 201.9 88.8 201.7 89.1 201.5 C 89.0 201.4 88.9 201.6 88.9 201.6 C 88.2 201.9 88.7 201.5 88.6 201.3 C 87.8 201.7 87.4 202.6 86.9 202.6 C 86.7 202.9 87.0 202.7 86.9 203.0 C 86.9 203.0 86.9 203.0 86.9 203.0 Z M 159.7 237.0 C 159.8 237.2 159.6 237.5 159.8 237.5 C 159.9 237.2 159.9 236.9 159.9 236.6 C 159.7 237.2 159.4 237.0 159.1 237.7 C 159.3 237.5 159.5 237.7 159.7 237.0 C 159.7 237.0 159.7 237.0 159.7 237.0 Z M 109.2 192.1 C 109.2 192.2 109.3 192.3 109.0 192.4 C 109.0 192.6 109.7 192.4 109.7 192.5 C 110.0 192.5 109.8 192.3 110.1 192.3 C 110.0 192.2 109.4 192.3 109.6 192.0 C 109.8 192.0 109.9 192.0 109.9 192.1 C 110.3 191.9 109.6 192.0 109.2 192.1 C 109.2 192.1 109.2 192.1 109.2 192.1 Z M 145.5 199.1 C 145.2 198.9 145.4 199.2 145.6 199.3 C 144.9 199.2 145.7 199.9 145.6 200.1 C 145.5 199.8 144.7 199.4 144.6 199.2 C 144.4 199.2 144.5 199.5 143.9 199.2 C 143.8 199.4 144.6 199.6 144.5 199.4 C 144.5 199.7 145.3 199.9 145.1 200.1 C 145.9 200.7 146.2 200.7 146.4 200.5 C 145.6 200.0 146.2 200.0 145.5 199.5 C 145.5 199.5 145.7 199.6 145.9 199.7 C 145.9 199.5 145.6 199.3 145.5 199.1 C 145.5 199.1 145.5 199.1 145.5 199.1 Z M 123.4 191.5 C 122.8 191.4 122.8 191.6 122.9 191.8 C 123.1 191.8 123.4 191.8 123.8 191.8 C 123.7 191.7 123.1 191.7 123.4 191.5 C 123.4 191.5 123.4 191.5 123.4 191.5 Z M 142.3 197.5 C 142.3 197.4 142.1 197.3 142.1 197.4 C 141.6 197.1 141.5 196.9 141.4 196.7 C 141.1 196.6 141.1 196.8 141.0 196.9 C 141.6 197.0 141.4 197.2 142.0 197.5 C 142.0 197.4 142.1 197.4 142.3 197.5 C 142.3 197.5 142.3 197.5 142.3 197.5 Z M 128.1 192.3 C 127.8 192.3 127.9 192.3 128.1 192.4 C 127.7 192.6 126.8 192.2 126.5 192.3 C 126.4 192.4 127.5 192.6 126.2 192.5 C 126.4 192.7 127.6 192.7 128.2 192.9 C 128.0 193.1 127.2 192.9 127.2 193.2 C 127.9 193.2 128.7 193.2 128.9 192.9 C 127.9 192.6 128.3 192.5 128.1 192.3 C 128.1 192.3 128.1 192.3 128.1 192.3 Z M 129.2 192.7 C 129.1 192.5 128.9 192.6 128.5 192.5 C 129.0 192.9 129.3 192.9 130.4 193.2 C 130.5 193.2 130.5 193.1 130.5 193.0 C 130.7 193.1 130.9 193.2 131.1 193.2 C 130.2 192.7 130.0 192.8 128.9 192.7 C 128.9 192.6 129.0 192.6 129.2 192.7 C 129.2 192.7 129.2 192.7 129.2 192.7 Z M 99.3 195.4 C 99.6 195.4 99.9 195.4 100.4 195.3 C 100.3 195.1 100.0 195.1 99.3 195.4 C 99.3 195.4 99.3 195.4 99.3 195.4 Z M 143.0 198.1 C 143.6 198.2 142.4 197.8 142.6 198.2 C 143.0 198.5 143.4 198.8 143.4 199.1 C 144.3 199.2 142.7 198.3 143.0 198.1 C 143.0 198.1 143.0 198.1 143.0 198.1 Z M 139.2 196.7 C 138.9 196.6 139.1 196.3 139.2 196.6 C 139.8 196.8 138.8 196.1 139.7 196.6 C 139.4 196.3 138.5 195.8 138.1 195.8 C 138.0 196.0 138.8 196.3 138.8 196.5 C 138.8 196.5 138.7 196.5 138.5 196.4 C 138.6 196.6 138.8 196.5 139.2 196.7 C 139.2 196.7 139.2 196.7 139.2 196.7 Z M 136.2 195.1 C 136.5 195.3 136.9 195.6 137.6 195.9 C 137.2 195.5 137.0 195.2 136.2 195.1 C 136.2 195.1 136.2 195.1 136.2 195.1 Z M 160.7 226.0 C 160.7 225.5 160.4 225.9 160.4 226.0 C 160.3 226.5 160.5 226.5 160.4 227.0 C 160.7 226.8 160.4 226.3 160.7 226.0 C 160.7 226.0 160.7 226.0 160.7 226.0 Z M 160.5 227.8 C 160.3 227.9 160.4 228.6 160.2 228.6 C 160.7 229.1 159.9 229.6 160.2 229.6 C 160.2 229.8 160.1 230.0 160.1 230.3 C 160.6 229.7 160.5 228.4 160.5 227.8 C 160.5 227.8 160.5 227.8 160.5 227.8 Z M 132.5 194.3 C 131.9 194.1 132.5 194.7 131.9 194.5 C 131.9 194.6 133.0 195.0 132.3 194.9 C 133.1 195.3 132.4 194.4 132.5 194.3 C 132.5 194.3 132.5 194.3 132.5 194.3 Z M 121.7 192.7 C 121.7 192.5 120.9 192.6 120.6 192.6 C 120.6 192.7 120.8 192.7 121.0 192.7 C 120.9 192.7 120.8 192.8 120.5 192.8 C 120.7 193.0 121.3 192.7 121.7 192.7 C 121.7 192.7 121.7 192.7 121.7 192.7 Z M 134.8 190.7 C 135.1 191.0 135.5 191.3 135.9 191.1 C 136.2 191.4 135.5 191.3 136.0 191.6 C 136.7 191.7 136.3 191.8 137.4 192.1 C 137.0 192.3 137.8 192.5 137.9 192.8 C 137.4 192.6 137.0 192.2 136.7 192.3 C 137.1 192.5 136.8 192.6 136.7 192.4 C 136.1 192.0 137.6 192.4 136.9 192.0 C 136.5 192.2 135.5 191.2 134.7 191.0 C 135.1 190.9 134.2 190.5 134.8 190.7 C 134.8 190.7 134.8 190.7 134.8 190.7 Z M 138.7 192.6 C 139.2 192.8 139.3 193.4 139.2 193.3 C 139.2 193.2 138.6 193.0 138.5 193.0 C 138.6 193.1 138.8 193.2 138.7 193.2 C 137.7 192.8 138.1 192.7 138.0 192.5 C 138.5 192.6 138.6 192.8 138.9 192.8 C 138.8 192.7 138.6 192.6 138.7 192.6 C 138.7 192.6 138.7 192.6 138.7 192.6 Z M 147.2 202.1 C 147.2 201.9 147.0 201.9 146.8 201.9 C 147.0 201.5 145.8 201.3 145.8 201.0 C 146.1 201.1 146.5 201.4 146.8 201.5 C 146.6 201.3 146.6 201.2 146.3 201.1 C 146.5 200.9 147.0 201.3 147.2 201.3 C 147.2 201.4 147.5 201.5 147.5 201.6 C 146.8 201.2 147.6 202.4 147.2 202.1 C 147.2 202.1 147.2 202.1 147.2 202.1 Z M 127.4 193.5 C 127.3 193.7 128.1 194.4 127.2 194.6 C 127.1 194.3 127.0 194.1 127.1 193.8 C 126.6 193.9 126.4 193.6 126.0 193.8 C 125.1 192.9 126.8 194.0 127.4 193.5 C 127.4 193.5 127.4 193.5 127.4 193.5 Z M 123.8 193.2 C 124.1 193.0 123.6 193.0 123.7 192.8 C 124.1 193.0 125.5 192.9 125.0 193.0 C 124.5 193.0 124.5 193.3 123.8 193.2 C 123.8 193.2 123.8 193.2 123.8 193.2 Z M 85.4 250.2 C 84.7 249.8 84.7 249.1 85.1 249.4 C 84.8 249.4 85.8 250.2 85.4 250.2 C 85.4 250.2 85.4 250.2 85.4 250.2 Z M 71.3 226.8 C 71.2 227.5 71.3 227.9 71.1 228.0 C 71.0 227.3 71.2 227.4 71.1 226.8 C 71.1 226.7 71.0 226.4 71.1 226.3 C 71.1 226.6 71.2 226.5 71.3 226.8 C 71.3 226.8 71.3 226.8 71.3 226.8 Z M 109.4 188.0 C 109.3 187.9 109.0 187.9 109.1 187.8 C 109.9 187.7 110.7 187.4 111.3 187.2 C 111.3 187.3 111.3 187.4 111.4 187.5 C 110.2 187.6 109.9 187.8 109.4 188.0 C 109.4 188.0 109.4 188.0 109.4 188.0 Z M 107.9 187.8 C 107.8 188.0 108.2 188.2 107.7 188.3 C 107.7 188.1 106.7 188.0 107.1 187.9 C 107.3 188.0 107.6 188.0 107.9 187.8 C 107.9 187.8 107.9 187.8 107.9 187.8 Z M 147.3 196.4 C 147.8 196.7 147.2 196.1 147.3 196.0 C 147.6 196.3 148.1 196.6 148.2 196.8 C 147.8 196.6 147.3 196.7 147.3 196.4 C 147.3 196.4 147.3 196.4 147.3 196.4 Z M 139.2 192.7 C 138.0 192.2 138.7 192.0 137.5 191.5 C 138.1 191.6 139.1 192.0 139.5 192.0 C 139.4 192.1 139.6 192.2 139.6 192.3 C 139.1 192.2 139.1 192.1 138.7 191.9 C 138.8 192.2 138.8 192.1 138.6 192.3 C 138.9 192.4 139.1 192.4 139.3 192.5 C 139.1 192.6 139.5 192.8 139.2 192.7 C 139.2 192.7 139.2 192.7 139.2 192.7 Z M 146.7 196.8 C 147.2 197.0 147.3 197.5 147.0 197.3 C 147.0 197.1 146.6 197.1 146.6 196.9 C 147.3 197.3 146.2 196.5 146.6 196.5 C 147.0 196.8 147.1 196.8 147.1 196.6 C 147.4 196.8 147.7 197.0 147.7 197.1 C 147.5 197.0 147.3 196.8 147.3 196.9 C 147.4 197.0 147.5 197.0 147.4 197.1 C 147.1 196.8 146.9 196.8 146.7 196.8 C 146.7 196.8 146.7 196.8 146.7 196.8 Z M 143.9 195.1 C 144.4 195.4 144.4 195.6 144.5 195.9 C 143.8 195.4 143.8 195.0 143.3 194.6 C 143.9 195.0 144.7 195.1 144.8 195.3 C 144.5 195.2 144.0 195.0 143.9 195.1 C 143.9 195.1 143.9 195.1 143.9 195.1 Z M 142.1 259.1 C 141.6 259.3 141.1 259.3 140.5 259.5 C 140.4 259.8 141.6 259.7 141.1 259.8 C 140.6 260.1 140.8 259.6 140.4 259.8 C 141.0 259.9 138.4 261.0 138.2 260.7 C 138.6 260.6 138.7 260.5 138.5 260.3 C 139.6 259.9 139.9 259.6 140.6 259.2 C 141.3 259.2 142.9 258.5 143.5 257.7 C 144.3 257.8 145.0 256.8 145.9 256.7 C 146.0 256.4 145.2 256.8 145.7 256.4 C 146.3 256.4 146.0 256.7 146.6 256.4 C 146.6 256.3 146.3 256.2 146.6 256.0 C 146.7 256.2 147.0 256.0 147.1 256.0 C 146.1 256.7 147.4 256.2 146.6 256.8 C 146.2 256.9 146.7 256.2 145.8 256.9 C 145.4 257.2 145.1 257.4 145.4 257.6 C 145.1 257.8 144.9 257.9 144.8 258.0 C 145.0 257.5 143.4 258.9 144.1 258.2 C 144.1 258.1 144.7 257.8 145.0 257.5 C 144.5 257.5 144.2 257.9 143.6 258.3 C 143.2 258.3 143.6 258.0 143.2 258.2 C 142.8 258.6 143.6 258.4 143.3 258.7 C 143.4 258.6 143.7 258.5 143.7 258.5 C 142.7 258.8 142.5 259.2 142.0 259.4 C 142.3 259.1 141.4 259.5 142.1 259.1 C 142.1 259.1 142.1 259.1 142.1 259.1 Z M 149.1 254.3 C 149.3 254.1 149.5 254.0 149.7 253.8 C 149.9 254.0 149.2 254.6 149.8 254.4 C 149.0 255.0 149.6 254.1 149.1 254.3 C 149.1 254.3 149.1 254.3 149.1 254.3 Z M 144.8 256.2 C 144.4 256.2 144.8 256.6 144.6 256.7 C 145.0 256.4 145.4 256.1 145.6 256.3 C 145.0 256.6 144.8 256.7 144.2 257.1 C 144.6 256.5 143.5 257.3 143.2 257.1 C 143.6 256.8 143.9 256.5 144.5 256.2 C 144.4 256.3 145.3 255.8 144.8 256.2 C 144.8 256.2 144.8 256.2 144.8 256.2 Z M 146.2 255.0 C 146.4 255.0 147.1 254.3 147.1 254.7 C 146.6 255.0 146.5 255.2 146.7 255.3 C 146.3 255.6 146.2 255.5 145.9 255.7 C 145.5 255.6 146.1 255.3 146.2 255.0 C 146.1 255.1 146.0 255.1 146.2 255.0 C 146.2 255.0 146.2 255.0 146.2 255.0 Z M 156.9 241.2 C 157.3 241.2 156.7 241.9 156.6 242.0 C 156.9 241.9 156.9 242.1 156.7 242.6 C 156.5 242.3 156.2 243.0 155.6 243.3 C 155.8 243.5 156.2 243.0 155.8 243.7 C 155.4 244.1 155.2 244.6 154.7 245.4 C 154.4 245.4 154.6 245.0 154.7 244.8 C 154.3 245.3 154.3 245.1 154.0 245.4 C 154.1 245.4 154.0 245.8 153.8 245.8 C 154.2 245.1 152.9 246.5 153.3 245.7 C 153.4 245.8 153.5 245.6 153.6 245.4 C 153.7 245.8 154.3 244.8 154.6 244.7 C 154.4 244.1 155.2 243.3 156.1 242.2 C 156.2 242.2 156.1 242.6 156.3 242.4 C 156.2 242.3 156.4 241.9 156.5 241.7 C 156.6 241.8 156.7 241.7 156.9 241.5 C 156.9 241.4 156.8 241.4 156.9 241.2 C 156.9 241.2 156.9 241.2 156.9 241.2 Z M 104.9 260.1 C 105.0 259.7 103.6 259.5 103.2 259.5 C 103.4 259.1 105.7 259.9 104.9 260.1 C 104.9 260.1 104.9 260.1 104.9 260.1 Z M 113.5 261.4 C 113.2 261.4 113.4 261.6 113.1 261.6 C 113.1 261.4 112.2 261.7 112.2 261.5 C 112.6 261.3 112.9 261.4 113.5 261.4 C 113.5 261.4 113.5 261.4 113.5 261.4 Z M 121.7 261.7 C 121.0 261.7 122.0 261.8 121.9 261.9 C 121.3 261.9 120.7 261.9 120.8 261.7 C 121.3 261.8 121.6 261.4 121.7 261.7 C 121.7 261.7 121.7 261.7 121.7 261.7 Z M 109.6 260.6 C 109.1 260.4 110.0 260.3 110.1 260.5 C 109.5 260.4 110.4 260.7 110.9 260.8 C 110.8 261.0 110.6 260.9 110.8 261.2 C 110.0 261.2 110.8 260.9 110.2 260.9 C 109.8 261.0 110.2 261.0 110.2 261.2 C 109.9 261.2 109.7 261.1 109.5 261.1 C 109.5 261.0 109.5 260.8 109.6 260.7 C 109.8 260.7 110.1 260.8 110.0 260.6 C 109.8 260.6 109.8 260.6 109.6 260.6 C 109.6 260.6 109.6 260.6 109.6 260.6 Z M 149.1 250.1 C 148.9 250.4 149.2 250.3 149.4 250.1 C 149.4 250.0 149.2 249.5 149.7 249.4 C 149.2 250.2 150.2 249.4 149.9 249.9 C 149.6 249.9 149.3 250.4 149.0 250.7 C 148.7 250.7 148.8 250.1 149.1 250.1 C 149.1 250.1 149.1 250.1 149.1 250.1 Z M 150.5 249.1 C 150.4 249.1 150.3 249.2 150.1 249.4 C 150.1 249.0 149.8 249.3 150.0 249.0 C 150.1 249.1 151.0 248.3 150.5 248.8 C 150.0 249.2 150.8 248.8 151.0 248.6 C 150.7 248.8 150.5 249.4 150.3 249.3 C 150.5 249.2 150.6 249.1 150.5 249.1 C 150.5 249.1 150.5 249.1 150.5 249.1 Z M 158.1 237.1 C 158.0 237.0 157.9 237.3 157.8 237.4 C 158.2 236.5 158.5 235.6 158.7 235.1 C 158.5 235.6 158.7 235.6 158.9 235.4 C 158.7 235.9 158.7 236.0 158.6 236.2 C 158.5 235.7 158.4 236.5 158.1 237.1 C 158.1 237.1 158.1 237.1 158.1 237.1 Z M 158.1 237.1 " fill="#9D4F4A"></path><text xml:space="preserve" font-family="Avenir-Medium" font-size="28.0" fill="#5B5753" transform="matrix(1.00, 0.00, -0.00, -1.00, 235.0, 634.0)">4</text><text xml:space="preserve" font-family="Avenir-Medium" font-size="28.0" fill="#5B5753" transform="matrix(1.00, 0.00, -0.00, -1.00, 251.1, 634.0)">.</text><text xml:space="preserve" font-family="Avenir-Medium" font-size="28.0" fill="#5B5753" transform="matrix(1.00, 0.00, -0.00, -1.00, 259.5, 634.0)"> </text><text xml:space="preserve" font-family="Avenir-Medium" font-size="28.0" fill="#5B5753" transform="matrix(1.00, 0.00, -0.00, -1.00, 267.8, 634.0)">I</text><text xml:space="preserve" font-family="Avenir-Medium" font-size="28.0" fill="#5B5753" transform="matrix(1.00, 0.00, -0.00, -1.00, 276.2, 634.0)">n</text><text xml:space="preserve" font-family="Avenir-Medium" font-size="28.0" fill="#5B5753" transform="matrix(1.00, 0.00, -0.00, -1.00, 292.3, 634.0)">t</text><text xml:space="preserve" font-family="Avenir-Medium" font-size="28.0" fill="#5B5753" transform="matrix(1.00, 0.00, -0.00, -1.00, 303.2, 634.0)">e</text><text xml:space="preserve" font-family="Avenir-Medium" font-size="28.0" fill="#5B5753" transform="matrix(1.00, 0.00, -0.00, -1.00, 319.3, 634.0)">g</text><text xml:space="preserve" font-family="Avenir-Medium" font-size="28.0" fill="#5B5753" transform="matrix(1.00, 0.00, -0.00, -1.00, 337.0, 634.0)">r</text><text xml:space="preserve" font-family="Avenir-Medium" font-size="28.0" fill="#5B5753" transform="matrix(1.00, 0.00, -0.00, -1.00, 347.9, 634.0)">a</text><text xml:space="preserve" font-family="Avenir-Medium" font-size="28.0" fill="#5B5753" transform="matrix(1.00, 0.00, -0.00, -1.00, 363.0, 634.0)">c</text><text xml:space="preserve" font-family="Avenir-Medium" font-size="28.0" fill="#5B5753" transform="matrix(1.00, 0.00, -0.00, -1.00, 377.1, 634.0)">i</text><text xml:space="preserve" font-family="Avenir-Medium" font-size="28.0" fill="#5B5753" transform="matrix(1.00, 0.00, -0.00, -1.00, 384.4, 634.0)"></text><text xml:space="preserve" font-family="Avenir-Medium" font-size="28.0" fill="#5B5753" transform="matrix(1.00, 0.00, -0.00, -1.00, 401.5, 634.0)">n</text><text xml:space="preserve" font-family="Avenir-Medium" font-size="28.0" fill="#5B5753" transform="matrix(1.00, 0.00, -0.00, -1.00, 417.7, 634.0)"> </text><text xml:space="preserve" font-family="Avenir-Medium" font-size="28.0" fill="#5B5753" transform="matrix(1.00, 0.00, -0.00, -1.00, 426.0, 634.0)">d</text><text xml:space="preserve" font-family="Avenir-Medium" font-size="28.0" fill="#5B5753" transform="matrix(1.00, 0.00, -0.00, -1.00, 443.7, 634.0)">e</text><text xml:space="preserve" font-family="Avenir-Medium" font-size="28.0" fill="#5B5753" transform="matrix(1.00, 0.00, -0.00, -1.00, 459.8, 634.0)"> </text><text xml:space="preserve" font-family="Avenir-Medium" font-size="28.0" fill="#5B5753" transform="matrix(1.00, 0.00, -0.00, -1.00, 468.2, 634.0)">d</text><text xml:space="preserve" font-family="Avenir-Medium" font-size="28.0" fill="#5B5753" transform="matrix(1.00, 0.00, -0.00, -1.00, 485.8, 634.0)">o</text><text xml:space="preserve" font-family="Avenir-Medium" font-size="28.0" fill="#5B5753" transform="matrix(1.00, 0.00, -0.00, -1.00, 503.0, 634.0)">c</text><text xml:space="preserve" font-family="Avenir-Medium" font-size="28.0" fill="#5B5753" transform="matrix(1.00, 0.00, -0.00, -1.00, 517.1, 634.0)">u</text><text xml:space="preserve" font-family="Avenir-Medium" font-size="28.0" fill="#5B5753" transform="matrix(1.00, 0.00, -0.00, -1.00, 533.2, 634.0)">m</text><text xml:space="preserve" font-family="Avenir-Medium" font-size="28.0" fill="#5B5753" transform="matrix(1.00, 0.00, -0.00, -1.00, 557.6, 634.0)">e</text><text xml:space="preserve" font-family="Avenir-Medium" font-size="28.0" fill="#5B5753" transform="matrix(1.00, 0.00, -0.00, -1.00, 573.7, 634.0)">n</text><text xml:space="preserve" font-family="Avenir-Medium" font-size="28.0" fill="#5B5753" transform="matrix(1.00, 0.00, -0.00, -1.00, 589.9, 634.0)">t</text><text xml:space="preserve" font-family="Avenir-Medium" font-size="28.0" fill="#5B5753" transform="matrix(1.00, 0.00, -0.00, -1.00, 600.8, 634.0)">a</text><text xml:space="preserve" font-family="Avenir-Medium" font-size="28.0" fill="#5B5753" transform="matrix(1.00, 0.00, -0.00, -1.00, 615.9, 634.0)">c</text><text xml:space="preserve" font-family="Avenir-Medium" font-size="28.0" fill="#5B5753" transform="matrix(1.00, 0.00, -0.00, -1.00, 629.9, 634.0)">i</text><text xml:space="preserve" font-family="Avenir-Medium" font-size="28.0" fill="#5B5753" transform="matrix(1.00, 0.00, -0.00, -1.00, 637.2, 634.0)"></text><text xml:space="preserve" font-family="Avenir-Medium" font-size="28.0" fill="#5B5753" transform="matrix(1.00, 0.00, -0.00, -1.00, 654.4, 634.0)">n</text><text xml:space="preserve" font-family="Avenir-Medium" font-size="28.0" fill="#5B5753" transform="matrix(1.00, 0.00, -0.00, -1.00, 670.5, 634.0)"> </text><text xml:space="preserve" font-family="Avenir-Medium" font-size="28.0" fill="#5B5753" transform="matrix(1.00, 0.00, -0.00, -1.00, 678.9, 634.0)">e</text><text xml:space="preserve" font-family="Avenir-Medium" font-size="28.0" fill="#5B5753" transform="matrix(1.00, 0.00, -0.00, -1.00, 695.0, 634.0)">x</text><text xml:space="preserve" font-family="Avenir-Medium" font-size="28.0" fill="#5B5753" transform="matrix(1.00, 0.00, -0.00, -1.00, 710.1, 634.0)">t</text><text xml:space="preserve" font-family="Avenir-Medium" font-size="28.0" fill="#5B5753" transform="matrix(1.00, 0.00, -0.00, -1.00, 721.0, 634.0)">e</text><text xml:space="preserve" font-family="Avenir-Medium" font-size="28.0" fill="#5B5753" transform="matrix(1.00, 0.00, -0.00, -1.00, 737.2, 634.0)">r</text><text xml:space="preserve" font-family="Avenir-Medium" font-size="28.0" fill="#5B5753" transform="matrix(1.00, 0.00, -0.00, -1.00, 748.1, 634.0)">n</text><text xml:space="preserve" font-family="Avenir-Medium" font-size="28.0" fill="#5B5753" transform="matrix(1.00, 0.00, -0.00, -1.00, 764.2, 634.0)">a</text></g></svg>