<?xml version="1.0" encoding="UTF-8" standalone="no"?><svg xmlns="http://www.w3.org/2000/svg" xmlns:xlink="http://www.w3.org/1999/xlink" clip-rule="evenodd" stroke-miterlimit="4.00" viewBox="0 0 1024 768"><desc>SVG generated by Keynote</desc><defs><pattern id="7D2853E2-5AE8-49D2-A2D0-F61FF85FB0A7" patternUnits="userSpaceOnUse" width="337" height="337" viewBox="0 0 337 337" patternTransform="matrix(0.551929, 0.000000, 0.000000, -0.551929, 142.452300, 549.500000)"><image xlink:href="DD97A1EBFBC821ED1ACBD70777E94F29.jpeg" width="337.00" height="337.00"></image></pattern></defs><g transform="matrix(1.00, 0.00, -0.00, -1.00, 0.0, 768.0)"><g><clipPath id="clip-584"><path d="M 0.0 768.0 L 1024.0 768.0 L 1024.0 0.0 L 0.0 0.0 Z M 0.0 768.0 "></path></clipPath><g clip-path="url(#clip-584)"><image xlink:href="../../7D75CC22-08E6-46FA-89F4-20BC499AD49E/assets/D52BF74205EDDA1E3AD886EF31563845.jpeg" width="1024.00" height="768.00" transform="matrix(1.00, 0.00, -0.00, -1.00, 0.0, 768.0)"></image></g></g><text xml:space="preserve" font-family="Futura-Medium" font-size="39.6" fill="#5B5753" transform="matrix(1.00, 0.00, -0.00, -1.00, 187.0, 677.0)">D</text><text xml:space="preserve" font-family="Futura-Medium" font-size="39.6" fill="#5B5753" transform="matrix(1.00, 0.00, -0.00, -1.00, 216.5, 677.0)">R</text><text xml:space="preserve" font-family="Futura-Medium" font-size="39.6" fill="#5B5753" transform="matrix(1.00, 0.00, -0.00, -1.00, 241.2, 677.0)">F</text><text xml:space="preserve" font-family="Futura-Medium" font-size="39.6" fill="#5B5753" transform="matrix(1.00, 0.00, -0.00, -1.00, 263.3, 677.0)">-</text><text xml:space="preserve" font-family="Futura-Medium" font-size="39.6" fill="#5B5753" transform="matrix(1.00, 0.00, -0.00, -1.00, 272.7, 677.0)">S</text><text xml:space="preserve" font-family="Futura-Medium" font-size="39.6" fill="#5B5753" transform="matrix(1.00, 0.00, -0.00, -1.00, 296.5, 677.0)">W</text><text xml:space="preserve" font-family="Futura-Medium" font-size="39.6" fill="#5B5753" transform="matrix(1.00, 0.00, -0.00, -1.00, 336.7, 677.0)">A</text><text xml:space="preserve" font-family="Futura-Medium" font-size="39.6" fill="#5B5753" transform="matrix(1.00, 0.00, -0.00, -1.00, 365.4, 677.0)">G</text><text xml:space="preserve" font-family="Futura-Medium" font-size="39.6" fill="#5B5753" transform="matrix(1.00, 0.00, -0.00, -1.00, 399.6, 677.0)">G</text><text xml:space="preserve" font-family="Futura-Medium" font-size="39.6" fill="#5B5753" transform="matrix(1.00, 0.00, -0.00, -1.00, 433.7, 677.0)">E</text><text xml:space="preserve" font-family="Futura-Medium" font-size="39.6" fill="#5B5753" transform="matrix(1.00, 0.00, -0.00, -1.00, 456.9, 677.0)">R</text><text xml:space="preserve" font-family="Futura-Medium" font-size="39.6" fill="#5B5753" transform="matrix(1.00, 0.00, -0.00, -1.00, 482.1, 677.0)">-</text><text xml:space="preserve" font-family="Futura-Medium" font-size="39.6" fill="#5B5753" transform="matrix(1.00, 0.00, -0.00, -1.00, 491.5, 677.0)">C</text><text xml:space="preserve" font-family="Futura-Medium" font-size="39.6" fill="#5B5753" transform="matrix(1.00, 0.00, -0.00, -1.00, 520.1, 677.0)">U</text><text xml:space="preserve" font-family="Futura-Medium" font-size="39.6" fill="#5B5753" transform="matrix(1.00, 0.00, -0.00, -1.00, 550.1, 677.0)">S</text><text xml:space="preserve" font-family="Futura-Medium" font-size="39.6" fill="#5B5753" transform="matrix(1.00, 0.00, -0.00, -1.00, 574.6, 677.0)">T</text><text xml:space="preserve" font-family="Futura-Medium" font-size="39.6" fill="#5B5753" transform="matrix(1.00, 0.00, -0.00, -1.00, 593.5, 677.0)">O</text><text xml:space="preserve" font-family="Futura-Medium" font-size="39.6" fill="#5B5753" transform="matrix(1.00, 0.00, -0.00, -1.00, 629.7, 677.0)">M</text><text xml:space="preserve" font-family="Futura-Medium" font-size="39.6" fill="#5B5753" transform="matrix(1.00, 0.00, -0.00, -1.00, 668.5, 677.0)">I</text><text xml:space="preserve" font-family="Futura-Medium" font-size="39.6" fill="#5B5753" transform="matrix(1.00, 0.00, -0.00, -1.00, 681.0, 677.0)">Z</text><text xml:space="preserve" font-family="Futura-Medium" font-size="39.6" fill="#5B5753" transform="matrix(1.00, 0.00, -0.00, -1.00, 706.6, 677.0)">A</text><text xml:space="preserve" font-family="Futura-Medium" font-size="39.6" fill="#5B5753" transform="matrix(1.00, 0.00, -0.00, -1.00, 735.0, 677.0)">T</text><text xml:space="preserve" font-family="Futura-Medium" font-size="39.6" fill="#5B5753" transform="matrix(1.00, 0.00, -0.00, -1.00, 754.9, 677.0)">I</text><text xml:space="preserve" font-family="Futura-Medium" font-size="39.6" fill="#5B5753" transform="matrix(1.00, 0.00, -0.00, -1.00, 767.4, 677.0)">O</text><text xml:space="preserve" font-family="Futura-Medium" font-size="39.6" fill="#5B5753" transform="matrix(1.00, 0.00, -0.00, -1.00, 803.5, 677.0)">N</text><text xml:space="preserve" font-family="Avenir-Medium" font-size="28.0" fill="#5B5753" transform="matrix(1.00, 0.00, -0.00, -1.00, 210.0, 634.0)">3</text><text xml:space="preserve" font-family="Avenir-Medium" font-size="28.0" fill="#5B5753" transform="matrix(1.00, 0.00, -0.00, -1.00, 226.1, 634.0)">.</text><text xml:space="preserve" font-family="Avenir-Medium" font-size="28.0" fill="#5B5753" transform="matrix(1.00, 0.00, -0.00, -1.00, 234.5, 634.0)"> </text><text xml:space="preserve" font-family="Avenir-Medium" font-size="28.0" fill="#5B5753" transform="matrix(1.00, 0.00, -0.00, -1.00, 242.8, 634.0)">A</text><text xml:space="preserve" font-family="Avenir-Medium" font-size="28.0" fill="#5B5753" transform="matrix(1.00, 0.00, -0.00, -1.00, 263.1, 634.0)">ñ</text><text xml:space="preserve" font-family="Avenir-Medium" font-size="28.0" fill="#5B5753" transform="matrix(1.00, 0.00, -0.00, -1.00, 279.2, 634.0)">a</text><text xml:space="preserve" font-family="Avenir-Medium" font-size="28.0" fill="#5B5753" transform="matrix(1.00, 0.00, -0.00, -1.00, 294.3, 634.0)">d</text><text xml:space="preserve" font-family="Avenir-Medium" font-size="28.0" fill="#5B5753" transform="matrix(1.00, 0.00, -0.00, -1.00, 312.0, 634.0)">i</text><text xml:space="preserve" font-family="Avenir-Medium" font-size="28.0" fill="#5B5753" transform="matrix(1.00, 0.00, -0.00, -1.00, 319.3, 634.0)">r</text><text xml:space="preserve" font-family="Avenir-Medium" font-size="28.0" fill="#5B5753" transform="matrix(1.00, 0.00, -0.00, -1.00, 330.2, 634.0)"> </text><text xml:space="preserve" font-family="Avenir-Medium" font-size="28.0" fill="#5B5753" transform="matrix(1.00, 0.00, -0.00, -1.00, 338.5, 634.0)">P</text><text xml:space="preserve" font-family="Avenir-Medium" font-size="28.0" fill="#5B5753" transform="matrix(1.00, 0.00, -0.00, -1.00, 355.7, 634.0)">a</text><text xml:space="preserve" font-family="Avenir-Medium" font-size="28.0" fill="#5B5753" transform="matrix(1.00, 0.00, -0.00, -1.00, 370.8, 634.0)">r</text><text xml:space="preserve" font-family="Avenir-Medium" font-size="28.0" fill="#5B5753" transform="matrix(1.00, 0.00, -0.00, -1.00, 381.7, 634.0)">á</text><text xml:space="preserve" font-family="Avenir-Medium" font-size="28.0" fill="#5B5753" transform="matrix(1.00, 0.00, -0.00, -1.00, 396.8, 634.0)">m</text><text xml:space="preserve" font-family="Avenir-Medium" font-size="28.0" fill="#5B5753" transform="matrix(1.00, 0.00, -0.00, -1.00, 421.2, 634.0)">e</text><text xml:space="preserve" font-family="Avenir-Medium" font-size="28.0" fill="#5B5753" transform="matrix(1.00, 0.00, -0.00, -1.00, 437.3, 634.0)">t</text><text xml:space="preserve" font-family="Avenir-Medium" font-size="28.0" fill="#5B5753" transform="matrix(1.00, 0.00, -0.00, -1.00, 448.3, 634.0)">r</text><text xml:space="preserve" font-family="Avenir-Medium" font-size="28.0" fill="#5B5753" transform="matrix(1.00, 0.00, -0.00, -1.00, 458.7, 634.0)">o</text><text xml:space="preserve" font-family="Avenir-Medium" font-size="28.0" fill="#5B5753" transform="matrix(1.00, 0.00, -0.00, -1.00, 475.9, 634.0)">s</text><text xml:space="preserve" font-family="Avenir-Medium" font-size="28.0" fill="#5B5753" transform="matrix(1.00, 0.00, -0.00, -1.00, 488.9, 634.0)"> </text><text xml:space="preserve" font-family="Avenir-Medium" font-size="28.0" fill="#5B5753" transform="matrix(1.00, 0.00, -0.00, -1.00, 497.2, 634.0)">d</text><text xml:space="preserve" font-family="Avenir-Medium" font-size="28.0" fill="#5B5753" transform="matrix(1.00, 0.00, -0.00, -1.00, 514.9, 634.0)">e</text><text xml:space="preserve" font-family="Avenir-Medium" font-size="28.0" fill="#5B5753" transform="matrix(1.00, 0.00, -0.00, -1.00, 531.0, 634.0)"> </text><text xml:space="preserve" font-family="Avenir-Medium" font-size="28.0" fill="#5B5753" transform="matrix(1.00, 0.00, -0.00, -1.00, 539.3, 634.0)">f</text><text xml:space="preserve" font-family="Avenir-Medium" font-size="28.0" fill="#5B5753" transform="matrix(1.00, 0.00, -0.00, -1.00, 549.2, 634.0)">i</text><text xml:space="preserve" font-family="Avenir-Medium" font-size="28.0" fill="#5B5753" transform="matrix(1.00, 0.00, -0.00, -1.00, 556.5, 634.0)">l</text><text xml:space="preserve" font-family="Avenir-Medium" font-size="28.0" fill="#5B5753" transform="matrix(1.00, 0.00, -0.00, -1.00, 563.8, 634.0)">t</text><text xml:space="preserve" font-family="Avenir-Medium" font-size="28.0" fill="#5B5753" transform="matrix(1.00, 0.00, -0.00, -1.00, 574.7, 634.0)">r</text><text xml:space="preserve" font-family="Avenir-Medium" font-size="28.0" fill="#5B5753" transform="matrix(1.00, 0.00, -0.00, -1.00, 585.6, 634.0)">a</text><text xml:space="preserve" font-family="Avenir-Medium" font-size="28.0" fill="#5B5753" transform="matrix(1.00, 0.00, -0.00, -1.00, 600.7, 634.0)">d</text><text xml:space="preserve" font-family="Avenir-Medium" font-size="28.0" fill="#5B5753" transform="matrix(1.00, 0.00, -0.00, -1.00, 618.4, 634.0)">o</text><text xml:space="preserve" font-family="Avenir-Medium" font-size="28.0" fill="#5B5753" transform="matrix(1.00, 0.00, -0.00, -1.00, 635.6, 634.0)"> </text><text xml:space="preserve" font-family="Avenir-Medium" font-size="28.0" fill="#5B5753" transform="matrix(1.00, 0.00, -0.00, -1.00, 643.9, 634.0)">a</text><text xml:space="preserve" font-family="Avenir-Medium" font-size="28.0" fill="#5B5753" transform="matrix(1.00, 0.00, -0.00, -1.00, 659.0, 634.0)"> </text><text xml:space="preserve" font-family="Avenir-Medium" font-size="28.0" fill="#5B5753" transform="matrix(1.00, 0.00, -0.00, -1.00, 667.4, 634.0)">e</text><text xml:space="preserve" font-family="Avenir-Medium" font-size="28.0" fill="#5B5753" transform="matrix(1.00, 0.00, -0.00, -1.00, 683.5, 634.0)">n</text><text xml:space="preserve" font-family="Avenir-Medium" font-size="28.0" fill="#5B5753" transform="matrix(1.00, 0.00, -0.00, -1.00, 699.6, 634.0)">d</text><text xml:space="preserve" font-family="Avenir-Medium" font-size="28.0" fill="#5B5753" transform="matrix(1.00, 0.00, -0.00, -1.00, 717.3, 634.0)">p</text><text xml:space="preserve" font-family="Avenir-Medium" font-size="28.0" fill="#5B5753" transform="matrix(1.00, 0.00, -0.00, -1.00, 734.9, 634.0)">o</text><text xml:space="preserve" font-family="Avenir-Medium" font-size="28.0" fill="#5B5753" transform="matrix(1.00, 0.00, -0.00, -1.00, 752.1, 634.0)">i</text><text xml:space="preserve" font-family="Avenir-Medium" font-size="28.0" fill="#5B5753" transform="matrix(1.00, 0.00, -0.00, -1.00, 759.4, 634.0)">n</text><text xml:space="preserve" font-family="Avenir-Medium" font-size="28.0" fill="#5B5753" transform="matrix(1.00, 0.00, -0.00, -1.00, 775.5, 634.0)">t</text><text xml:space="preserve" font-family="Avenir-Medium" font-size="28.0" fill="#5B5753" transform="matrix(1.00, 0.00, -0.00, -1.00, 786.5, 634.0)">s</text><g><clipPath id="clip-585"><path d="M 142.5 549.5 L 881.5 549.5 L 881.5 215.5 L 142.5 215.5 Z M 142.5 549.5 "></path></clipPath><g clip-path="url(#clip-585)"><path d="M 142.5 215.5 L 881.5 215.5 L 881.5 549.5 L 142.5 549.5 Z M 142.5 215.5 " fill="url(#7D2853E2-5AE8-49D2-A2D0-F61FF85FB0A7)"></path><path d="M 142.5 549.5 L 881.5 549.5 L 881.5 215.5 L 142.5 215.5 Z M 142.5 549.5 " fill="#000000" fill-opacity="0.63"></path></g></g><path d="M 0.0 0.0 L 739.1 0.0 L 739.1 334.0 L 0.0 334.0 Z M 0.0 0.0 " fill="none" stroke="#000000" stroke-width="3.00" transform="matrix(1.00, 0.00, 0.00, -1.00, 142.5, 549.5)"></path><g><clipPath id="clip-586"><path d="M 143.3 216.3 L 880.7 216.3 L 880.7 548.7 L 143.3 548.7 Z M 143.3 216.3 "></path></clipPath><g clip-path="url(#clip-586)"><path d="M 148.0 544.0 L 282.8 544.0 L 282.8 525.0 L 148.0 525.0 Z M 148.0 544.0 " fill="#000000" fill-opacity="0.00"></path><path d="M 148.0 525.0 L 253.9 525.0 L 253.9 506.0 L 148.0 506.0 Z M 148.0 525.0 " fill="#000000" fill-opacity="0.00"></path><path d="M 148.0 506.0 L 408.0 506.0 L 408.0 487.0 L 148.0 487.0 Z M 148.0 506.0 " fill="#000000" fill-opacity="0.00"></path><path d="M 148.0 487.0 L 331.0 487.0 L 331.0 468.0 L 148.0 468.0 Z M 148.0 487.0 " fill="#000000" fill-opacity="0.00"></path><path d="M 148.0 468.0 L 292.4 468.0 L 292.4 449.0 L 148.0 449.0 Z M 148.0 468.0 " fill="#000000" fill-opacity="0.00"></path><path d="M 148.0 449.0 L 398.4 449.0 L 398.4 430.0 L 148.0 430.0 Z M 148.0 449.0 " fill="#000000" fill-opacity="0.00"></path><path d="M 148.0 430.0 L 225.0 430.0 L 225.0 411.0 L 148.0 411.0 Z M 148.0 430.0 " fill="#000000" fill-opacity="0.00"></path><path d="M 148.0 411.0 L 215.4 411.0 L 215.4 392.0 L 148.0 392.0 Z M 148.0 411.0 " fill="#000000" fill-opacity="0.00"></path><path d="M 148.0 392.0 L 359.9 392.0 L 359.9 373.0 L 148.0 373.0 Z M 148.0 392.0 " fill="#000000" fill-opacity="0.00"></path><path d="M 148.0 373.0 L 851.1 373.0 L 851.1 354.0 L 148.0 354.0 Z M 148.0 373.0 " fill="#000000" fill-opacity="0.00"></path><path d="M 148.0 354.0 L 812.6 354.0 L 812.6 335.0 L 148.0 335.0 Z M 148.0 354.0 " fill="#000000" fill-opacity="0.00"></path><path d="M 148.0 335.0 L 282.8 335.0 L 282.8 316.0 L 148.0 316.0 Z M 148.0 335.0 " fill="#000000" fill-opacity="0.00"></path><path d="M 148.0 316.0 L 292.4 316.0 L 292.4 297.0 L 148.0 297.0 Z M 148.0 316.0 " fill="#000000" fill-opacity="0.00"></path><path d="M 148.0 297.0 L 205.7 297.0 L 205.7 278.0 L 148.0 278.0 Z M 148.0 297.0 " fill="#000000" fill-opacity="0.00"></path><path d="M 148.0 278.0 L 186.5 278.0 L 186.5 259.0 L 148.0 259.0 Z M 148.0 278.0 " fill="#000000" fill-opacity="0.00"></path><path d="M 148.0 259.0 L 186.5 259.0 L 186.5 240.0 L 148.0 240.0 Z M 148.0 259.0 " fill="#000000" fill-opacity="0.00"></path><path d="M 148.0 240.0 L 157.6 240.0 L 157.6 221.0 L 148.0 221.0 Z M 148.0 240.0 " fill="#000000" fill-opacity="0.00"></path><text xml:space="preserve" font-family="Menlo-Regular" font-size="16.0" fill="#9776AA" transform="matrix(1.00, 0.00, -0.00, -1.00, 148.0, 529.0)">"</text><text xml:space="preserve" font-family="Menlo-Regular" font-size="16.0" fill="#9776AA" transform="matrix(1.00, 0.00, -0.00, -1.00, 157.6, 529.0)">/</text><text xml:space="preserve" font-family="Menlo-Regular" font-size="16.0" fill="#9776AA" transform="matrix(1.00, 0.00, -0.00, -1.00, 167.3, 529.0)">m</text><text xml:space="preserve" font-family="Menlo-Regular" font-size="16.0" fill="#9776AA" transform="matrix(1.00, 0.00, -0.00, -1.00, 176.9, 529.0)">o</text><text xml:space="preserve" font-family="Menlo-Regular" font-size="16.0" fill="#9776AA" transform="matrix(1.00, 0.00, -0.00, -1.00, 186.5, 529.0)">v</text><text xml:space="preserve" font-family="Menlo-Regular" font-size="16.0" fill="#9776AA" transform="matrix(1.00, 0.00, -0.00, -1.00, 196.2, 529.0)">i</text><text xml:space="preserve" font-family="Menlo-Regular" font-size="16.0" fill="#9776AA" transform="matrix(1.00, 0.00, -0.00, -1.00, 205.8, 529.0)">e</text><text xml:space="preserve" font-family="Menlo-Regular" font-size="16.0" fill="#9776AA" transform="matrix(1.00, 0.00, -0.00, -1.00, 215.4, 529.0)">s</text><text xml:space="preserve" font-family="Menlo-Regular" font-size="16.0" fill="#9776AA" transform="matrix(1.00, 0.00, -0.00, -1.00, 225.1, 529.0)">/</text><text xml:space="preserve" font-family="Menlo-Regular" font-size="16.0" fill="#9776AA" transform="matrix(1.00, 0.00, -0.00, -1.00, 234.7, 529.0)">"</text><text xml:space="preserve" font-family="Menlo-Regular" font-size="16.0" fill="#CC7831" transform="matrix(1.00, 0.00, -0.00, -1.00, 244.3, 529.0)">:</text><text xml:space="preserve" font-family="Menlo-Regular" font-size="16.0" fill="#CC7831" transform="matrix(1.00, 0.00, -0.00, -1.00, 254.0, 529.0)"> </text><text xml:space="preserve" font-family="Menlo-Regular" font-size="16.0" fill="#A9B6C6" transform="matrix(1.00, 0.00, -0.00, -1.00, 263.6, 529.0)">{</text><text xml:space="preserve" font-family="Menlo-Regular" font-size="16.0" fill="#A9B6C6" transform="matrix(1.00, 0.00, -0.00, -1.00, 273.2, 529.0)"> </text><text xml:space="preserve" font-family="Menlo-Regular" font-size="16.0" fill="#A9B6C6" transform="matrix(1.00, 0.00, -0.00, -1.00, 148.0, 510.0)"> </text><text xml:space="preserve" font-family="Menlo-Regular" font-size="16.0" fill="#A9B6C6" transform="matrix(1.00, 0.00, -0.00, -1.00, 157.6, 510.0)"> </text><text xml:space="preserve" font-family="Menlo-Regular" font-size="16.0" fill="#9776AA" transform="matrix(1.00, 0.00, -0.00, -1.00, 167.3, 510.0)">"</text><text xml:space="preserve" font-family="Menlo-Regular" font-size="16.0" fill="#9776AA" transform="matrix(1.00, 0.00, -0.00, -1.00, 176.9, 510.0)">g</text><text xml:space="preserve" font-family="Menlo-Regular" font-size="16.0" fill="#9776AA" transform="matrix(1.00, 0.00, -0.00, -1.00, 186.5, 510.0)">e</text><text xml:space="preserve" font-family="Menlo-Regular" font-size="16.0" fill="#9776AA" transform="matrix(1.00, 0.00, -0.00, -1.00, 196.2, 510.0)">t</text><text xml:space="preserve" font-family="Menlo-Regular" font-size="16.0" fill="#9776AA" transform="matrix(1.00, 0.00, -0.00, -1.00, 205.8, 510.0)">"</text><text xml:space="preserve" font-family="Menlo-Regular" font-size="16.0" fill="#CC7831" transform="matrix(1.00, 0.00, -0.00, -1.00, 215.4, 510.0)">:</text><text xml:space="preserve" font-family="Menlo-Regular" font-size="16.0" fill="#CC7831" transform="matrix(1.00, 0.00, -0.00, -1.00, 225.1, 510.0)"> </text><text xml:space="preserve" font-family="Menlo-Regular" font-size="16.0" fill="#A9B6C6" transform="matrix(1.00, 0.00, -0.00, -1.00, 234.7, 510.0)">{</text><text xml:space="preserve" font-family="Menlo-Regular" font-size="16.0" fill="#A9B6C6" transform="matrix(1.00, 0.00, -0.00, -1.00, 244.3, 510.0)"> </text><text xml:space="preserve" font-family="Menlo-Regular" font-size="16.0" fill="#A9B6C6" transform="matrix(1.00, 0.00, -0.00, -1.00, 148.0, 491.0)"> </text><text xml:space="preserve" font-family="Menlo-Regular" font-size="16.0" fill="#A9B6C6" transform="matrix(1.00, 0.00, -0.00, -1.00, 157.6, 491.0)"> </text><text xml:space="preserve" font-family="Menlo-Regular" font-size="16.0" fill="#A9B6C6" transform="matrix(1.00, 0.00, -0.00, -1.00, 167.3, 491.0)"> </text><text xml:space="preserve" font-family="Menlo-Regular" font-size="16.0" fill="#A9B6C6" transform="matrix(1.00, 0.00, -0.00, -1.00, 176.9, 491.0)"> </text><text xml:space="preserve" font-family="Menlo-Regular" font-size="16.0" fill="#9776AA" transform="matrix(1.00, 0.00, -0.00, -1.00, 186.5, 491.0)">"</text><text xml:space="preserve" font-family="Menlo-Regular" font-size="16.0" fill="#9776AA" transform="matrix(1.00, 0.00, -0.00, -1.00, 196.2, 491.0)">o</text><text xml:space="preserve" font-family="Menlo-Regular" font-size="16.0" fill="#9776AA" transform="matrix(1.00, 0.00, -0.00, -1.00, 205.8, 491.0)">p</text><text xml:space="preserve" font-family="Menlo-Regular" font-size="16.0" fill="#9776AA" transform="matrix(1.00, 0.00, -0.00, -1.00, 215.4, 491.0)">e</text><text xml:space="preserve" font-family="Menlo-Regular" font-size="16.0" fill="#9776AA" transform="matrix(1.00, 0.00, -0.00, -1.00, 225.1, 491.0)">r</text><text xml:space="preserve" font-family="Menlo-Regular" font-size="16.0" fill="#9776AA" transform="matrix(1.00, 0.00, -0.00, -1.00, 234.7, 491.0)">a</text><text xml:space="preserve" font-family="Menlo-Regular" font-size="16.0" fill="#9776AA" transform="matrix(1.00, 0.00, -0.00, -1.00, 244.3, 491.0)">t</text><text xml:space="preserve" font-family="Menlo-Regular" font-size="16.0" fill="#9776AA" transform="matrix(1.00, 0.00, -0.00, -1.00, 254.0, 491.0)">i</text><text xml:space="preserve" font-family="Menlo-Regular" font-size="16.0" fill="#9776AA" transform="matrix(1.00, 0.00, -0.00, -1.00, 263.6, 491.0)">o</text><text xml:space="preserve" font-family="Menlo-Regular" font-size="16.0" fill="#9776AA" transform="matrix(1.00, 0.00, -0.00, -1.00, 273.2, 491.0)">n</text><text xml:space="preserve" font-family="Menlo-Regular" font-size="16.0" fill="#9776AA" transform="matrix(1.00, 0.00, -0.00, -1.00, 282.9, 491.0)">I</text><text xml:space="preserve" font-family="Menlo-Regular" font-size="16.0" fill="#9776AA" transform="matrix(1.00, 0.00, -0.00, -1.00, 292.5, 491.0)">d</text><text xml:space="preserve" font-family="Menlo-Regular" font-size="16.0" fill="#9776AA" transform="matrix(1.00, 0.00, -0.00, -1.00, 302.1, 491.0)">"</text><text xml:space="preserve" font-family="Menlo-Regular" font-size="16.0" fill="#CC7831" transform="matrix(1.00, 0.00, -0.00, -1.00, 311.8, 491.0)">:</text><text xml:space="preserve" font-family="Menlo-Regular" font-size="16.0" fill="#CC7831" transform="matrix(1.00, 0.00, -0.00, -1.00, 321.4, 491.0)"> </text><text xml:space="preserve" font-family="Menlo-Regular" font-size="16.0" fill="#6A8758" transform="matrix(1.00, 0.00, -0.00, -1.00, 331.0, 491.0)">"</text><text xml:space="preserve" font-family="Menlo-Regular" font-size="16.0" fill="#6A8758" transform="matrix(1.00, 0.00, -0.00, -1.00, 340.7, 491.0)">l</text><text xml:space="preserve" font-family="Menlo-Regular" font-size="16.0" fill="#6A8758" transform="matrix(1.00, 0.00, -0.00, -1.00, 350.3, 491.0)">i</text><text xml:space="preserve" font-family="Menlo-Regular" font-size="16.0" fill="#6A8758" transform="matrix(1.00, 0.00, -0.00, -1.00, 359.9, 491.0)">s</text><text xml:space="preserve" font-family="Menlo-Regular" font-size="16.0" fill="#6A8758" transform="matrix(1.00, 0.00, -0.00, -1.00, 369.6, 491.0)">t</text><text xml:space="preserve" font-family="Menlo-Regular" font-size="16.0" fill="#6A8758" transform="matrix(1.00, 0.00, -0.00, -1.00, 379.2, 491.0)">"</text><text xml:space="preserve" font-family="Menlo-Regular" font-size="16.0" fill="#CC7831" transform="matrix(1.00, 0.00, -0.00, -1.00, 388.8, 491.0)">,</text><text xml:space="preserve" font-family="Menlo-Regular" font-size="16.0" fill="#CC7831" transform="matrix(1.00, 0.00, -0.00, -1.00, 398.5, 491.0)"> </text><text xml:space="preserve" font-family="Menlo-Regular" font-size="16.0" fill="#CC7831" transform="matrix(1.00, 0.00, -0.00, -1.00, 148.0, 472.0)"> </text><text xml:space="preserve" font-family="Menlo-Regular" font-size="16.0" fill="#CC7831" transform="matrix(1.00, 0.00, -0.00, -1.00, 157.6, 472.0)"> </text><text xml:space="preserve" font-family="Menlo-Regular" font-size="16.0" fill="#CC7831" transform="matrix(1.00, 0.00, -0.00, -1.00, 167.3, 472.0)"> </text><text xml:space="preserve" font-family="Menlo-Regular" font-size="16.0" fill="#CC7831" transform="matrix(1.00, 0.00, -0.00, -1.00, 176.9, 472.0)"> </text><text xml:space="preserve" font-family="Menlo-Regular" font-size="16.0" fill="#9776AA" transform="matrix(1.00, 0.00, -0.00, -1.00, 186.5, 472.0)">"</text><text xml:space="preserve" font-family="Menlo-Regular" font-size="16.0" fill="#9776AA" transform="matrix(1.00, 0.00, -0.00, -1.00, 196.2, 472.0)">r</text><text xml:space="preserve" font-family="Menlo-Regular" font-size="16.0" fill="#9776AA" transform="matrix(1.00, 0.00, -0.00, -1.00, 205.8, 472.0)">e</text><text xml:space="preserve" font-family="Menlo-Regular" font-size="16.0" fill="#9776AA" transform="matrix(1.00, 0.00, -0.00, -1.00, 215.4, 472.0)">s</text><text xml:space="preserve" font-family="Menlo-Regular" font-size="16.0" fill="#9776AA" transform="matrix(1.00, 0.00, -0.00, -1.00, 225.1, 472.0)">p</text><text xml:space="preserve" font-family="Menlo-Regular" font-size="16.0" fill="#9776AA" transform="matrix(1.00, 0.00, -0.00, -1.00, 234.7, 472.0)">o</text><text xml:space="preserve" font-family="Menlo-Regular" font-size="16.0" fill="#9776AA" transform="matrix(1.00, 0.00, -0.00, -1.00, 244.3, 472.0)">n</text><text xml:space="preserve" font-family="Menlo-Regular" font-size="16.0" fill="#9776AA" transform="matrix(1.00, 0.00, -0.00, -1.00, 254.0, 472.0)">s</text><text xml:space="preserve" font-family="Menlo-Regular" font-size="16.0" fill="#9776AA" transform="matrix(1.00, 0.00, -0.00, -1.00, 263.6, 472.0)">e</text><text xml:space="preserve" font-family="Menlo-Regular" font-size="16.0" fill="#9776AA" transform="matrix(1.00, 0.00, -0.00, -1.00, 273.2, 472.0)">s</text><text xml:space="preserve" font-family="Menlo-Regular" font-size="16.0" fill="#9776AA" transform="matrix(1.00, 0.00, -0.00, -1.00, 282.9, 472.0)">"</text><text xml:space="preserve" font-family="Menlo-Regular" font-size="16.0" fill="#CC7831" transform="matrix(1.00, 0.00, -0.00, -1.00, 292.5, 472.0)">:</text><text xml:space="preserve" font-family="Menlo-Regular" font-size="16.0" fill="#CC7831" transform="matrix(1.00, 0.00, -0.00, -1.00, 302.1, 472.0)"> </text><text xml:space="preserve" font-family="Menlo-Regular" font-size="16.0" fill="#A9B6C6" transform="matrix(1.00, 0.00, -0.00, -1.00, 311.8, 472.0)">{</text><text xml:space="preserve" font-family="Menlo-Regular" font-size="16.0" fill="#A9B6C6" transform="matrix(1.00, 0.00, -0.00, -1.00, 321.4, 472.0)"> </text><text xml:space="preserve" font-family="Menlo-Regular" font-size="16.0" fill="#A9B6C6" transform="matrix(1.00, 0.00, -0.00, -1.00, 148.0, 453.0)"> </text><text xml:space="preserve" font-family="Menlo-Regular" font-size="16.0" fill="#A9B6C6" transform="matrix(1.00, 0.00, -0.00, -1.00, 157.6, 453.0)"> </text><text xml:space="preserve" font-family="Menlo-Regular" font-size="16.0" fill="#A9B6C6" transform="matrix(1.00, 0.00, -0.00, -1.00, 167.3, 453.0)"> </text><text xml:space="preserve" font-family="Menlo-Regular" font-size="16.0" fill="#A9B6C6" transform="matrix(1.00, 0.00, -0.00, -1.00, 176.9, 453.0)"> </text><text xml:space="preserve" font-family="Menlo-Regular" font-size="16.0" fill="#A9B6C6" transform="matrix(1.00, 0.00, -0.00, -1.00, 186.5, 453.0)"> </text><text xml:space="preserve" font-family="Menlo-Regular" font-size="16.0" fill="#A9B6C6" transform="matrix(1.00, 0.00, -0.00, -1.00, 196.2, 453.0)"> </text><text xml:space="preserve" font-family="Menlo-Regular" font-size="16.0" fill="#9776AA" transform="matrix(1.00, 0.00, -0.00, -1.00, 205.8, 453.0)">"</text><text xml:space="preserve" font-family="Menlo-Regular" font-size="16.0" fill="#9776AA" transform="matrix(1.00, 0.00, -0.00, -1.00, 215.4, 453.0)">2</text><text xml:space="preserve" font-family="Menlo-Regular" font-size="16.0" fill="#9776AA" transform="matrix(1.00, 0.00, -0.00, -1.00, 225.1, 453.0)">0</text><text xml:space="preserve" font-family="Menlo-Regular" font-size="16.0" fill="#9776AA" transform="matrix(1.00, 0.00, -0.00, -1.00, 234.7, 453.0)">0</text><text xml:space="preserve" font-family="Menlo-Regular" font-size="16.0" fill="#9776AA" transform="matrix(1.00, 0.00, -0.00, -1.00, 244.3, 453.0)">"</text><text xml:space="preserve" font-family="Menlo-Regular" font-size="16.0" fill="#CC7831" transform="matrix(1.00, 0.00, -0.00, -1.00, 254.0, 453.0)">:</text><text xml:space="preserve" font-family="Menlo-Regular" font-size="16.0" fill="#CC7831" transform="matrix(1.00, 0.00, -0.00, -1.00, 263.6, 453.0)"> </text><text xml:space="preserve" font-family="Menlo-Regular" font-size="16.0" fill="#A9B6C6" transform="matrix(1.00, 0.00, -0.00, -1.00, 273.2, 453.0)">{</text><text xml:space="preserve" font-family="Menlo-Regular" font-size="16.0" fill="#A9B6C6" transform="matrix(1.00, 0.00, -0.00, -1.00, 282.9, 453.0)"> </text><text xml:space="preserve" font-family="Menlo-Regular" font-size="16.0" fill="#A9B6C6" transform="matrix(1.00, 0.00, -0.00, -1.00, 148.0, 434.0)"> </text><text xml:space="preserve" font-family="Menlo-Regular" font-size="16.0" fill="#A9B6C6" transform="matrix(1.00, 0.00, -0.00, -1.00, 157.6, 434.0)"> </text><text xml:space="preserve" font-family="Menlo-Regular" font-size="16.0" fill="#A9B6C6" transform="matrix(1.00, 0.00, -0.00, -1.00, 167.3, 434.0)"> </text><text xml:space="preserve" font-family="Menlo-Regular" font-size="16.0" fill="#A9B6C6" transform="matrix(1.00, 0.00, -0.00, -1.00, 176.9, 434.0)"> </text><text xml:space="preserve" font-family="Menlo-Regular" font-size="16.0" fill="#A9B6C6" transform="matrix(1.00, 0.00, -0.00, -1.00, 186.5, 434.0)"> </text><text xml:space="preserve" font-family="Menlo-Regular" font-size="16.0" fill="#A9B6C6" transform="matrix(1.00, 0.00, -0.00, -1.00, 196.2, 434.0)"> </text><text xml:space="preserve" font-family="Menlo-Regular" font-size="16.0" fill="#A9B6C6" transform="matrix(1.00, 0.00, -0.00, -1.00, 205.8, 434.0)"> </text><text xml:space="preserve" font-family="Menlo-Regular" font-size="16.0" fill="#A9B6C6" transform="matrix(1.00, 0.00, -0.00, -1.00, 215.4, 434.0)"> </text><text xml:space="preserve" font-family="Menlo-Regular" font-size="16.0" fill="#9776AA" transform="matrix(1.00, 0.00, -0.00, -1.00, 225.1, 434.0)">"</text><text xml:space="preserve" font-family="Menlo-Regular" font-size="16.0" fill="#9776AA" transform="matrix(1.00, 0.00, -0.00, -1.00, 234.7, 434.0)">d</text><text xml:space="preserve" font-family="Menlo-Regular" font-size="16.0" fill="#9776AA" transform="matrix(1.00, 0.00, -0.00, -1.00, 244.3, 434.0)">e</text><text xml:space="preserve" font-family="Menlo-Regular" font-size="16.0" fill="#9776AA" transform="matrix(1.00, 0.00, -0.00, -1.00, 254.0, 434.0)">s</text><text xml:space="preserve" font-family="Menlo-Regular" font-size="16.0" fill="#9776AA" transform="matrix(1.00, 0.00, -0.00, -1.00, 263.6, 434.0)">c</text><text xml:space="preserve" font-family="Menlo-Regular" font-size="16.0" fill="#9776AA" transform="matrix(1.00, 0.00, -0.00, -1.00, 273.2, 434.0)">r</text><text xml:space="preserve" font-family="Menlo-Regular" font-size="16.0" fill="#9776AA" transform="matrix(1.00, 0.00, -0.00, -1.00, 282.9, 434.0)">i</text><text xml:space="preserve" font-family="Menlo-Regular" font-size="16.0" fill="#9776AA" transform="matrix(1.00, 0.00, -0.00, -1.00, 292.5, 434.0)">p</text><text xml:space="preserve" font-family="Menlo-Regular" font-size="16.0" fill="#9776AA" transform="matrix(1.00, 0.00, -0.00, -1.00, 302.1, 434.0)">t</text><text xml:space="preserve" font-family="Menlo-Regular" font-size="16.0" fill="#9776AA" transform="matrix(1.00, 0.00, -0.00, -1.00, 311.8, 434.0)">i</text><text xml:space="preserve" font-family="Menlo-Regular" font-size="16.0" fill="#9776AA" transform="matrix(1.00, 0.00, -0.00, -1.00, 321.4, 434.0)">o</text><text xml:space="preserve" font-family="Menlo-Regular" font-size="16.0" fill="#9776AA" transform="matrix(1.00, 0.00, -0.00, -1.00, 331.0, 434.0)">n</text><text xml:space="preserve" font-family="Menlo-Regular" font-size="16.0" fill="#9776AA" transform="matrix(1.00, 0.00, -0.00, -1.00, 340.7, 434.0)">"</text><text xml:space="preserve" font-family="Menlo-Regular" font-size="16.0" fill="#CC7831" transform="matrix(1.00, 0.00, -0.00, -1.00, 350.3, 434.0)">:</text><text xml:space="preserve" font-family="Menlo-Regular" font-size="16.0" fill="#CC7831" transform="matrix(1.00, 0.00, -0.00, -1.00, 359.9, 434.0)"> </text><text xml:space="preserve" font-family="Menlo-Regular" font-size="16.0" fill="#6A8758" transform="matrix(1.00, 0.00, -0.00, -1.00, 369.6, 434.0)">"</text><text xml:space="preserve" font-family="Menlo-Regular" font-size="16.0" fill="#6A8758" transform="matrix(1.00, 0.00, -0.00, -1.00, 379.2, 434.0)">"</text><text xml:space="preserve" font-family="Menlo-Regular" font-size="16.0" fill="#6A8758" transform="matrix(1.00, 0.00, -0.00, -1.00, 388.8, 434.0)"> </text><text xml:space="preserve" font-family="Menlo-Regular" font-size="16.0" fill="#6A8758" transform="matrix(1.00, 0.00, -0.00, -1.00, 148.0, 415.0)"> </text><text xml:space="preserve" font-family="Menlo-Regular" font-size="16.0" fill="#6A8758" transform="matrix(1.00, 0.00, -0.00, -1.00, 157.6, 415.0)"> </text><text xml:space="preserve" font-family="Menlo-Regular" font-size="16.0" fill="#6A8758" transform="matrix(1.00, 0.00, -0.00, -1.00, 167.3, 415.0)"> </text><text xml:space="preserve" font-family="Menlo-Regular" font-size="16.0" fill="#6A8758" transform="matrix(1.00, 0.00, -0.00, -1.00, 176.9, 415.0)"> </text><text xml:space="preserve" font-family="Menlo-Regular" font-size="16.0" fill="#6A8758" transform="matrix(1.00, 0.00, -0.00, -1.00, 186.5, 415.0)"> </text><text xml:space="preserve" font-family="Menlo-Regular" font-size="16.0" fill="#6A8758" transform="matrix(1.00, 0.00, -0.00, -1.00, 196.2, 415.0)"> </text><text xml:space="preserve" font-family="Menlo-Regular" font-size="16.0" fill="#A9B6C6" transform="matrix(1.00, 0.00, -0.00, -1.00, 205.8, 415.0)">}</text><text xml:space="preserve" font-family="Menlo-Regular" font-size="16.0" fill="#A9B6C6" transform="matrix(1.00, 0.00, -0.00, -1.00, 215.4, 415.0)"> </text><text xml:space="preserve" font-family="Menlo-Regular" font-size="16.0" fill="#A9B6C6" transform="matrix(1.00, 0.00, -0.00, -1.00, 148.0, 396.0)"> </text><text xml:space="preserve" font-family="Menlo-Regular" font-size="16.0" fill="#A9B6C6" transform="matrix(1.00, 0.00, -0.00, -1.00, 157.6, 396.0)"> </text><text xml:space="preserve" font-family="Menlo-Regular" font-size="16.0" fill="#A9B6C6" transform="matrix(1.00, 0.00, -0.00, -1.00, 167.3, 396.0)"> </text><text xml:space="preserve" font-family="Menlo-Regular" font-size="16.0" fill="#A9B6C6" transform="matrix(1.00, 0.00, -0.00, -1.00, 176.9, 396.0)"> </text><text xml:space="preserve" font-family="Menlo-Regular" font-size="16.0" fill="#A9B6C6" transform="matrix(1.00, 0.00, -0.00, -1.00, 186.5, 396.0)">}</text><text xml:space="preserve" font-family="Menlo-Regular" font-size="16.0" fill="#CC7831" transform="matrix(1.00, 0.00, -0.00, -1.00, 196.2, 396.0)">,</text><text xml:space="preserve" font-family="Menlo-Regular" font-size="16.0" fill="#CC7831" transform="matrix(1.00, 0.00, -0.00, -1.00, 205.8, 396.0)"> </text><text xml:space="preserve" font-family="Menlo-Regular" font-size="16.0" fill="#CC7831" transform="matrix(1.00, 0.00, -0.00, -1.00, 148.0, 377.0)"> </text><text xml:space="preserve" font-family="Menlo-Regular" font-size="16.0" fill="#CC7831" transform="matrix(1.00, 0.00, -0.00, -1.00, 157.6, 377.0)"> </text><text xml:space="preserve" font-family="Menlo-Regular" font-size="16.0" fill="#CC7831" transform="matrix(1.00, 0.00, -0.00, -1.00, 167.3, 377.0)"> </text><text xml:space="preserve" font-family="Menlo-Regular" font-size="16.0" fill="#CC7831" transform="matrix(1.00, 0.00, -0.00, -1.00, 176.9, 377.0)"> </text><text xml:space="preserve" font-family="Menlo-Regular" font-size="16.0" fill="#9776AA" transform="matrix(1.00, 0.00, -0.00, -1.00, 186.5, 377.0)">"</text><text xml:space="preserve" font-family="Menlo-Regular" font-size="16.0" fill="#9776AA" transform="matrix(1.00, 0.00, -0.00, -1.00, 196.2, 377.0)">p</text><text xml:space="preserve" font-family="Menlo-Regular" font-size="16.0" fill="#9776AA" transform="matrix(1.00, 0.00, -0.00, -1.00, 205.8, 377.0)">a</text><text xml:space="preserve" font-family="Menlo-Regular" font-size="16.0" fill="#9776AA" transform="matrix(1.00, 0.00, -0.00, -1.00, 215.4, 377.0)">r</text><text xml:space="preserve" font-family="Menlo-Regular" font-size="16.0" fill="#9776AA" transform="matrix(1.00, 0.00, -0.00, -1.00, 225.1, 377.0)">a</text><text xml:space="preserve" font-family="Menlo-Regular" font-size="16.0" fill="#9776AA" transform="matrix(1.00, 0.00, -0.00, -1.00, 234.7, 377.0)">m</text><text xml:space="preserve" font-family="Menlo-Regular" font-size="16.0" fill="#9776AA" transform="matrix(1.00, 0.00, -0.00, -1.00, 244.3, 377.0)">e</text><text xml:space="preserve" font-family="Menlo-Regular" font-size="16.0" fill="#9776AA" transform="matrix(1.00, 0.00, -0.00, -1.00, 254.0, 377.0)">t</text><text xml:space="preserve" font-family="Menlo-Regular" font-size="16.0" fill="#9776AA" transform="matrix(1.00, 0.00, -0.00, -1.00, 263.6, 377.0)">e</text><text xml:space="preserve" font-family="Menlo-Regular" font-size="16.0" fill="#9776AA" transform="matrix(1.00, 0.00, -0.00, -1.00, 273.2, 377.0)">r</text><text xml:space="preserve" font-family="Menlo-Regular" font-size="16.0" fill="#9776AA" transform="matrix(1.00, 0.00, -0.00, -1.00, 282.9, 377.0)">s</text><text xml:space="preserve" font-family="Menlo-Regular" font-size="16.0" fill="#9776AA" transform="matrix(1.00, 0.00, -0.00, -1.00, 292.5, 377.0)">"</text><text xml:space="preserve" font-family="Menlo-Regular" font-size="16.0" fill="#CC7831" transform="matrix(1.00, 0.00, -0.00, -1.00, 302.1, 377.0)">:</text><text xml:space="preserve" font-family="Menlo-Regular" font-size="16.0" fill="#CC7831" transform="matrix(1.00, 0.00, -0.00, -1.00, 311.8, 377.0)"> </text><text xml:space="preserve" font-family="Menlo-Regular" font-size="16.0" fill="#A9B6C6" transform="matrix(1.00, 0.00, -0.00, -1.00, 321.4, 377.0)">[</text><text xml:space="preserve" font-family="Menlo-Regular" font-size="16.0" fill="#A9B6C6" transform="matrix(1.00, 0.00, -0.00, -1.00, 331.0, 377.0)">]</text><text xml:space="preserve" font-family="Menlo-Regular" font-size="16.0" fill="#CC7831" transform="matrix(1.00, 0.00, -0.00, -1.00, 340.7, 377.0)">,</text><text xml:space="preserve" font-family="Menlo-Regular" font-size="16.0" fill="#CC7831" transform="matrix(1.00, 0.00, -0.00, -1.00, 350.3, 377.0)"> </text><text xml:space="preserve" font-family="Menlo-Regular" font-size="16.0" fill="#CC7831" transform="matrix(1.00, 0.00, -0.00, -1.00, 148.0, 358.0)"> </text><text xml:space="preserve" font-family="Menlo-Regular" font-size="16.0" fill="#CC7831" transform="matrix(1.00, 0.00, -0.00, -1.00, 157.6, 358.0)"> </text><text xml:space="preserve" font-family="Menlo-Regular" font-size="16.0" fill="#CC7831" transform="matrix(1.00, 0.00, -0.00, -1.00, 167.3, 358.0)"> </text><text xml:space="preserve" font-family="Menlo-Regular" font-size="16.0" fill="#CC7831" transform="matrix(1.00, 0.00, -0.00, -1.00, 176.9, 358.0)"> </text><text xml:space="preserve" font-family="Menlo-Regular" font-size="16.0" fill="#9776AA" transform="matrix(1.00, 0.00, -0.00, -1.00, 186.5, 358.0)">"</text><text xml:space="preserve" font-family="Menlo-Regular" font-size="16.0" fill="#9776AA" transform="matrix(1.00, 0.00, -0.00, -1.00, 196.2, 358.0)">d</text><text xml:space="preserve" font-family="Menlo-Regular" font-size="16.0" fill="#9776AA" transform="matrix(1.00, 0.00, -0.00, -1.00, 205.8, 358.0)">e</text><text xml:space="preserve" font-family="Menlo-Regular" font-size="16.0" fill="#9776AA" transform="matrix(1.00, 0.00, -0.00, -1.00, 215.4, 358.0)">s</text><text xml:space="preserve" font-family="Menlo-Regular" font-size="16.0" fill="#9776AA" transform="matrix(1.00, 0.00, -0.00, -1.00, 225.1, 358.0)">c</text><text xml:space="preserve" font-family="Menlo-Regular" font-size="16.0" fill="#9776AA" transform="matrix(1.00, 0.00, -0.00, -1.00, 234.7, 358.0)">r</text><text xml:space="preserve" font-family="Menlo-Regular" font-size="16.0" fill="#9776AA" transform="matrix(1.00, 0.00, -0.00, -1.00, 244.3, 358.0)">i</text><text xml:space="preserve" font-family="Menlo-Regular" font-size="16.0" fill="#9776AA" transform="matrix(1.00, 0.00, -0.00, -1.00, 254.0, 358.0)">p</text><text xml:space="preserve" font-family="Menlo-Regular" font-size="16.0" fill="#9776AA" transform="matrix(1.00, 0.00, -0.00, -1.00, 263.6, 358.0)">t</text><text xml:space="preserve" font-family="Menlo-Regular" font-size="16.0" fill="#9776AA" transform="matrix(1.00, 0.00, -0.00, -1.00, 273.2, 358.0)">i</text><text xml:space="preserve" font-family="Menlo-Regular" font-size="16.0" fill="#9776AA" transform="matrix(1.00, 0.00, -0.00, -1.00, 282.9, 358.0)">o</text><text xml:space="preserve" font-family="Menlo-Regular" font-size="16.0" fill="#9776AA" transform="matrix(1.00, 0.00, -0.00, -1.00, 292.5, 358.0)">n</text><text xml:space="preserve" font-family="Menlo-Regular" font-size="16.0" fill="#9776AA" transform="matrix(1.00, 0.00, -0.00, -1.00, 302.1, 358.0)">"</text><text xml:space="preserve" font-family="Menlo-Regular" font-size="16.0" fill="#CC7831" transform="matrix(1.00, 0.00, -0.00, -1.00, 311.8, 358.0)">:</text><text xml:space="preserve" font-family="Menlo-Regular" font-size="16.0" fill="#CC7831" transform="matrix(1.00, 0.00, -0.00, -1.00, 321.4, 358.0)"> </text><text xml:space="preserve" font-family="Menlo-Regular" font-size="16.0" fill="#6A8758" transform="matrix(1.00, 0.00, -0.00, -1.00, 331.0, 358.0)">"</text><text xml:space="preserve" font-family="Menlo-Regular" font-size="16.0" fill="#6A8758" transform="matrix(1.00, 0.00, -0.00, -1.00, 340.7, 358.0)">A</text><text xml:space="preserve" font-family="Menlo-Regular" font-size="16.0" fill="#6A8758" transform="matrix(1.00, 0.00, -0.00, -1.00, 350.3, 358.0)"> </text><text xml:space="preserve" font-family="Menlo-Regular" font-size="16.0" fill="#6A8758" transform="matrix(1.00, 0.00, -0.00, -1.00, 359.9, 358.0)">s</text><text xml:space="preserve" font-family="Menlo-Regular" font-size="16.0" fill="#6A8758" transform="matrix(1.00, 0.00, -0.00, -1.00, 369.6, 358.0)">i</text><text xml:space="preserve" font-family="Menlo-Regular" font-size="16.0" fill="#6A8758" transform="matrix(1.00, 0.00, -0.00, -1.00, 379.2, 358.0)">m</text><text xml:space="preserve" font-family="Menlo-Regular" font-size="16.0" fill="#6A8758" transform="matrix(1.00, 0.00, -0.00, -1.00, 388.8, 358.0)">p</text><text xml:space="preserve" font-family="Menlo-Regular" font-size="16.0" fill="#6A8758" transform="matrix(1.00, 0.00, -0.00, -1.00, 398.5, 358.0)">l</text><text xml:space="preserve" font-family="Menlo-Regular" font-size="16.0" fill="#6A8758" transform="matrix(1.00, 0.00, -0.00, -1.00, 408.1, 358.0)">e</text><text xml:space="preserve" font-family="Menlo-Regular" font-size="16.0" fill="#6A8758" transform="matrix(1.00, 0.00, -0.00, -1.00, 417.7, 358.0)"> </text><text xml:space="preserve" font-family="Menlo-Regular" font-size="16.0" fill="#6A8758" transform="matrix(1.00, 0.00, -0.00, -1.00, 427.4, 358.0)">V</text><text xml:space="preserve" font-family="Menlo-Regular" font-size="16.0" fill="#6A8758" transform="matrix(1.00, 0.00, -0.00, -1.00, 437.0, 358.0)">i</text><text xml:space="preserve" font-family="Menlo-Regular" font-size="16.0" fill="#6A8758" transform="matrix(1.00, 0.00, -0.00, -1.00, 446.6, 358.0)">e</text><text xml:space="preserve" font-family="Menlo-Regular" font-size="16.0" fill="#6A8758" transform="matrix(1.00, 0.00, -0.00, -1.00, 456.3, 358.0)">w</text><text xml:space="preserve" font-family="Menlo-Regular" font-size="16.0" fill="#6A8758" transform="matrix(1.00, 0.00, -0.00, -1.00, 465.9, 358.0)">S</text><text xml:space="preserve" font-family="Menlo-Regular" font-size="16.0" fill="#6A8758" transform="matrix(1.00, 0.00, -0.00, -1.00, 475.5, 358.0)">e</text><text xml:space="preserve" font-family="Menlo-Regular" font-size="16.0" fill="#6A8758" transform="matrix(1.00, 0.00, -0.00, -1.00, 485.2, 358.0)">t</text><text xml:space="preserve" font-family="Menlo-Regular" font-size="16.0" fill="#6A8758" transform="matrix(1.00, 0.00, -0.00, -1.00, 494.8, 358.0)"> </text><text xml:space="preserve" font-family="Menlo-Regular" font-size="16.0" fill="#6A8758" transform="matrix(1.00, 0.00, -0.00, -1.00, 504.4, 358.0)">f</text><text xml:space="preserve" font-family="Menlo-Regular" font-size="16.0" fill="#6A8758" transform="matrix(1.00, 0.00, -0.00, -1.00, 514.1, 358.0)">o</text><text xml:space="preserve" font-family="Menlo-Regular" font-size="16.0" fill="#6A8758" transform="matrix(1.00, 0.00, -0.00, -1.00, 523.7, 358.0)">r</text><text xml:space="preserve" font-family="Menlo-Regular" font-size="16.0" fill="#6A8758" transform="matrix(1.00, 0.00, -0.00, -1.00, 533.3, 358.0)"> </text><text xml:space="preserve" font-family="Menlo-Regular" font-size="16.0" fill="#6A8758" transform="matrix(1.00, 0.00, -0.00, -1.00, 543.0, 358.0)">v</text><text xml:space="preserve" font-family="Menlo-Regular" font-size="16.0" fill="#6A8758" transform="matrix(1.00, 0.00, -0.00, -1.00, 552.6, 358.0)">i</text><text xml:space="preserve" font-family="Menlo-Regular" font-size="16.0" fill="#6A8758" transform="matrix(1.00, 0.00, -0.00, -1.00, 562.2, 358.0)">e</text><text xml:space="preserve" font-family="Menlo-Regular" font-size="16.0" fill="#6A8758" transform="matrix(1.00, 0.00, -0.00, -1.00, 571.9, 358.0)">w</text><text xml:space="preserve" font-family="Menlo-Regular" font-size="16.0" fill="#6A8758" transform="matrix(1.00, 0.00, -0.00, -1.00, 581.5, 358.0)">i</text><text xml:space="preserve" font-family="Menlo-Regular" font-size="16.0" fill="#6A8758" transform="matrix(1.00, 0.00, -0.00, -1.00, 591.2, 358.0)">n</text><text xml:space="preserve" font-family="Menlo-Regular" font-size="16.0" fill="#6A8758" transform="matrix(1.00, 0.00, -0.00, -1.00, 600.8, 358.0)">g</text><text xml:space="preserve" font-family="Menlo-Regular" font-size="16.0" fill="#6A8758" transform="matrix(1.00, 0.00, -0.00, -1.00, 610.4, 358.0)"> </text><text xml:space="preserve" font-family="Menlo-Regular" font-size="16.0" fill="#6A8758" transform="matrix(1.00, 0.00, -0.00, -1.00, 620.1, 358.0)">a</text><text xml:space="preserve" font-family="Menlo-Regular" font-size="16.0" fill="#6A8758" transform="matrix(1.00, 0.00, -0.00, -1.00, 629.7, 358.0)">n</text><text xml:space="preserve" font-family="Menlo-Regular" font-size="16.0" fill="#6A8758" transform="matrix(1.00, 0.00, -0.00, -1.00, 639.3, 358.0)">d</text><text xml:space="preserve" font-family="Menlo-Regular" font-size="16.0" fill="#6A8758" transform="matrix(1.00, 0.00, -0.00, -1.00, 649.0, 358.0)"> </text><text xml:space="preserve" font-family="Menlo-Regular" font-size="16.0" fill="#6A8758" transform="matrix(1.00, 0.00, -0.00, -1.00, 658.6, 358.0)">e</text><text xml:space="preserve" font-family="Menlo-Regular" font-size="16.0" fill="#6A8758" transform="matrix(1.00, 0.00, -0.00, -1.00, 668.2, 358.0)">d</text><text xml:space="preserve" font-family="Menlo-Regular" font-size="16.0" fill="#6A8758" transform="matrix(1.00, 0.00, -0.00, -1.00, 677.9, 358.0)">i</text><text xml:space="preserve" font-family="Menlo-Regular" font-size="16.0" fill="#6A8758" transform="matrix(1.00, 0.00, -0.00, -1.00, 687.5, 358.0)">t</text><text xml:space="preserve" font-family="Menlo-Regular" font-size="16.0" fill="#6A8758" transform="matrix(1.00, 0.00, -0.00, -1.00, 697.1, 358.0)">i</text><text xml:space="preserve" font-family="Menlo-Regular" font-size="16.0" fill="#6A8758" transform="matrix(1.00, 0.00, -0.00, -1.00, 706.8, 358.0)">n</text><text xml:space="preserve" font-family="Menlo-Regular" font-size="16.0" fill="#6A8758" transform="matrix(1.00, 0.00, -0.00, -1.00, 716.4, 358.0)">g</text><text xml:space="preserve" font-family="Menlo-Regular" font-size="16.0" fill="#6A8758" transform="matrix(1.00, 0.00, -0.00, -1.00, 726.0, 358.0)"> </text><text xml:space="preserve" font-family="Menlo-Regular" font-size="16.0" fill="#6A8758" transform="matrix(1.00, 0.00, -0.00, -1.00, 735.7, 358.0)">a</text><text xml:space="preserve" font-family="Menlo-Regular" font-size="16.0" fill="#6A8758" transform="matrix(1.00, 0.00, -0.00, -1.00, 745.3, 358.0)">c</text><text xml:space="preserve" font-family="Menlo-Regular" font-size="16.0" fill="#6A8758" transform="matrix(1.00, 0.00, -0.00, -1.00, 754.9, 358.0)">c</text><text xml:space="preserve" font-family="Menlo-Regular" font-size="16.0" fill="#6A8758" transform="matrix(1.00, 0.00, -0.00, -1.00, 764.6, 358.0)">o</text><text xml:space="preserve" font-family="Menlo-Regular" font-size="16.0" fill="#6A8758" transform="matrix(1.00, 0.00, -0.00, -1.00, 774.2, 358.0)">u</text><text xml:space="preserve" font-family="Menlo-Regular" font-size="16.0" fill="#6A8758" transform="matrix(1.00, 0.00, -0.00, -1.00, 783.8, 358.0)">n</text><text xml:space="preserve" font-family="Menlo-Regular" font-size="16.0" fill="#6A8758" transform="matrix(1.00, 0.00, -0.00, -1.00, 793.5, 358.0)">t</text><text xml:space="preserve" font-family="Menlo-Regular" font-size="16.0" fill="#6A8758" transform="matrix(1.00, 0.00, -0.00, -1.00, 803.1, 358.0)">s</text><text xml:space="preserve" font-family="Menlo-Regular" font-size="16.0" fill="#6A8758" transform="matrix(1.00, 0.00, -0.00, -1.00, 812.7, 358.0)">.</text><text xml:space="preserve" font-family="Menlo-Regular" font-size="16.0" fill="#6A8758" transform="matrix(1.00, 0.00, -0.00, -1.00, 822.4, 358.0)">"</text><text xml:space="preserve" font-family="Menlo-Regular" font-size="16.0" fill="#CC7831" transform="matrix(1.00, 0.00, -0.00, -1.00, 831.9, 358.0)">,</text><text xml:space="preserve" font-family="Menlo-Regular" font-size="16.0" fill="#CC7831" transform="matrix(1.00, 0.00, -0.00, -1.00, 841.6, 358.0)"> </text><text xml:space="preserve" font-family="Menlo-Regular" font-size="16.0" fill="#CC7831" transform="matrix(1.00, 0.00, -0.00, -1.00, 148.0, 339.0)"> </text><text xml:space="preserve" font-family="Menlo-Regular" font-size="16.0" fill="#CC7831" transform="matrix(1.00, 0.00, -0.00, -1.00, 157.6, 339.0)"> </text><text xml:space="preserve" font-family="Menlo-Regular" font-size="16.0" fill="#CC7831" transform="matrix(1.00, 0.00, -0.00, -1.00, 167.3, 339.0)"> </text><text xml:space="preserve" font-family="Menlo-Regular" font-size="16.0" fill="#CC7831" transform="matrix(1.00, 0.00, -0.00, -1.00, 176.9, 339.0)"> </text><text xml:space="preserve" font-family="Menlo-Regular" font-size="16.0" fill="#9776AA" transform="matrix(1.00, 0.00, -0.00, -1.00, 186.5, 339.0)">"</text><text xml:space="preserve" font-family="Menlo-Regular" font-size="16.0" fill="#9776AA" transform="matrix(1.00, 0.00, -0.00, -1.00, 196.2, 339.0)">s</text><text xml:space="preserve" font-family="Menlo-Regular" font-size="16.0" fill="#9776AA" transform="matrix(1.00, 0.00, -0.00, -1.00, 205.8, 339.0)">u</text><text xml:space="preserve" font-family="Menlo-Regular" font-size="16.0" fill="#9776AA" transform="matrix(1.00, 0.00, -0.00, -1.00, 215.4, 339.0)">m</text><text xml:space="preserve" font-family="Menlo-Regular" font-size="16.0" fill="#9776AA" transform="matrix(1.00, 0.00, -0.00, -1.00, 225.1, 339.0)">m</text><text xml:space="preserve" font-family="Menlo-Regular" font-size="16.0" fill="#9776AA" transform="matrix(1.00, 0.00, -0.00, -1.00, 234.7, 339.0)">a</text><text xml:space="preserve" font-family="Menlo-Regular" font-size="16.0" fill="#9776AA" transform="matrix(1.00, 0.00, -0.00, -1.00, 244.3, 339.0)">r</text><text xml:space="preserve" font-family="Menlo-Regular" font-size="16.0" fill="#9776AA" transform="matrix(1.00, 0.00, -0.00, -1.00, 254.0, 339.0)">y</text><text xml:space="preserve" font-family="Menlo-Regular" font-size="16.0" fill="#9776AA" transform="matrix(1.00, 0.00, -0.00, -1.00, 263.6, 339.0)">"</text><text xml:space="preserve" font-family="Menlo-Regular" font-size="16.0" fill="#CC7831" transform="matrix(1.00, 0.00, -0.00, -1.00, 273.2, 339.0)">:</text><text xml:space="preserve" font-family="Menlo-Regular" font-size="16.0" fill="#CC7831" transform="matrix(1.00, 0.00, -0.00, -1.00, 282.9, 339.0)"> </text><text xml:space="preserve" font-family="Menlo-Regular" font-size="16.0" fill="#6A8758" transform="matrix(1.00, 0.00, -0.00, -1.00, 292.5, 339.0)">"</text><text xml:space="preserve" font-family="Menlo-Regular" font-size="16.0" fill="#6A8758" transform="matrix(1.00, 0.00, -0.00, -1.00, 302.1, 339.0)">A</text><text xml:space="preserve" font-family="Menlo-Regular" font-size="16.0" fill="#6A8758" transform="matrix(1.00, 0.00, -0.00, -1.00, 311.8, 339.0)"> </text><text xml:space="preserve" font-family="Menlo-Regular" font-size="16.0" fill="#6A8758" transform="matrix(1.00, 0.00, -0.00, -1.00, 321.4, 339.0)">s</text><text xml:space="preserve" font-family="Menlo-Regular" font-size="16.0" fill="#6A8758" transform="matrix(1.00, 0.00, -0.00, -1.00, 331.0, 339.0)">i</text><text xml:space="preserve" font-family="Menlo-Regular" font-size="16.0" fill="#6A8758" transform="matrix(1.00, 0.00, -0.00, -1.00, 340.7, 339.0)">m</text><text xml:space="preserve" font-family="Menlo-Regular" font-size="16.0" fill="#6A8758" transform="matrix(1.00, 0.00, -0.00, -1.00, 350.3, 339.0)">p</text><text xml:space="preserve" font-family="Menlo-Regular" font-size="16.0" fill="#6A8758" transform="matrix(1.00, 0.00, -0.00, -1.00, 359.9, 339.0)">l</text><text xml:space="preserve" font-family="Menlo-Regular" font-size="16.0" fill="#6A8758" transform="matrix(1.00, 0.00, -0.00, -1.00, 369.6, 339.0)">e</text><text xml:space="preserve" font-family="Menlo-Regular" font-size="16.0" fill="#6A8758" transform="matrix(1.00, 0.00, -0.00, -1.00, 379.2, 339.0)"> </text><text xml:space="preserve" font-family="Menlo-Regular" font-size="16.0" fill="#6A8758" transform="matrix(1.00, 0.00, -0.00, -1.00, 388.8, 339.0)">V</text><text xml:space="preserve" font-family="Menlo-Regular" font-size="16.0" fill="#6A8758" transform="matrix(1.00, 0.00, -0.00, -1.00, 398.5, 339.0)">i</text><text xml:space="preserve" font-family="Menlo-Regular" font-size="16.0" fill="#6A8758" transform="matrix(1.00, 0.00, -0.00, -1.00, 408.1, 339.0)">e</text><text xml:space="preserve" font-family="Menlo-Regular" font-size="16.0" fill="#6A8758" transform="matrix(1.00, 0.00, -0.00, -1.00, 417.7, 339.0)">w</text><text xml:space="preserve" font-family="Menlo-Regular" font-size="16.0" fill="#6A8758" transform="matrix(1.00, 0.00, -0.00, -1.00, 427.4, 339.0)">S</text><text xml:space="preserve" font-family="Menlo-Regular" font-size="16.0" fill="#6A8758" transform="matrix(1.00, 0.00, -0.00, -1.00, 437.0, 339.0)">e</text><text xml:space="preserve" font-family="Menlo-Regular" font-size="16.0" fill="#6A8758" transform="matrix(1.00, 0.00, -0.00, -1.00, 446.6, 339.0)">t</text><text xml:space="preserve" font-family="Menlo-Regular" font-size="16.0" fill="#6A8758" transform="matrix(1.00, 0.00, -0.00, -1.00, 456.3, 339.0)"> </text><text xml:space="preserve" font-family="Menlo-Regular" font-size="16.0" fill="#6A8758" transform="matrix(1.00, 0.00, -0.00, -1.00, 465.9, 339.0)">f</text><text xml:space="preserve" font-family="Menlo-Regular" font-size="16.0" fill="#6A8758" transform="matrix(1.00, 0.00, -0.00, -1.00, 475.5, 339.0)">o</text><text xml:space="preserve" font-family="Menlo-Regular" font-size="16.0" fill="#6A8758" transform="matrix(1.00, 0.00, -0.00, -1.00, 485.2, 339.0)">r</text><text xml:space="preserve" font-family="Menlo-Regular" font-size="16.0" fill="#6A8758" transform="matrix(1.00, 0.00, -0.00, -1.00, 494.8, 339.0)"> </text><text xml:space="preserve" font-family="Menlo-Regular" font-size="16.0" fill="#6A8758" transform="matrix(1.00, 0.00, -0.00, -1.00, 504.4, 339.0)">v</text><text xml:space="preserve" font-family="Menlo-Regular" font-size="16.0" fill="#6A8758" transform="matrix(1.00, 0.00, -0.00, -1.00, 514.1, 339.0)">i</text><text xml:space="preserve" font-family="Menlo-Regular" font-size="16.0" fill="#6A8758" transform="matrix(1.00, 0.00, -0.00, -1.00, 523.7, 339.0)">e</text><text xml:space="preserve" font-family="Menlo-Regular" font-size="16.0" fill="#6A8758" transform="matrix(1.00, 0.00, -0.00, -1.00, 533.4, 339.0)">w</text><text xml:space="preserve" font-family="Menlo-Regular" font-size="16.0" fill="#6A8758" transform="matrix(1.00, 0.00, -0.00, -1.00, 543.0, 339.0)">i</text><text xml:space="preserve" font-family="Menlo-Regular" font-size="16.0" fill="#6A8758" transform="matrix(1.00, 0.00, -0.00, -1.00, 552.6, 339.0)">n</text><text xml:space="preserve" font-family="Menlo-Regular" font-size="16.0" fill="#6A8758" transform="matrix(1.00, 0.00, -0.00, -1.00, 562.3, 339.0)">g</text><text xml:space="preserve" font-family="Menlo-Regular" font-size="16.0" fill="#6A8758" transform="matrix(1.00, 0.00, -0.00, -1.00, 571.9, 339.0)"> </text><text xml:space="preserve" font-family="Menlo-Regular" font-size="16.0" fill="#6A8758" transform="matrix(1.00, 0.00, -0.00, -1.00, 581.5, 339.0)">a</text><text xml:space="preserve" font-family="Menlo-Regular" font-size="16.0" fill="#6A8758" transform="matrix(1.00, 0.00, -0.00, -1.00, 591.2, 339.0)">n</text><text xml:space="preserve" font-family="Menlo-Regular" font-size="16.0" fill="#6A8758" transform="matrix(1.00, 0.00, -0.00, -1.00, 600.8, 339.0)">d</text><text xml:space="preserve" font-family="Menlo-Regular" font-size="16.0" fill="#6A8758" transform="matrix(1.00, 0.00, -0.00, -1.00, 610.4, 339.0)"> </text><text xml:space="preserve" font-family="Menlo-Regular" font-size="16.0" fill="#6A8758" transform="matrix(1.00, 0.00, -0.00, -1.00, 620.1, 339.0)">e</text><text xml:space="preserve" font-family="Menlo-Regular" font-size="16.0" fill="#6A8758" transform="matrix(1.00, 0.00, -0.00, -1.00, 629.7, 339.0)">d</text><text xml:space="preserve" font-family="Menlo-Regular" font-size="16.0" fill="#6A8758" transform="matrix(1.00, 0.00, -0.00, -1.00, 639.3, 339.0)">i</text><text xml:space="preserve" font-family="Menlo-Regular" font-size="16.0" fill="#6A8758" transform="matrix(1.00, 0.00, -0.00, -1.00, 649.0, 339.0)">t</text><text xml:space="preserve" font-family="Menlo-Regular" font-size="16.0" fill="#6A8758" transform="matrix(1.00, 0.00, -0.00, -1.00, 658.6, 339.0)">i</text><text xml:space="preserve" font-family="Menlo-Regular" font-size="16.0" fill="#6A8758" transform="matrix(1.00, 0.00, -0.00, -1.00, 668.2, 339.0)">n</text><text xml:space="preserve" font-family="Menlo-Regular" font-size="16.0" fill="#6A8758" transform="matrix(1.00, 0.00, -0.00, -1.00, 677.9, 339.0)">g</text><text xml:space="preserve" font-family="Menlo-Regular" font-size="16.0" fill="#6A8758" transform="matrix(1.00, 0.00, -0.00, -1.00, 687.5, 339.0)"> </text><text xml:space="preserve" font-family="Menlo-Regular" font-size="16.0" fill="#6A8758" transform="matrix(1.00, 0.00, -0.00, -1.00, 697.1, 339.0)">a</text><text xml:space="preserve" font-family="Menlo-Regular" font-size="16.0" fill="#6A8758" transform="matrix(1.00, 0.00, -0.00, -1.00, 706.8, 339.0)">c</text><text xml:space="preserve" font-family="Menlo-Regular" font-size="16.0" fill="#6A8758" transform="matrix(1.00, 0.00, -0.00, -1.00, 716.4, 339.0)">c</text><text xml:space="preserve" font-family="Menlo-Regular" font-size="16.0" fill="#6A8758" transform="matrix(1.00, 0.00, -0.00, -1.00, 726.0, 339.0)">o</text><text xml:space="preserve" font-family="Menlo-Regular" font-size="16.0" fill="#6A8758" transform="matrix(1.00, 0.00, -0.00, -1.00, 735.7, 339.0)">u</text><text xml:space="preserve" font-family="Menlo-Regular" font-size="16.0" fill="#6A8758" transform="matrix(1.00, 0.00, -0.00, -1.00, 745.3, 339.0)">n</text><text xml:space="preserve" font-family="Menlo-Regular" font-size="16.0" fill="#6A8758" transform="matrix(1.00, 0.00, -0.00, -1.00, 754.9, 339.0)">t</text><text xml:space="preserve" font-family="Menlo-Regular" font-size="16.0" fill="#6A8758" transform="matrix(1.00, 0.00, -0.00, -1.00, 764.6, 339.0)">s</text><text xml:space="preserve" font-family="Menlo-Regular" font-size="16.0" fill="#6A8758" transform="matrix(1.00, 0.00, -0.00, -1.00, 774.2, 339.0)">.</text><text xml:space="preserve" font-family="Menlo-Regular" font-size="16.0" fill="#6A8758" transform="matrix(1.00, 0.00, -0.00, -1.00, 783.8, 339.0)">"</text><text xml:space="preserve" font-family="Menlo-Regular" font-size="16.0" fill="#CC7831" transform="matrix(1.00, 0.00, -0.00, -1.00, 793.4, 339.0)">,</text><text xml:space="preserve" font-family="Menlo-Regular" font-size="16.0" fill="#CC7831" transform="matrix(1.00, 0.00, -0.00, -1.00, 803.0, 339.0)"> </text><text xml:space="preserve" font-family="Menlo-Regular" font-size="16.0" fill="#CC7831" transform="matrix(1.00, 0.00, -0.00, -1.00, 148.0, 320.0)"> </text><text xml:space="preserve" font-family="Menlo-Regular" font-size="16.0" fill="#CC7831" transform="matrix(1.00, 0.00, -0.00, -1.00, 157.6, 320.0)"> </text><text xml:space="preserve" font-family="Menlo-Regular" font-size="16.0" fill="#CC7831" transform="matrix(1.00, 0.00, -0.00, -1.00, 167.3, 320.0)"> </text><text xml:space="preserve" font-family="Menlo-Regular" font-size="16.0" fill="#CC7831" transform="matrix(1.00, 0.00, -0.00, -1.00, 176.9, 320.0)"> </text><text xml:space="preserve" font-family="Menlo-Regular" font-size="16.0" fill="#9776AA" transform="matrix(1.00, 0.00, -0.00, -1.00, 186.5, 320.0)">"</text><text xml:space="preserve" font-family="Menlo-Regular" font-size="16.0" fill="#9776AA" transform="matrix(1.00, 0.00, -0.00, -1.00, 196.2, 320.0)">t</text><text xml:space="preserve" font-family="Menlo-Regular" font-size="16.0" fill="#9776AA" transform="matrix(1.00, 0.00, -0.00, -1.00, 205.8, 320.0)">a</text><text xml:space="preserve" font-family="Menlo-Regular" font-size="16.0" fill="#9776AA" transform="matrix(1.00, 0.00, -0.00, -1.00, 215.4, 320.0)">g</text><text xml:space="preserve" font-family="Menlo-Regular" font-size="16.0" fill="#9776AA" transform="matrix(1.00, 0.00, -0.00, -1.00, 225.1, 320.0)">s</text><text xml:space="preserve" font-family="Menlo-Regular" font-size="16.0" fill="#9776AA" transform="matrix(1.00, 0.00, -0.00, -1.00, 234.7, 320.0)">"</text><text xml:space="preserve" font-family="Menlo-Regular" font-size="16.0" fill="#CC7831" transform="matrix(1.00, 0.00, -0.00, -1.00, 244.3, 320.0)">:</text><text xml:space="preserve" font-family="Menlo-Regular" font-size="16.0" fill="#CC7831" transform="matrix(1.00, 0.00, -0.00, -1.00, 254.0, 320.0)"> </text><text xml:space="preserve" font-family="Menlo-Regular" font-size="16.0" fill="#A9B6C6" transform="matrix(1.00, 0.00, -0.00, -1.00, 263.6, 320.0)">[</text><text xml:space="preserve" font-family="Menlo-Regular" font-size="16.0" fill="#A9B6C6" transform="matrix(1.00, 0.00, -0.00, -1.00, 273.2, 320.0)"> </text><text xml:space="preserve" font-family="Menlo-Regular" font-size="16.0" fill="#A9B6C6" transform="matrix(1.00, 0.00, -0.00, -1.00, 148.0, 301.0)"> </text><text xml:space="preserve" font-family="Menlo-Regular" font-size="16.0" fill="#A9B6C6" transform="matrix(1.00, 0.00, -0.00, -1.00, 157.6, 301.0)"> </text><text xml:space="preserve" font-family="Menlo-Regular" font-size="16.0" fill="#A9B6C6" transform="matrix(1.00, 0.00, -0.00, -1.00, 167.3, 301.0)"> </text><text xml:space="preserve" font-family="Menlo-Regular" font-size="16.0" fill="#A9B6C6" transform="matrix(1.00, 0.00, -0.00, -1.00, 176.9, 301.0)"> </text><text xml:space="preserve" font-family="Menlo-Regular" font-size="16.0" fill="#A9B6C6" transform="matrix(1.00, 0.00, -0.00, -1.00, 186.5, 301.0)"> </text><text xml:space="preserve" font-family="Menlo-Regular" font-size="16.0" fill="#A9B6C6" transform="matrix(1.00, 0.00, -0.00, -1.00, 196.2, 301.0)"> </text><text xml:space="preserve" font-family="Menlo-Regular" font-size="16.0" fill="#6A8758" transform="matrix(1.00, 0.00, -0.00, -1.00, 205.8, 301.0)">"</text><text xml:space="preserve" font-family="Menlo-Regular" font-size="16.0" fill="#6A8758" transform="matrix(1.00, 0.00, -0.00, -1.00, 215.4, 301.0)">m</text><text xml:space="preserve" font-family="Menlo-Regular" font-size="16.0" fill="#6A8758" transform="matrix(1.00, 0.00, -0.00, -1.00, 225.1, 301.0)">o</text><text xml:space="preserve" font-family="Menlo-Regular" font-size="16.0" fill="#6A8758" transform="matrix(1.00, 0.00, -0.00, -1.00, 234.7, 301.0)">v</text><text xml:space="preserve" font-family="Menlo-Regular" font-size="16.0" fill="#6A8758" transform="matrix(1.00, 0.00, -0.00, -1.00, 244.3, 301.0)">i</text><text xml:space="preserve" font-family="Menlo-Regular" font-size="16.0" fill="#6A8758" transform="matrix(1.00, 0.00, -0.00, -1.00, 254.0, 301.0)">e</text><text xml:space="preserve" font-family="Menlo-Regular" font-size="16.0" fill="#6A8758" transform="matrix(1.00, 0.00, -0.00, -1.00, 263.6, 301.0)">s</text><text xml:space="preserve" font-family="Menlo-Regular" font-size="16.0" fill="#6A8758" transform="matrix(1.00, 0.00, -0.00, -1.00, 273.2, 301.0)">"</text><text xml:space="preserve" font-family="Menlo-Regular" font-size="16.0" fill="#6A8758" transform="matrix(1.00, 0.00, -0.00, -1.00, 282.9, 301.0)"> </text><text xml:space="preserve" font-family="Menlo-Regular" font-size="16.0" fill="#6A8758" transform="matrix(1.00, 0.00, -0.00, -1.00, 148.0, 282.0)"> </text><text xml:space="preserve" font-family="Menlo-Regular" font-size="16.0" fill="#6A8758" transform="matrix(1.00, 0.00, -0.00, -1.00, 157.6, 282.0)"> </text><text xml:space="preserve" font-family="Menlo-Regular" font-size="16.0" fill="#6A8758" transform="matrix(1.00, 0.00, -0.00, -1.00, 167.3, 282.0)"> </text><text xml:space="preserve" font-family="Menlo-Regular" font-size="16.0" fill="#6A8758" transform="matrix(1.00, 0.00, -0.00, -1.00, 176.9, 282.0)"> </text><text xml:space="preserve" font-family="Menlo-Regular" font-size="16.0" fill="#A9B6C6" transform="matrix(1.00, 0.00, -0.00, -1.00, 186.5, 282.0)">]</text><text xml:space="preserve" font-family="Menlo-Regular" font-size="16.0" fill="#A9B6C6" transform="matrix(1.00, 0.00, -0.00, -1.00, 196.2, 282.0)"> </text><text xml:space="preserve" font-family="Menlo-Regular" font-size="16.0" fill="#A9B6C6" transform="matrix(1.00, 0.00, -0.00, -1.00, 148.0, 263.0)"> </text><text xml:space="preserve" font-family="Menlo-Regular" font-size="16.0" fill="#A9B6C6" transform="matrix(1.00, 0.00, -0.00, -1.00, 157.6, 263.0)"> </text><text xml:space="preserve" font-family="Menlo-Regular" font-size="16.0" fill="#A9B6C6" transform="matrix(1.00, 0.00, -0.00, -1.00, 167.3, 263.0)">}</text><text xml:space="preserve" font-family="Menlo-Regular" font-size="16.0" fill="#CC7831" transform="matrix(1.00, 0.00, -0.00, -1.00, 176.9, 263.0)">,</text><text xml:space="preserve" font-family="Menlo-Regular" font-size="16.0" fill="#A9B6C6" transform="matrix(1.00, 0.00, -0.00, -1.00, 186.5, 263.0)"> </text><text xml:space="preserve" font-family="Menlo-Regular" font-size="16.0" fill="#A9B6C6" transform="matrix(1.00, 0.00, -0.00, -1.00, 148.0, 244.0)"> </text><text xml:space="preserve" font-family="Menlo-Regular" font-size="16.0" fill="#A9B6C6" transform="matrix(1.00, 0.00, -0.00, -1.00, 157.6, 244.0)"> </text><text xml:space="preserve" font-family="Menlo-Regular" font-size="16.0" fill="#A9B6C6" transform="matrix(1.00, 0.00, -0.00, -1.00, 167.3, 244.0)">…</text><text xml:space="preserve" font-family="Menlo-Regular" font-size="16.0" fill="#A9B6C6" transform="matrix(1.00, 0.00, -0.00, -1.00, 176.9, 244.0)"> </text><text xml:space="preserve" font-family="Menlo-Regular" font-size="16.0" fill="#A9B6C6" transform="matrix(1.00, 0.00, -0.00, -1.00, 148.0, 225.0)">}</text></g></g><g><clipPath id="clip-587"><path d="M 130.8 372.5 L 130.8 354.5 L 172.6 384.0 L 151.7 398.8 L 130.8 413.5 L 130.8 395.5 L 105.6 395.5 L 105.6 372.5 L 130.8 372.5 Z M 130.8 372.5 "></path></clipPath><g clip-path="url(#clip-587)"><image xlink:href="../../17632589-8584-400F-B071-91D78FB489EE/assets/DD97A1EBFBC821ED1ACBD70777E94F29.jpeg" width="337.00" height="337.00" transform="matrix(0.55, 0.00, -0.00, -0.55, 105.6, 413.5)"></image><path d="M 105.6 413.5 L 172.6 413.5 L 172.6 354.5 L 105.6 354.5 Z M 105.6 413.5 " fill="#F14C3D" fill-opacity="0.46"></path></g></g><image xlink:href="A55A2C4223839AF3B97FB4B95D343ABD.png" width="416.00" height="164.00" transform="matrix(1.00, 0.00, -0.00, -1.00, 143.8, 233.9)"></image><image xlink:href="4B834999F4035A8D67B1BC154397EA95.png" width="336.00" height="52.00" transform="matrix(1.00, 0.00, -0.00, -1.00, 184.0, 179.0)"></image><image xlink:href="30B9D5584EAA3A2177ABDAB7D599C232.png" width="295.00" height="504.00" transform="matrix(1.00, 0.00, -0.00, -1.00, 668.0, 418.2)"></image><image xlink:href="4E4AA41EC1950AD09A71A3F2582E503F.png" width="214.00" height="265.00" transform="matrix(1.00, 0.00, -0.00, -1.00, 708.0, 299.0)"></image><g><clipPath id="clip-588"><path d="M 625.4 140.9 L 625.4 110.6 L 676.9 152.9 L 625.4 195.2 L 625.4 164.9 L 550.9 164.9 L 550.9 140.9 Z M 625.4 140.9 "></path></clipPath><g clip-path="url(#clip-588)"><image xlink:href="../../17632589-8584-400F-B071-91D78FB489EE/assets/DD97A1EBFBC821ED1ACBD70777E94F29.jpeg" width="337.00" height="337.00" transform="matrix(0.55, 0.00, -0.00, -0.55, 550.9, 195.2)"></image><path d="M 550.9 195.2 L 676.9 195.2 L 676.9 110.6 L 550.9 110.6 Z M 550.9 195.2 " fill="#F14C3D" fill-opacity="0.46"></path></g></g><path d="M 504.0 134.5 C 504.3 134.5 505.6 134.5 505.6 134.4 C 505.1 134.5 504.1 134.4 504.0 134.5 C 504.0 134.5 504.0 134.5 504.0 134.5 Z M 501.4 134.5 C 501.9 134.6 502.9 134.5 503.2 134.5 C 502.7 134.5 501.6 134.4 501.4 134.5 C 501.4 134.5 501.4 134.5 501.4 134.5 Z M 505.4 134.3 C 506.1 134.3 507.4 134.3 507.7 134.2 C 507.0 134.3 505.7 134.2 505.4 134.3 C 505.4 134.3 505.4 134.3 505.4 134.3 Z M 468.7 135.6 C 469.0 135.7 470.3 135.7 470.3 135.6 C 469.8 135.6 468.8 135.6 468.7 135.6 C 468.7 135.6 468.7 135.6 468.7 135.6 Z M 475.9 135.4 C 476.4 135.5 477.4 135.5 477.8 135.4 C 477.2 135.4 476.1 135.4 475.9 135.4 C 475.9 135.4 475.9 135.4 475.9 135.4 Z M 480.1 135.5 C 481.1 135.5 482.2 135.5 482.0 135.4 C 481.7 135.5 480.2 135.4 480.1 135.5 C 480.1 135.5 480.1 135.5 480.1 135.5 Z M 504.6 131.0 C 503.5 131.1 502.7 131.0 502.0 131.0 C 498.5 131.0 503.9 131.2 504.6 131.0 C 504.6 131.0 504.6 131.0 504.6 131.0 Z M 487.6 135.2 C 486.9 135.2 486.3 135.2 486.0 135.3 C 486.6 135.3 487.5 135.3 487.6 135.2 C 487.6 135.2 487.6 135.2 487.6 135.2 Z M 493.7 135.1 C 493.8 135.2 497.5 135.2 499.5 135.1 C 497.8 135.1 493.5 135.1 493.7 135.1 C 493.7 135.1 493.7 135.1 493.7 135.1 Z M 496.1 131.0 C 493.7 131.1 490.0 131.0 488.3 131.1 C 486.6 131.1 491.3 131.2 495.6 131.1 C 499.9 131.1 496.4 131.0 498.1 130.9 C 499.9 130.9 496.4 130.9 494.7 130.9 C 492.9 130.9 495.9 130.9 496.1 131.0 C 496.1 131.0 496.1 131.0 496.1 131.0 Z M 496.2 130.7 C 497.0 130.7 497.8 130.7 498.2 130.7 C 497.4 130.6 496.5 130.6 496.2 130.7 C 496.2 130.7 496.2 130.7 496.2 130.7 Z M 370.3 132.7 C 370.6 133.6 372.6 134.2 374.9 134.7 C 375.4 134.8 376.0 134.9 376.6 135.0 C 380.7 135.4 384.8 135.5 389.0 135.6 C 389.8 135.6 390.6 135.7 391.4 135.7 C 394.0 135.7 396.5 135.8 399.1 135.8 C 399.9 135.8 400.8 135.8 401.6 135.8 C 404.7 135.9 407.7 135.8 410.7 135.8 C 412.2 135.8 413.7 135.8 415.3 135.9 C 416.1 136.0 419.5 136.0 420.7 135.9 C 419.5 136.1 425.0 136.0 424.8 136.0 C 425.4 135.9 426.0 135.9 426.7 135.9 C 427.3 135.9 426.5 135.8 425.7 135.8 C 426.4 135.8 427.1 135.8 427.9 135.8 C 428.7 135.8 429.4 135.8 430.2 135.8 C 432.8 135.9 435.6 135.8 438.0 135.7 C 444.6 135.7 462.6 135.7 459.3 135.6 C 455.6 135.6 457.5 135.5 458.5 135.5 C 459.1 135.5 459.9 135.5 460.7 135.5 C 460.7 135.5 460.6 135.5 460.5 135.6 C 462.1 135.6 464.4 135.7 466.7 135.6 C 466.3 135.6 465.7 135.6 465.5 135.5 C 466.7 135.5 465.8 135.4 466.5 135.4 C 468.6 135.4 469.6 135.4 467.2 135.4 C 469.4 135.3 470.9 135.2 473.1 135.1 C 473.9 135.1 473.5 135.1 473.2 135.1 C 474.7 135.2 478.1 135.1 478.4 135.2 C 478.7 135.2 469.2 135.2 470.9 135.3 C 471.6 135.3 473.0 135.3 473.6 135.3 C 472.4 135.3 470.9 135.3 470.1 135.3 C 471.0 135.4 472.1 135.4 472.8 135.4 C 472.0 135.4 471.4 135.4 471.2 135.4 C 472.4 135.4 473.2 135.4 474.6 135.4 C 475.2 135.4 474.1 135.4 475.4 135.4 C 475.7 135.3 474.6 135.3 474.6 135.3 C 475.7 135.3 477.8 135.3 478.3 135.3 C 478.8 135.2 477.0 135.3 477.0 135.2 C 481.1 135.2 485.8 135.2 487.2 135.2 C 488.7 135.2 487.3 135.2 486.7 135.1 C 488.4 135.1 489.7 135.1 491.7 135.1 C 493.0 135.1 492.5 135.1 492.0 135.0 C 492.3 135.0 492.6 135.0 492.8 135.0 C 492.9 135.0 493.3 135.0 493.6 135.0 C 492.8 135.0 491.3 135.0 490.7 135.0 C 491.8 134.9 494.7 135.0 495.7 134.9 C 494.1 134.9 492.3 134.9 490.5 134.8 C 494.0 134.8 497.7 135.0 500.5 134.8 C 500.0 134.8 499.8 134.8 499.4 134.7 C 500.5 134.8 502.1 134.8 503.1 134.7 C 503.6 134.7 504.7 134.7 505.7 134.7 C 503.9 134.7 502.6 134.6 501.3 134.7 C 501.3 134.7 501.5 134.6 501.7 134.6 C 498.8 134.5 497.1 134.7 495.0 134.8 C 494.9 134.8 494.7 134.8 494.6 134.8 C 493.9 134.7 496.2 134.7 496.5 134.7 C 493.4 134.6 490.1 134.7 488.6 134.6 C 492.2 134.6 495.4 134.6 498.2 134.5 C 497.5 134.4 494.7 134.5 493.4 134.5 C 499.4 134.4 500.0 134.4 500.4 134.4 C 500.0 134.3 499.5 134.3 499.1 134.3 C 499.2 134.3 499.3 134.3 499.4 134.3 C 502.0 134.3 505.1 134.3 505.0 134.3 C 504.8 134.2 502.4 134.2 499.9 134.2 C 500.2 134.2 500.4 134.1 500.7 134.1 C 503.7 134.1 507.0 133.9 510.0 134.0 C 509.5 133.9 509.8 133.9 510.4 133.9 C 509.4 133.8 508.1 133.8 507.1 133.8 C 507.5 133.8 508.1 133.8 508.3 133.8 C 507.8 133.7 507.0 133.7 506.7 133.7 C 508.1 133.7 509.7 133.7 511.1 133.6 C 511.4 133.6 510.5 133.6 510.6 133.6 C 512.0 133.5 513.9 133.6 515.0 133.5 C 513.8 133.4 511.5 133.5 510.8 133.5 C 511.2 133.4 511.7 133.4 512.2 133.4 C 513.1 133.4 513.6 133.4 512.5 133.3 C 511.9 133.3 512.0 133.3 512.1 133.3 C 512.8 133.2 515.0 133.3 515.0 133.1 C 514.4 133.1 512.1 133.2 511.5 133.1 C 512.0 133.0 513.1 133.0 513.3 133.0 C 510.7 133.0 510.8 133.0 510.2 133.0 C 510.5 133.0 511.2 133.0 511.2 133.1 C 509.6 133.1 508.0 133.1 506.4 133.1 C 506.4 133.1 506.4 133.1 506.4 133.1 C 506.4 133.1 506.4 133.1 506.4 133.1 C 506.4 133.1 506.4 133.1 506.4 133.1 C 506.6 133.0 506.5 132.9 506.4 132.9 C 507.1 132.9 507.8 132.9 509.0 132.9 C 508.7 132.8 507.5 132.8 506.5 132.8 C 506.5 132.8 506.5 132.8 506.5 132.8 C 508.2 132.8 510.9 132.7 512.7 132.7 C 511.9 132.7 508.9 132.7 506.8 132.7 C 506.9 132.7 506.9 132.6 507.0 132.6 C 504.4 132.6 501.4 132.5 498.5 132.6 C 499.9 132.4 501.5 132.6 503.3 132.5 C 504.2 132.5 504.9 132.5 505.7 132.4 C 508.0 132.5 514.8 132.5 515.6 132.4 C 516.4 132.4 509.6 132.4 509.5 132.3 C 509.5 132.3 512.7 132.3 511.2 132.3 C 510.4 132.3 508.7 132.3 507.4 132.3 C 507.4 132.2 507.3 132.2 507.3 132.1 C 508.4 132.1 509.7 132.1 509.7 132.2 C 510.2 132.2 511.4 132.2 511.5 132.2 C 511.4 132.2 511.1 132.2 511.1 132.1 C 511.3 132.1 511.7 132.1 511.8 132.1 C 510.5 132.1 508.6 132.1 507.2 132.1 C 507.1 132.0 507.0 132.0 506.8 132.0 C 506.9 132.0 508.0 131.9 508.9 131.9 C 510.0 131.9 507.9 131.9 506.2 131.9 C 505.9 131.9 505.7 131.8 505.4 131.8 C 506.0 131.8 506.6 131.8 507.4 131.8 C 508.3 131.7 508.3 131.7 509.2 131.6 C 507.5 131.6 505.5 131.6 503.9 131.6 C 503.3 131.6 502.7 131.5 502.0 131.5 C 503.4 131.4 504.7 131.4 505.4 131.3 C 506.0 131.3 506.7 131.4 506.9 131.3 C 506.3 131.3 507.8 131.3 507.6 131.2 C 506.8 131.3 505.2 131.2 504.6 131.3 C 503.3 131.3 501.9 131.3 500.7 131.3 C 500.6 131.3 500.4 131.3 500.2 131.3 C 501.3 131.3 502.3 131.3 503.4 131.2 C 502.9 131.1 499.8 131.1 497.6 131.2 C 493.1 131.1 488.6 131.5 484.1 131.6 C 483.9 131.6 483.7 131.6 483.4 131.5 C 483.0 131.5 482.7 131.5 482.4 131.5 C 483.5 131.4 484.4 131.4 485.2 131.4 C 482.0 131.3 489.7 131.3 490.2 131.3 C 485.1 131.1 475.5 131.2 469.5 131.1 C 471.0 131.1 471.4 131.1 469.9 131.1 C 469.5 131.1 469.0 131.1 468.6 131.1 C 474.7 131.0 481.0 131.2 485.8 131.0 C 482.9 131.0 478.6 131.1 477.4 130.9 C 478.2 130.9 479.4 131.0 479.6 130.9 C 478.1 130.8 473.2 130.9 471.8 130.9 C 478.8 130.8 488.4 130.9 493.6 130.7 C 485.7 130.8 475.1 130.7 468.4 130.8 C 469.6 130.8 469.6 130.9 469.0 130.9 C 466.9 130.9 464.8 130.9 462.6 131.0 C 462.2 130.9 462.4 130.9 463.4 130.9 C 464.2 130.9 464.7 130.9 465.0 130.8 C 464.4 130.8 457.8 130.8 463.1 130.8 C 468.4 130.8 477.5 130.7 472.1 130.7 C 466.8 130.7 464.7 130.6 467.6 130.6 C 470.5 130.6 479.8 130.5 476.7 130.4 C 473.6 130.4 467.1 130.4 463.4 130.4 C 459.7 130.4 465.9 130.7 460.5 130.7 C 455.1 130.7 459.6 130.6 458.5 130.6 C 456.9 130.6 453.9 130.6 451.0 130.6 C 449.0 130.6 446.4 130.6 445.1 130.5 C 445.2 130.5 451.3 130.5 448.9 130.5 C 443.0 130.5 436.3 130.4 439.1 130.6 C 435.4 130.5 432.7 130.6 430.4 130.6 C 426.8 130.5 422.7 130.5 422.2 130.5 C 421.7 130.4 411.9 130.6 408.3 130.3 C 408.0 130.3 401.4 130.4 400.9 130.5 C 394.6 130.4 395.5 130.3 389.4 130.4 C 384.2 130.4 382.6 130.5 381.8 130.5 C 376.3 130.5 376.4 130.4 373.7 130.8 C 372.9 130.9 371.7 130.9 371.3 131.2 C 370.4 131.6 370.0 132.1 370.3 132.7 C 370.3 132.7 370.3 132.7 370.3 132.7 Z M 505.7 133.2 C 506.7 133.2 508.4 133.2 509.4 133.2 C 508.3 133.3 506.8 133.3 505.4 133.3 C 505.5 133.2 505.6 133.2 505.7 133.2 C 505.7 133.2 505.7 133.2 505.7 133.2 Z M 498.3 131.9 C 499.0 131.9 499.7 132.0 500.5 132.0 C 501.1 132.0 501.8 132.0 502.9 131.9 C 502.8 131.9 501.1 131.9 499.8 131.9 C 499.8 131.9 499.8 131.8 499.8 131.8 C 500.4 131.8 501.2 131.7 502.1 131.7 C 502.4 131.8 502.7 131.8 503.0 131.8 C 503.0 131.8 502.5 131.8 502.4 131.8 C 502.6 131.9 503.4 131.9 504.4 131.9 C 504.6 132.0 504.7 132.0 504.8 132.0 C 505.0 132.0 504.2 132.1 505.0 132.1 C 504.4 132.1 502.8 132.1 501.8 132.1 C 503.0 131.9 498.7 132.0 497.7 132.0 C 497.9 132.0 498.1 131.9 498.3 131.9 Z M 490.3 134.8 C 489.7 134.8 489.1 134.8 488.5 134.8 C 489.4 134.8 490.0 134.8 490.6 134.8 C 490.5 134.8 490.4 134.8 490.3 134.8 Z M 443.0 135.5 C 446.5 135.3 453.7 135.5 454.2 135.4 C 454.9 135.4 455.6 135.4 456.4 135.4 C 451.6 135.4 446.5 135.4 443.0 135.5 C 443.0 135.5 443.0 135.5 443.0 135.5 Z M 455.2 130.9 C 455.5 130.9 455.4 130.9 454.7 130.9 C 451.0 131.0 448.8 131.0 451.1 131.0 C 453.1 131.0 457.4 131.1 456.2 131.1 C 454.5 131.1 452.8 131.1 451.0 131.1 C 449.7 131.1 448.4 131.0 447.1 130.9 C 449.9 130.9 452.7 130.9 455.2 130.9 C 455.2 130.9 455.2 130.9 455.2 130.9 Z M 445.5 130.8 C 446.5 130.8 447.7 130.8 448.9 130.8 C 447.9 130.8 446.8 130.8 445.7 130.8 C 445.6 130.8 445.5 130.8 445.5 130.8 Z M 444.2 130.7 C 446.2 130.7 448.3 130.7 446.2 130.8 C 445.8 130.8 445.3 130.8 444.8 130.8 C 444.6 130.8 444.4 130.7 444.2 130.7 Z M 442.9 130.7 C 442.9 130.7 443.3 130.7 443.9 130.7 C 442.5 130.7 439.7 130.8 439.8 130.7 C 440.8 130.7 441.8 130.7 442.9 130.7 C 442.9 130.7 442.9 130.7 442.9 130.7 Z M 440.8 135.6 C 441.7 135.6 442.5 135.6 441.0 135.6 C 440.5 135.7 439.9 135.7 439.3 135.7 C 439.8 135.6 440.3 135.6 440.8 135.6 Z M 488.9 130.9 C 488.5 130.9 487.0 130.9 486.1 130.9 C 486.0 131.2 489.4 131.0 488.9 130.9 C 488.9 130.9 488.9 130.9 488.9 130.9 Z M 494.5 130.8 C 494.1 130.8 492.6 130.8 491.7 130.9 C 491.6 131.1 495.0 130.9 494.5 130.8 C 494.5 130.8 494.5 130.8 494.5 130.8 Z M 408.3 130.3 C 408.3 130.3 408.3 130.3 408.3 130.3 C 408.3 130.3 408.3 130.3 408.3 130.3 C 408.3 130.3 408.3 130.3 408.3 130.3 Z M 408.3 130.3 " fill="#9E504B"></path><image xlink:href="EB6FA37BA41C9BF0F6EF462BCF62E574.png" width="141.00" height="190.00" transform="matrix(0.99, 0.00, -0.00, -1.00, 520.9, 183.8)"></image><image xlink:href="808A577265F7B25F130D06300474E847.png" width="59.00" height="69.00" transform="matrix(1.02, 0.00, -0.00, -1.00, 561.0, 124.0)"></image></g></svg>