<?xml version="1.0" encoding="UTF-8" standalone="no"?><svg xmlns="http://www.w3.org/2000/svg" xmlns:xlink="http://www.w3.org/1999/xlink" clip-rule="evenodd" stroke-miterlimit="4.00" viewBox="0 0 217 93"><desc>SVG generated by Keynote</desc><defs><pattern id="91C52FEF-0AE1-4025-BE68-6F370509BCD3" patternUnits="userSpaceOnUse" width="326" height="326" viewBox="0 0 326 326" patternTransform="matrix(0.570552, 0.000000, 0.000000, -0.570552, 3.426758, 90.216830)"><image xlink:href="../../7D75CC22-08E6-46FA-89F4-20BC499AD49E/assets/E4BB5A9ABE0308DAE349DEA7FB57AABB.jpeg" width="326.00" height="326.00"></image></pattern></defs><g transform="matrix(1.00, 0.00, -0.00, -1.00, 0.0, 93.0)"><g><clipPath id="clip-577"><path d="M 3.4 90.2 L 214.2 90.2 L 214.2 3.2 L 3.4 3.2 Z M 3.4 90.2 "></path></clipPath><g clip-path="url(#clip-577)"><path d="M 3.4 3.2 L 214.2 3.2 L 214.2 90.2 L 3.4 90.2 Z M 3.4 3.2 " fill="url(#91C52FEF-0AE1-4025-BE68-6F370509BCD3)"></path><path d="M 3.4 90.2 L 214.2 90.2 L 214.2 3.2 L 3.4 3.2 Z M 3.4 90.2 " fill="#000000" fill-opacity="0.63"></path></g></g><path d="M 0.0 0.0 L 210.8 0.0 L 210.8 87.0 L 0.0 87.0 Z M 0.0 0.0 " fill="none" stroke="#000000" stroke-width="3.00" transform="matrix(1.00, 0.00, 0.00, -1.00, 3.4, 90.2)"></path><g><clipPath id="clip-578"><path d="M 4.3 4.1 L 213.4 4.1 L 213.4 89.4 L 4.3 89.4 Z M 4.3 4.1 "></path></clipPath><g clip-path="url(#clip-578)"><path d="M 8.9 84.7 L 114.9 84.7 L 114.9 65.7 L 8.9 65.7 Z M 8.9 84.7 " fill="#000000" fill-opacity="0.00"></path><path d="M 8.9 65.7 L 208.7 65.7 L 208.7 46.7 L 8.9 46.7 Z M 8.9 65.7 " fill="#000000" fill-opacity="0.00"></path><path d="M 8.9 46.7 L 192.0 46.7 L 192.0 27.7 L 8.9 27.7 Z M 8.9 46.7 " fill="#000000" fill-opacity="0.00"></path><path d="M 8.9 27.7 L 18.6 27.7 L 18.6 8.7 L 8.9 8.7 Z M 8.9 27.7 " fill="#000000" fill-opacity="0.00"></path><text xml:space="preserve" font-family="Menlo-Regular" font-size="16.0" fill="#9776AA" transform="matrix(1.00, 0.00, -0.00, -1.00, 9.0, 69.0)">"</text><text xml:space="preserve" font-family="Menlo-Regular" font-size="16.0" fill="#9776AA" transform="matrix(1.00, 0.00, -0.00, -1.00, 18.6, 69.0)">g</text><text xml:space="preserve" font-family="Menlo-Regular" font-size="16.0" fill="#9776AA" transform="matrix(1.00, 0.00, -0.00, -1.00, 28.3, 69.0)">e</text><text xml:space="preserve" font-family="Menlo-Regular" font-size="16.0" fill="#9776AA" transform="matrix(1.00, 0.00, -0.00, -1.00, 37.9, 69.0)">n</text><text xml:space="preserve" font-family="Menlo-Regular" font-size="16.0" fill="#9776AA" transform="matrix(1.00, 0.00, -0.00, -1.00, 47.5, 69.0)">r</text><text xml:space="preserve" font-family="Menlo-Regular" font-size="16.0" fill="#9776AA" transform="matrix(1.00, 0.00, -0.00, -1.00, 57.2, 69.0)">e</text><text xml:space="preserve" font-family="Menlo-Regular" font-size="16.0" fill="#9776AA" transform="matrix(1.00, 0.00, -0.00, -1.00, 66.8, 69.0)">"</text><text xml:space="preserve" font-family="Menlo-Regular" font-size="16.0" fill="#CC7831" transform="matrix(1.00, 0.00, -0.00, -1.00, 76.4, 69.0)">:</text><text xml:space="preserve" font-family="Menlo-Regular" font-size="16.0" fill="#CC7831" transform="matrix(1.00, 0.00, -0.00, -1.00, 86.1, 69.0)"> </text><text xml:space="preserve" font-family="Menlo-Regular" font-size="16.0" fill="#A9B6C6" transform="matrix(1.00, 0.00, -0.00, -1.00, 95.7, 69.0)">{</text><text xml:space="preserve" font-family="Menlo-Regular" font-size="16.0" fill="#A9B6C6" transform="matrix(1.00, 0.00, -0.00, -1.00, 105.3, 69.0)"> </text><text xml:space="preserve" font-family="Menlo-Regular" font-size="16.0" fill="#A9B6C6" transform="matrix(1.00, 0.00, -0.00, -1.00, 9.0, 50.0)"> </text><text xml:space="preserve" font-family="Menlo-Regular" font-size="16.0" fill="#A9B6C6" transform="matrix(1.00, 0.00, -0.00, -1.00, 18.6, 50.0)"> </text><text xml:space="preserve" font-family="Menlo-Regular" font-size="16.0" fill="#9776AA" transform="matrix(1.00, 0.00, -0.00, -1.00, 28.3, 50.0)">"</text><text xml:space="preserve" font-family="Menlo-Regular" font-size="16.0" fill="#9776AA" transform="matrix(1.00, 0.00, -0.00, -1.00, 37.9, 50.0)">d</text><text xml:space="preserve" font-family="Menlo-Regular" font-size="16.0" fill="#9776AA" transform="matrix(1.00, 0.00, -0.00, -1.00, 47.5, 50.0)">e</text><text xml:space="preserve" font-family="Menlo-Regular" font-size="16.0" fill="#9776AA" transform="matrix(1.00, 0.00, -0.00, -1.00, 57.2, 50.0)">s</text><text xml:space="preserve" font-family="Menlo-Regular" font-size="16.0" fill="#9776AA" transform="matrix(1.00, 0.00, -0.00, -1.00, 66.8, 50.0)">c</text><text xml:space="preserve" font-family="Menlo-Regular" font-size="16.0" fill="#9776AA" transform="matrix(1.00, 0.00, -0.00, -1.00, 76.4, 50.0)">r</text><text xml:space="preserve" font-family="Menlo-Regular" font-size="16.0" fill="#9776AA" transform="matrix(1.00, 0.00, -0.00, -1.00, 86.1, 50.0)">i</text><text xml:space="preserve" font-family="Menlo-Regular" font-size="16.0" fill="#9776AA" transform="matrix(1.00, 0.00, -0.00, -1.00, 95.7, 50.0)">p</text><text xml:space="preserve" font-family="Menlo-Regular" font-size="16.0" fill="#9776AA" transform="matrix(1.00, 0.00, -0.00, -1.00, 105.3, 50.0)">t</text><text xml:space="preserve" font-family="Menlo-Regular" font-size="16.0" fill="#9776AA" transform="matrix(1.00, 0.00, -0.00, -1.00, 115.0, 50.0)">i</text><text xml:space="preserve" font-family="Menlo-Regular" font-size="16.0" fill="#9776AA" transform="matrix(1.00, 0.00, -0.00, -1.00, 124.6, 50.0)">o</text><text xml:space="preserve" font-family="Menlo-Regular" font-size="16.0" fill="#9776AA" transform="matrix(1.00, 0.00, -0.00, -1.00, 134.2, 50.0)">n</text><text xml:space="preserve" font-family="Menlo-Regular" font-size="16.0" fill="#9776AA" transform="matrix(1.00, 0.00, -0.00, -1.00, 143.9, 50.0)">"</text><text xml:space="preserve" font-family="Menlo-Regular" font-size="16.0" fill="#CC7831" transform="matrix(1.00, 0.00, -0.00, -1.00, 153.5, 50.0)">:</text><text xml:space="preserve" font-family="Menlo-Regular" font-size="16.0" fill="#CC7831" transform="matrix(1.00, 0.00, -0.00, -1.00, 163.1, 50.0)"> </text><text xml:space="preserve" font-family="Menlo-Regular" font-size="16.0" fill="#6A8758" transform="matrix(1.00, 0.00, -0.00, -1.00, 172.8, 50.0)">"</text><text xml:space="preserve" font-family="Menlo-Regular" font-size="16.0" fill="#6A8758" transform="matrix(1.00, 0.00, -0.00, -1.00, 182.4, 50.0)">"</text><text xml:space="preserve" font-family="Menlo-Regular" font-size="16.0" fill="#CC7831" transform="matrix(1.00, 0.00, -0.00, -1.00, 192.0, 50.0)">,</text><text xml:space="preserve" font-family="Menlo-Regular" font-size="16.0" fill="#CC7831" transform="matrix(1.00, 0.00, -0.00, -1.00, 201.7, 50.0)"> </text><text xml:space="preserve" font-family="Menlo-Regular" font-size="16.0" fill="#CC7831" transform="matrix(1.00, 0.00, -0.00, -1.00, 9.0, 31.0)"> </text><text xml:space="preserve" font-family="Menlo-Regular" font-size="16.0" fill="#CC7831" transform="matrix(1.00, 0.00, -0.00, -1.00, 18.6, 31.0)"> </text><text xml:space="preserve" font-family="Menlo-Regular" font-size="16.0" fill="#9776AA" transform="matrix(1.00, 0.00, -0.00, -1.00, 28.3, 31.0)">"</text><text xml:space="preserve" font-family="Menlo-Regular" font-size="16.0" fill="#9776AA" transform="matrix(1.00, 0.00, -0.00, -1.00, 37.9, 31.0)">t</text><text xml:space="preserve" font-family="Menlo-Regular" font-size="16.0" fill="#9776AA" transform="matrix(1.00, 0.00, -0.00, -1.00, 47.5, 31.0)">y</text><text xml:space="preserve" font-family="Menlo-Regular" font-size="16.0" fill="#9776AA" transform="matrix(1.00, 0.00, -0.00, -1.00, 57.2, 31.0)">p</text><text xml:space="preserve" font-family="Menlo-Regular" font-size="16.0" fill="#9776AA" transform="matrix(1.00, 0.00, -0.00, -1.00, 66.8, 31.0)">e</text><text xml:space="preserve" font-family="Menlo-Regular" font-size="16.0" fill="#9776AA" transform="matrix(1.00, 0.00, -0.00, -1.00, 76.4, 31.0)">"</text><text xml:space="preserve" font-family="Menlo-Regular" font-size="16.0" fill="#CC7831" transform="matrix(1.00, 0.00, -0.00, -1.00, 86.1, 31.0)">:</text><text xml:space="preserve" font-family="Menlo-Regular" font-size="16.0" fill="#CC7831" transform="matrix(1.00, 0.00, -0.00, -1.00, 95.7, 31.0)"> </text><text xml:space="preserve" font-family="Menlo-Regular" font-size="16.0" fill="#6A8758" transform="matrix(1.00, 0.00, -0.00, -1.00, 105.3, 31.0)">"</text><text xml:space="preserve" font-family="Menlo-Regular" font-size="16.0" fill="#6A8758" transform="matrix(1.00, 0.00, -0.00, -1.00, 115.0, 31.0)">s</text><text xml:space="preserve" font-family="Menlo-Regular" font-size="16.0" fill="#6A8758" transform="matrix(1.00, 0.00, -0.00, -1.00, 124.6, 31.0)">t</text><text xml:space="preserve" font-family="Menlo-Regular" font-size="16.0" fill="#6A8758" transform="matrix(1.00, 0.00, -0.00, -1.00, 134.2, 31.0)">r</text><text xml:space="preserve" font-family="Menlo-Regular" font-size="16.0" fill="#6A8758" transform="matrix(1.00, 0.00, -0.00, -1.00, 143.9, 31.0)">i</text><text xml:space="preserve" font-family="Menlo-Regular" font-size="16.0" fill="#6A8758" transform="matrix(1.00, 0.00, -0.00, -1.00, 153.5, 31.0)">n</text><text xml:space="preserve" font-family="Menlo-Regular" font-size="16.0" fill="#6A8758" transform="matrix(1.00, 0.00, -0.00, -1.00, 163.1, 31.0)">g</text><text xml:space="preserve" font-family="Menlo-Regular" font-size="16.0" fill="#6A8758" transform="matrix(1.00, 0.00, -0.00, -1.00, 172.8, 31.0)">"</text><text xml:space="preserve" font-family="Menlo-Regular" font-size="16.0" fill="#6A8758" transform="matrix(1.00, 0.00, -0.00, -1.00, 182.4, 31.0)"> </text><text xml:space="preserve" font-family="Menlo-Regular" font-size="16.0" fill="#A9B6C6" transform="matrix(1.00, 0.00, -0.00, -1.00, 9.0, 12.0)">}</text></g></g></g></svg>